<?xml version="1.0" encoding="utf-8" standalone="no"?>
<!DOCTYPE svg PUBLIC "-//W3C//DTD SVG 1.1//EN"
  "http://www.w3.org/Graphics/SVG/1.1/DTD/svg11.dtd">
<svg xmlns:xlink="http://www.w3.org/1999/xlink" width="460.8pt" height="345.6pt" viewBox="0 0 460.8 345.6" xmlns="http://www.w3.org/2000/svg" version="1.1">
 <metadata>
  <rdf:RDF xmlns:dc="http://purl.org/dc/elements/1.1/" xmlns:cc="http://creativecommons.org/ns#" xmlns:rdf="http://www.w3.org/1999/02/22-rdf-syntax-ns#">
   <cc:Work>
    <dc:type rdf:resource="http://purl.org/dc/dcmitype/StillImage"/>
    <dc:date>2023-10-31T00:51:23.001370</dc:date>
    <dc:format>image/svg+xml</dc:format>
    <dc:creator>
     <cc:Agent>
      <dc:title>Matplotlib v3.7.1, https://matplotlib.org/</dc:title>
     </cc:Agent>
    </dc:creator>
   </cc:Work>
  </rdf:RDF>
 </metadata>
 <defs>
  <style type="text/css">*{stroke-linejoin: round; stroke-linecap: butt}</style>
 </defs>
 <g id="figure_1">
  <g id="patch_1">
   <path d="M 0 345.6 
L 460.8 345.6 
L 460.8 0 
L 0 0 
z
" style="fill: #ffffff"/>
  </g>
  <g id="axes_1">
   <g id="patch_2">
    <path d="M 57.6 307.584 
L 414.72 307.584 
L 414.72 41.472 
L 57.6 41.472 
z
" style="fill: #ffffff"/>
   </g>
   <g id="PathCollection_1">
    <defs>
     <path id="me7113faf0e" d="M 0 -3 
L -0.673542 -0.927051 
L -2.85317 -0.927051 
L -1.089814 0.354102 
L -1.763356 2.427051 
L -0 1.145898 
L 1.763356 2.427051 
L 1.089814 0.354102 
L 2.85317 -0.927051 
L 0.673542 -0.927051 
z
" style="stroke: #008000"/>
    </defs>
    <g clip-path="url(#p6f287746e4)">
     <use xlink:href="#me7113faf0e" x="230.232091" y="213.058779" style="fill: #008000; stroke: #008000"/>
    </g>
   </g>
   <g id="PathCollection_2">
    <g clip-path="url(#p6f287746e4)">
     <use xlink:href="#me7113faf0e" x="241.763092" y="133.308061" style="fill: #008000; stroke: #008000"/>
    </g>
   </g>
   <g id="PathCollection_3">
    <g clip-path="url(#p6f287746e4)">
     <use xlink:href="#me7113faf0e" x="242.737543" y="53.568" style="fill: #008000; stroke: #008000"/>
    </g>
   </g>
   <g id="matplotlib.axis_1">
    <g id="xtick_1">
     <g id="line2d_1">
      <defs>
       <path id="m42977782f9" d="M 0 0 
L 0 3.5 
" style="stroke: #000000; stroke-width: 0.8"/>
      </defs>
      <g>
       <use xlink:href="#m42977782f9" x="73.832727" y="307.584" style="stroke: #000000; stroke-width: 0.8"/>
      </g>
     </g>
     <g id="text_1">
      <!-- −100 -->
      <g transform="translate(60.099134 322.182437) scale(0.1 -0.1)">
       <defs>
        <path id="DejaVuSans-2212" d="M 678 2272 
L 4684 2272 
L 4684 1741 
L 678 1741 
L 678 2272 
z
" transform="scale(0.015625)"/>
        <path id="DejaVuSans-31" d="M 794 531 
L 1825 531 
L 1825 4091 
L 703 3866 
L 703 4441 
L 1819 4666 
L 2450 4666 
L 2450 531 
L 3481 531 
L 3481 0 
L 794 0 
L 794 531 
z
" transform="scale(0.015625)"/>
        <path id="DejaVuSans-30" d="M 2034 4250 
Q 1547 4250 1301 3770 
Q 1056 3291 1056 2328 
Q 1056 1369 1301 889 
Q 1547 409 2034 409 
Q 2525 409 2770 889 
Q 3016 1369 3016 2328 
Q 3016 3291 2770 3770 
Q 2525 4250 2034 4250 
z
M 2034 4750 
Q 2819 4750 3233 4129 
Q 3647 3509 3647 2328 
Q 3647 1150 3233 529 
Q 2819 -91 2034 -91 
Q 1250 -91 836 529 
Q 422 1150 422 2328 
Q 422 3509 836 4129 
Q 1250 4750 2034 4750 
z
" transform="scale(0.015625)"/>
       </defs>
       <use xlink:href="#DejaVuSans-2212"/>
       <use xlink:href="#DejaVuSans-31" x="83.789062"/>
       <use xlink:href="#DejaVuSans-30" x="147.412109"/>
       <use xlink:href="#DejaVuSans-30" x="211.035156"/>
      </g>
     </g>
    </g>
    <g id="xtick_2">
     <g id="line2d_2">
      <g>
       <use xlink:href="#m42977782f9" x="114.434847" y="307.584" style="stroke: #000000; stroke-width: 0.8"/>
      </g>
     </g>
     <g id="text_2">
      <!-- −75 -->
      <g transform="translate(103.882503 322.182437) scale(0.1 -0.1)">
       <defs>
        <path id="DejaVuSans-37" d="M 525 4666 
L 3525 4666 
L 3525 4397 
L 1831 0 
L 1172 0 
L 2766 4134 
L 525 4134 
L 525 4666 
z
" transform="scale(0.015625)"/>
        <path id="DejaVuSans-35" d="M 691 4666 
L 3169 4666 
L 3169 4134 
L 1269 4134 
L 1269 2991 
Q 1406 3038 1543 3061 
Q 1681 3084 1819 3084 
Q 2600 3084 3056 2656 
Q 3513 2228 3513 1497 
Q 3513 744 3044 326 
Q 2575 -91 1722 -91 
Q 1428 -91 1123 -41 
Q 819 9 494 109 
L 494 744 
Q 775 591 1075 516 
Q 1375 441 1709 441 
Q 2250 441 2565 725 
Q 2881 1009 2881 1497 
Q 2881 1984 2565 2268 
Q 2250 2553 1709 2553 
Q 1456 2553 1204 2497 
Q 953 2441 691 2322 
L 691 4666 
z
" transform="scale(0.015625)"/>
       </defs>
       <use xlink:href="#DejaVuSans-2212"/>
       <use xlink:href="#DejaVuSans-37" x="83.789062"/>
       <use xlink:href="#DejaVuSans-35" x="147.412109"/>
      </g>
     </g>
    </g>
    <g id="xtick_3">
     <g id="line2d_3">
      <g>
       <use xlink:href="#m42977782f9" x="155.036966" y="307.584" style="stroke: #000000; stroke-width: 0.8"/>
      </g>
     </g>
     <g id="text_3">
      <!-- −50 -->
      <g transform="translate(144.484622 322.182437) scale(0.1 -0.1)">
       <use xlink:href="#DejaVuSans-2212"/>
       <use xlink:href="#DejaVuSans-35" x="83.789062"/>
       <use xlink:href="#DejaVuSans-30" x="147.412109"/>
      </g>
     </g>
    </g>
    <g id="xtick_4">
     <g id="line2d_4">
      <g>
       <use xlink:href="#m42977782f9" x="195.639085" y="307.584" style="stroke: #000000; stroke-width: 0.8"/>
      </g>
     </g>
     <g id="text_4">
      <!-- −25 -->
      <g transform="translate(185.086741 322.182437) scale(0.1 -0.1)">
       <defs>
        <path id="DejaVuSans-32" d="M 1228 531 
L 3431 531 
L 3431 0 
L 469 0 
L 469 531 
Q 828 903 1448 1529 
Q 2069 2156 2228 2338 
Q 2531 2678 2651 2914 
Q 2772 3150 2772 3378 
Q 2772 3750 2511 3984 
Q 2250 4219 1831 4219 
Q 1534 4219 1204 4116 
Q 875 4013 500 3803 
L 500 4441 
Q 881 4594 1212 4672 
Q 1544 4750 1819 4750 
Q 2544 4750 2975 4387 
Q 3406 4025 3406 3419 
Q 3406 3131 3298 2873 
Q 3191 2616 2906 2266 
Q 2828 2175 2409 1742 
Q 1991 1309 1228 531 
z
" transform="scale(0.015625)"/>
       </defs>
       <use xlink:href="#DejaVuSans-2212"/>
       <use xlink:href="#DejaVuSans-32" x="83.789062"/>
       <use xlink:href="#DejaVuSans-35" x="147.412109"/>
      </g>
     </g>
    </g>
    <g id="xtick_5">
     <g id="line2d_5">
      <g>
       <use xlink:href="#m42977782f9" x="236.241204" y="307.584" style="stroke: #000000; stroke-width: 0.8"/>
      </g>
     </g>
     <g id="text_5">
      <!-- 0 -->
      <g transform="translate(233.059954 322.182437) scale(0.1 -0.1)">
       <use xlink:href="#DejaVuSans-30"/>
      </g>
     </g>
    </g>
    <g id="xtick_6">
     <g id="line2d_6">
      <g>
       <use xlink:href="#m42977782f9" x="276.843323" y="307.584" style="stroke: #000000; stroke-width: 0.8"/>
      </g>
     </g>
     <g id="text_6">
      <!-- 25 -->
      <g transform="translate(270.480823 322.182437) scale(0.1 -0.1)">
       <use xlink:href="#DejaVuSans-32"/>
       <use xlink:href="#DejaVuSans-35" x="63.623047"/>
      </g>
     </g>
    </g>
    <g id="xtick_7">
     <g id="line2d_7">
      <g>
       <use xlink:href="#m42977782f9" x="317.445443" y="307.584" style="stroke: #000000; stroke-width: 0.8"/>
      </g>
     </g>
     <g id="text_7">
      <!-- 50 -->
      <g transform="translate(311.082943 322.182437) scale(0.1 -0.1)">
       <use xlink:href="#DejaVuSans-35"/>
       <use xlink:href="#DejaVuSans-30" x="63.623047"/>
      </g>
     </g>
    </g>
    <g id="xtick_8">
     <g id="line2d_8">
      <g>
       <use xlink:href="#m42977782f9" x="358.047562" y="307.584" style="stroke: #000000; stroke-width: 0.8"/>
      </g>
     </g>
     <g id="text_8">
      <!-- 75 -->
      <g transform="translate(351.685062 322.182437) scale(0.1 -0.1)">
       <use xlink:href="#DejaVuSans-37"/>
       <use xlink:href="#DejaVuSans-35" x="63.623047"/>
      </g>
     </g>
    </g>
    <g id="xtick_9">
     <g id="line2d_9">
      <g>
       <use xlink:href="#m42977782f9" x="398.649681" y="307.584" style="stroke: #000000; stroke-width: 0.8"/>
      </g>
     </g>
     <g id="text_9">
      <!-- 100 -->
      <g transform="translate(389.105931 322.182437) scale(0.1 -0.1)">
       <use xlink:href="#DejaVuSans-31"/>
       <use xlink:href="#DejaVuSans-30" x="63.623047"/>
       <use xlink:href="#DejaVuSans-30" x="127.246094"/>
      </g>
     </g>
    </g>
   </g>
   <g id="matplotlib.axis_2">
    <g id="ytick_1">
     <g id="line2d_10">
      <defs>
       <path id="m6a40399c21" d="M 0 0 
L -3.5 0 
" style="stroke: #000000; stroke-width: 0.8"/>
      </defs>
      <g>
       <use xlink:href="#m6a40399c21" x="57.6" y="302.122295" style="stroke: #000000; stroke-width: 0.8"/>
      </g>
     </g>
     <g id="text_10">
      <!-- −5 -->
      <g transform="translate(35.857813 305.921514) scale(0.1 -0.1)">
       <use xlink:href="#DejaVuSans-2212"/>
       <use xlink:href="#DejaVuSans-35" x="83.789062"/>
      </g>
     </g>
    </g>
    <g id="ytick_2">
     <g id="line2d_11">
      <g>
       <use xlink:href="#m6a40399c21" x="57.6" y="262.248207" style="stroke: #000000; stroke-width: 0.8"/>
      </g>
     </g>
     <g id="text_11">
      <!-- 0 -->
      <g transform="translate(44.2375 266.047426) scale(0.1 -0.1)">
       <use xlink:href="#DejaVuSans-30"/>
      </g>
     </g>
    </g>
    <g id="ytick_3">
     <g id="line2d_12">
      <g>
       <use xlink:href="#m6a40399c21" x="57.6" y="222.374119" style="stroke: #000000; stroke-width: 0.8"/>
      </g>
     </g>
     <g id="text_12">
      <!-- 5 -->
      <g transform="translate(44.2375 226.173337) scale(0.1 -0.1)">
       <use xlink:href="#DejaVuSans-35"/>
      </g>
     </g>
    </g>
    <g id="ytick_4">
     <g id="line2d_13">
      <g>
       <use xlink:href="#m6a40399c21" x="57.6" y="182.50003" style="stroke: #000000; stroke-width: 0.8"/>
      </g>
     </g>
     <g id="text_13">
      <!-- 10 -->
      <g transform="translate(37.875 186.299249) scale(0.1 -0.1)">
       <use xlink:href="#DejaVuSans-31"/>
       <use xlink:href="#DejaVuSans-30" x="63.623047"/>
      </g>
     </g>
    </g>
    <g id="ytick_5">
     <g id="line2d_14">
      <g>
       <use xlink:href="#m6a40399c21" x="57.6" y="142.625942" style="stroke: #000000; stroke-width: 0.8"/>
      </g>
     </g>
     <g id="text_14">
      <!-- 15 -->
      <g transform="translate(37.875 146.425161) scale(0.1 -0.1)">
       <use xlink:href="#DejaVuSans-31"/>
       <use xlink:href="#DejaVuSans-35" x="63.623047"/>
      </g>
     </g>
    </g>
    <g id="ytick_6">
     <g id="line2d_15">
      <g>
       <use xlink:href="#m6a40399c21" x="57.6" y="102.751854" style="stroke: #000000; stroke-width: 0.8"/>
      </g>
     </g>
     <g id="text_15">
      <!-- 20 -->
      <g transform="translate(37.875 106.551073) scale(0.1 -0.1)">
       <use xlink:href="#DejaVuSans-32"/>
       <use xlink:href="#DejaVuSans-30" x="63.623047"/>
      </g>
     </g>
    </g>
    <g id="ytick_7">
     <g id="line2d_16">
      <g>
       <use xlink:href="#m6a40399c21" x="57.6" y="62.877766" style="stroke: #000000; stroke-width: 0.8"/>
      </g>
     </g>
     <g id="text_16">
      <!-- 25 -->
      <g transform="translate(37.875 66.676984) scale(0.1 -0.1)">
       <use xlink:href="#DejaVuSans-32"/>
       <use xlink:href="#DejaVuSans-35" x="63.623047"/>
      </g>
     </g>
    </g>
   </g>
   <g id="line2d_17">
    <path d="M 73.832727 254.472446 
L 74.157544 254.395982 
L 74.969587 254.284779 
L 75.294404 254.264241 
L 76.106446 254.211855 
L 76.593671 254.260313 
L 77.080897 254.245221 
L 77.568122 254.261705 
L 79.192207 254.280382 
L 79.679432 254.258169 
L 82.440377 254.212222 
L 84.064461 254.428124 
L 86.33818 254.253315 
L 86.500588 254.12904 
L 86.825405 254.178507 
L 86.987814 254.082112 
L 89.099124 254.422971 
L 91.210434 254.197705 
L 92.347294 253.681835 
L 92.996928 253.361819 
L 93.321745 253.194023 
L 93.80897 253.103161 
L 94.458604 253.514659 
L 94.783421 253.936332 
L 95.433055 255.39699 
L 96.569914 258.562035 
L 96.894731 259.11501 
L 97.219548 259.204164 
L 97.544365 258.739296 
L 98.03159 257.09623 
L 98.681224 253.33213 
L 99.493267 248.373498 
L 99.980492 246.692105 
L 100.305309 246.522372 
L 100.467717 246.696302 
L 100.792534 247.605786 
L 101.27976 250.115301 
L 102.741436 258.159895 
L 103.066253 258.844037 
L 103.39107 258.959725 
L 103.553479 258.921683 
L 104.040704 258.12842 
L 105.989606 253.88024 
L 106.314423 253.634148 
L 106.801648 253.391337 
L 107.288874 253.399245 
L 107.938507 253.602783 
L 109.725001 254.222658 
L 111.673902 254.473071 
L 111.836311 254.367326 
L 112.161128 254.375932 
L 112.323536 254.167528 
L 112.648353 254.103634 
L 113.135579 253.883981 
L 113.947621 253.801615 
L 115.08448 254.205881 
L 115.571706 254.397413 
L 116.22134 254.664512 
L 116.708565 254.756188 
L 117.520608 254.638717 
L 118.33265 254.36254 
L 118.657467 254.245608 
L 118.982284 254.071298 
L 120.119143 254.084597 
L 120.44396 254.188385 
L 121.093594 254.309631 
L 121.905636 254.2536 
L 124.179355 253.774666 
L 124.828989 253.307173 
L 125.965848 252.303178 
L 126.615482 252.451448 
L 126.940299 252.872503 
L 127.589933 254.971026 
L 128.239567 258.279623 
L 129.051609 262.612204 
L 129.376426 263.618782 
L 129.538835 263.88173 
L 129.701243 263.880599 
L 129.863652 263.639891 
L 130.188469 262.415341 
L 130.675694 258.520798 
L 131.325328 250.750357 
L 132.137371 241.496892 
L 132.462187 239.376776 
L 132.787004 238.743371 
L 132.949413 239.085207 
L 133.27423 240.633632 
L 133.761455 245.485679 
L 135.060723 260.484186 
L 135.38554 262.546338 
L 135.710357 263.504513 
L 135.872765 263.665556 
L 136.035174 263.526361 
L 136.359991 262.691264 
L 137.009625 259.704683 
L 138.146484 254.533867 
L 138.63371 253.344227 
L 139.120935 252.736957 
L 139.60816 252.576521 
L 142.206696 253.99944 
L 142.531513 254.119982 
L 144.155598 254.342419 
L 144.805232 254.163808 
L 145.292457 254.066321 
L 145.617274 253.979705 
L 145.942091 253.919333 
L 147.07895 254.11632 
L 147.566176 254.293977 
L 147.728584 254.40599 
L 147.890993 254.367252 
L 148.21581 254.549304 
L 148.378218 254.533691 
L 148.865444 254.71834 
L 149.027852 254.640742 
L 149.190261 254.717829 
L 149.515078 254.6742 
L 150.814345 254.351395 
L 151.139162 254.241244 
L 151.788796 254.162362 
L 152.43843 254.189356 
L 154.224923 254.265342 
L 155.199374 254.057932 
L 156.011417 253.864656 
L 156.336234 253.765715 
L 156.823459 253.504204 
L 157.79791 252.311004 
L 158.285135 251.652633 
L 158.772361 251.257292 
L 159.097178 251.378775 
L 159.421995 252.062628 
L 159.746812 253.246118 
L 160.071629 255.016158 
L 160.558854 258.666844 
L 161.695713 267.780965 
L 162.02053 268.896399 
L 162.182939 269.035419 
L 162.345347 268.786768 
L 162.670164 266.93688 
L 162.994981 263.498785 
L 163.644615 252.53677 
L 164.619066 234.88085 
L 164.943883 231.596438 
L 165.106291 230.84616 
L 165.2687 230.653983 
L 165.431108 230.954854 
L 165.755925 233.340756 
L 166.243151 240.565698 
L 167.704827 265.530238 
L 168.029644 267.882522 
L 168.192052 268.512019 
L 168.354461 268.678761 
L 168.516869 268.558285 
L 168.841686 267.29133 
L 169.328912 263.749186 
L 170.465771 255.03819 
L 170.952996 252.806827 
L 171.277813 252.012997 
L 171.60263 251.625616 
L 171.765039 251.551937 
L 172.252264 251.787326 
L 172.73949 252.347813 
L 173.876349 253.642883 
L 174.525983 254.050833 
L 175.987659 254.3881 
L 176.312476 254.385533 
L 177.124519 254.198121 
L 177.611744 254.028962 
L 177.774153 254.071778 
L 178.261378 253.904579 
L 178.423786 254.018627 
L 178.911012 253.923663 
L 179.235829 253.987538 
L 179.398237 253.927753 
L 180.21028 254.284847 
L 180.535097 254.346205 
L 180.859914 254.481346 
L 181.184731 254.530013 
L 182.32159 254.653055 
L 183.296041 254.381078 
L 183.620858 254.369443 
L 183.945675 254.222772 
L 184.920126 254.180129 
L 185.082534 254.231262 
L 185.244942 254.125528 
L 186.219393 254.23241 
L 187.193844 254.145622 
L 187.518661 254.045234 
L 188.493112 253.72961 
L 188.980337 253.387287 
L 189.954788 252.20046 
L 191.091648 250.546244 
L 191.416465 250.563942 
L 191.741282 251.138995 
L 192.228507 253.136744 
L 192.715732 256.847294 
L 193.527775 265.668633 
L 194.177409 272.056322 
L 194.502226 273.509354 
L 194.664634 273.737015 
L 194.827043 273.318487 
L 195.15186 271.010629 
L 195.476677 266.444657 
L 195.963902 256.186255 
L 197.100761 228.694809 
L 197.425578 224.318888 
L 197.750395 222.811733 
L 197.912804 223.280225 
L 198.237621 226.477377 
L 198.724846 235.895066 
L 200.186522 269.14959 
L 200.511339 272.31409 
L 200.673748 273.198462 
L 200.836156 273.446461 
L 200.998565 273.358328 
L 201.323382 271.594592 
L 201.648199 268.874404 
L 203.272283 253.346309 
L 203.5971 251.767293 
L 203.921917 250.958561 
L 204.246734 250.666755 
L 204.571551 250.816773 
L 205.058777 251.477323 
L 205.546002 252.172232 
L 205.870819 252.686559 
L 206.682861 253.475889 
L 208.469355 254.240461 
L 208.794172 254.207898 
L 208.95658 254.175491 
L 209.118989 254.290365 
L 209.281397 254.211999 
L 209.443806 254.270286 
L 209.931031 254.09224 
L 210.418256 254.034419 
L 210.743073 253.952848 
L 211.392707 253.980111 
L 211.879933 254.116664 
L 214.153651 254.811579 
L 214.31606 254.730583 
L 214.640877 254.747163 
L 215.452919 254.40806 
L 215.777736 254.213057 
L 216.102553 254.167539 
L 216.42737 254.036611 
L 217.726638 254.050357 
L 218.53868 254.258244 
L 218.863497 254.25724 
L 219.188314 254.286761 
L 220.000357 254.163997 
L 221.462033 253.180596 
L 222.111667 252.222707 
L 223.573343 249.676593 
L 223.89816 249.757188 
L 224.222977 250.391252 
L 224.547794 251.840805 
L 225.035019 255.631943 
L 225.684653 263.666939 
L 226.659104 276.36867 
L 226.983921 278.40131 
L 227.14633 278.610828 
L 227.308738 278.182406 
L 227.633555 275.475296 
L 227.958372 269.888791 
L 228.445597 257.009753 
L 229.744865 219.008647 
L 230.232091 213.058779 
L 230.881724 222.214976 
L 231.531358 241.084957 
L 232.343401 266.108625 
L 232.830626 275.470333 
L 233.155443 278.182066 
L 233.317852 278.604764 
L 233.48026 278.405606 
L 233.805077 276.366748 
L 234.292303 270.65922 
L 235.429162 255.620848 
L 235.916387 251.836306 
L 236.241204 250.394536 
L 236.566021 249.763829 
L 236.890838 249.690576 
L 237.378064 250.382644 
L 239.164557 253.382115 
L 239.326965 253.453193 
L 239.651782 253.75634 
L 240.139008 254.018276 
L 241.438276 254.312174 
L 242.087909 254.211291 
L 242.575135 254.114175 
L 242.737543 254.045875 
L 242.899952 254.110895 
L 243.224769 254.02577 
L 243.387177 254.036989 
L 243.549586 253.928705 
L 244.036811 254.028216 
L 245.011262 254.402718 
L 245.660896 254.71235 
L 246.797755 254.739661 
L 249.558699 253.963347 
L 250.045925 254.039021 
L 251.507601 254.173961 
L 252.319643 254.190192 
L 253.78132 253.470382 
L 254.755771 252.515972 
L 255.242996 251.682353 
L 256.055038 250.685293 
L 256.217447 250.671536 
L 256.542264 250.948206 
L 256.867081 251.75651 
L 257.191898 253.34774 
L 257.516715 255.472191 
L 258.166349 261.718551 
L 259.140799 271.593694 
L 259.465616 273.366468 
L 259.628025 273.455759 
L 259.790433 273.203169 
L 260.11525 271.065753 
L 260.440067 266.730329 
L 260.927293 256.683297 
L 262.226561 226.491708 
L 262.551378 223.287195 
L 262.713786 222.811163 
L 262.876194 223.260478 
L 263.038603 224.325425 
L 263.36342 228.697705 
L 263.850645 239.352217 
L 264.987505 266.4384 
L 265.312322 271.013292 
L 265.637139 273.313692 
L 265.799547 273.737461 
L 265.961956 273.514373 
L 266.286772 272.066806 
L 266.773998 267.48192 
L 268.073266 254.163818 
L 268.560491 251.697361 
L 268.885308 250.808473 
L 269.210125 250.503628 
L 269.372534 250.546056 
L 270.184576 251.640933 
L 270.996618 252.895674 
L 271.808661 253.651839 
L 272.620703 253.976652 
L 274.407196 254.230548 
L 275.219239 254.123905 
L 275.381647 254.258528 
L 275.868873 254.068934 
L 276.356098 254.209261 
L 276.843323 254.371328 
L 278.142591 254.643444 
L 279.117042 254.574813 
L 281.715578 253.880856 
L 282.040395 254.010734 
L 282.202803 253.905617 
L 282.690029 254.069589 
L 282.852437 254.029281 
L 283.339663 254.198657 
L 284.801339 254.380435 
L 286.100607 253.923083 
L 286.587832 253.637234 
L 287.399874 252.763732 
L 288.211917 251.784293 
L 288.699142 251.550674 
L 289.023959 251.697121 
L 289.511185 252.810523 
L 289.99841 255.025358 
L 290.648044 259.608851 
L 291.460086 266.266398 
L 291.784903 268.02329 
L 291.947312 268.571283 
L 292.10972 268.685601 
L 292.272129 268.51266 
L 292.596946 266.954811 
L 292.921763 263.780503 
L 293.408988 256.175222 
L 294.708256 233.391251 
L 295.033073 231.024654 
L 295.195481 230.723207 
L 295.35789 230.923065 
L 295.520298 231.661973 
L 295.845115 234.948818 
L 296.332341 243.069525 
L 297.4692 263.418348 
L 297.956425 267.950957 
L 298.281242 268.876895 
L 298.443651 268.742952 
L 298.606059 268.351307 
L 298.930876 266.624035 
L 299.418102 262.908635 
L 300.230144 256.06697 
L 300.71737 253.286722 
L 301.204595 251.730115 
L 301.529412 251.371939 
L 301.854229 251.386013 
L 302.666271 252.362377 
L 303.315905 253.276105 
L 304.127948 253.767642 
L 304.452765 253.873352 
L 304.615173 253.864521 
L 304.93999 253.98707 
L 305.914441 254.160198 
L 306.239258 254.265653 
L 309.000202 254.087289 
L 309.325019 254.23744 
L 309.812244 254.386019 
L 310.137061 254.52536 
L 310.624287 254.615242 
L 311.598738 254.707749 
L 311.761146 254.600431 
L 311.923555 254.635579 
L 312.248371 254.545603 
L 313.222822 254.149762 
L 314.684499 253.905724 
L 314.846907 253.998415 
L 315.009316 253.955488 
L 315.496541 254.167814 
L 315.821358 254.223113 
L 316.958217 254.330781 
L 317.77026 254.147308 
L 318.744711 253.795583 
L 320.856021 252.567969 
L 321.505655 252.881185 
L 321.99288 253.611893 
L 322.480106 255.091487 
L 323.129739 258.013482 
L 324.10419 262.694014 
L 324.429007 263.533988 
L 324.591416 263.648096 
L 324.753824 263.510244 
L 325.078641 262.563042 
L 325.403458 260.488799 
L 325.890684 255.670818 
L 327.189951 240.692928 
L 327.514768 239.151725 
L 327.677177 238.798888 
L 327.839585 238.973959 
L 328.001994 239.453481 
L 328.326811 241.562937 
L 328.814036 246.678859 
L 329.950895 259.967476 
L 330.438121 262.936463 
L 330.762938 263.72907 
L 330.925346 263.71894 
L 331.250163 263.073339 
L 331.737389 260.918051 
L 333.199065 253.801371 
L 333.68629 252.698813 
L 334.173516 252.307172 
L 334.985558 252.732345 
L 335.635192 253.337363 
L 336.122418 253.701567 
L 336.93446 254.052206 
L 339.532996 254.287042 
L 340.669855 254.058282 
L 341.319489 254.084447 
L 341.644306 254.133486 
L 341.806714 254.261967 
L 341.969123 254.237631 
L 342.456348 254.479055 
L 343.268391 254.722361 
L 344.730067 254.497985 
L 345.054884 254.352343 
L 345.379701 254.208068 
L 345.542109 254.075031 
L 345.866926 253.993927 
L 346.354152 253.842239 
L 347.003786 253.79435 
L 348.140645 254.169768 
L 348.303053 254.381668 
L 350.414364 254.319448 
L 350.73918 254.224198 
L 351.226406 254.138683 
L 351.551223 253.97183 
L 352.688082 253.600032 
L 353.175308 253.454058 
L 353.98735 253.584615 
L 354.636984 254.119244 
L 355.449026 255.589005 
L 356.261069 257.611815 
L 356.748294 258.546351 
L 357.073111 258.804064 
L 357.23552 258.814692 
L 357.397928 258.707289 
L 357.722745 258.054416 
L 358.20997 256.04387 
L 358.859604 252.159339 
L 359.671647 247.743033 
L 359.996464 246.846782 
L 360.158872 246.664891 
L 360.483689 246.832711 
L 360.808506 247.821018 
L 361.295732 250.26598 
L 362.594999 257.631731 
L 363.082225 258.890178 
L 363.244633 259.04812 
L 363.56945 258.953051 
L 364.219084 257.716676 
L 365.031126 255.352649 
L 365.68076 253.971164 
L 366.005577 253.563198 
L 366.655211 253.17164 
L 366.980028 253.2006 
L 368.279296 253.776999 
L 369.253747 254.206507 
L 370.553015 254.376371 
L 370.877832 254.406847 
L 371.689874 254.410284 
L 371.852283 254.450127 
L 372.177099 254.344456 
L 372.501916 254.297988 
L 372.826733 254.164013 
L 373.313959 254.127329 
L 373.476367 254.084836 
L 373.801184 254.175985 
L 373.963593 254.135446 
L 374.126001 254.259927 
L 374.450818 254.275662 
L 375.100452 254.411778 
L 375.587677 254.467068 
L 377.536579 254.278105 
L 378.51103 254.142036 
L 378.998255 254.169989 
L 379.647889 254.130012 
L 379.972706 254.171697 
L 380.459932 254.187544 
L 380.947157 254.293789 
L 381.271974 254.28534 
L 381.596791 254.343616 
L 381.921608 254.287167 
L 382.246425 254.356515 
L 382.571242 254.278506 
L 384.032918 254.243779 
L 384.520144 254.271163 
L 384.844961 254.279804 
L 385.819412 254.388919 
L 386.631454 254.531555 
L 387.118679 254.45209 
L 387.443496 254.419949 
L 387.768313 254.268995 
L 389.067581 253.851464 
L 389.554806 253.863568 
L 390.042032 254.038125 
L 390.366849 254.178329 
L 391.990934 254.727222 
L 392.315751 254.714391 
L 392.802976 254.681521 
L 393.290201 254.432451 
L 394.914286 253.885568 
L 395.56392 254.082021 
L 395.726329 254.045122 
L 396.213554 254.241009 
L 396.375963 254.240255 
L 396.538371 254.362564 
L 397.025596 254.387262 
L 397.188005 254.430031 
L 397.350413 254.347996 
L 397.67523 254.368448 
L 398.487273 254.174986 
L 398.487273 254.174986 
" clip-path="url(#p6f287746e4)" style="fill: none; stroke: #0000ff; stroke-width: 1.5; stroke-linecap: square"/>
   </g>
   <g id="line2d_18">
    <path d="M 73.832727 254.074332 
L 74.157544 254.150797 
L 74.969587 254.262 
L 75.294404 254.282537 
L 76.106446 254.334924 
L 76.593671 254.286465 
L 77.080897 254.301557 
L 77.568122 254.285074 
L 79.192207 254.266397 
L 79.679432 254.28861 
L 82.440377 254.334557 
L 84.064461 254.118655 
L 86.33818 254.293463 
L 86.500588 254.417738 
L 86.825405 254.368272 
L 86.987814 254.464667 
L 89.099124 254.123807 
L 91.210434 254.349074 
L 92.347294 254.864943 
L 92.996928 255.18496 
L 93.321745 255.352756 
L 93.80897 255.443617 
L 94.458604 255.032119 
L 94.783421 254.610446 
L 95.433055 253.149789 
L 96.569914 249.984744 
L 96.894731 249.431769 
L 97.219548 249.342614 
L 97.544365 249.807482 
L 98.03159 251.450548 
L 98.681224 255.214648 
L 99.493267 260.17328 
L 99.980492 261.854673 
L 100.305309 262.024407 
L 100.467717 261.850476 
L 100.792534 260.940993 
L 101.27976 258.431478 
L 102.741436 250.386883 
L 103.066253 249.702742 
L 103.39107 249.587054 
L 103.553479 249.625095 
L 104.040704 250.418359 
L 105.989606 254.666538 
L 106.314423 254.91263 
L 106.801648 255.155441 
L 107.288874 255.147534 
L 107.938507 254.943995 
L 109.725001 254.32412 
L 111.673902 254.073708 
L 111.836311 254.179452 
L 112.161128 254.170846 
L 112.323536 254.379251 
L 112.648353 254.443144 
L 113.135579 254.662798 
L 113.947621 254.745164 
L 115.08448 254.340897 
L 115.571706 254.149365 
L 116.22134 253.882267 
L 116.708565 253.79059 
L 117.520608 253.908062 
L 118.33265 254.184239 
L 118.657467 254.30117 
L 118.982284 254.47548 
L 120.119143 254.462181 
L 120.44396 254.358394 
L 121.093594 254.237147 
L 121.905636 254.293179 
L 124.179355 254.772113 
L 124.828989 255.239606 
L 125.965848 256.243601 
L 126.615482 256.09533 
L 126.940299 255.674276 
L 127.589933 253.575753 
L 128.239567 250.267155 
L 129.051609 245.934575 
L 129.376426 244.927996 
L 129.538835 244.665049 
L 129.701243 244.66618 
L 129.863652 244.906888 
L 130.188469 246.131437 
L 130.675694 250.025981 
L 131.325328 257.796422 
L 132.137371 267.049887 
L 132.462187 269.170002 
L 132.787004 269.803407 
L 132.949413 269.461571 
L 133.27423 267.913147 
L 133.761455 263.0611 
L 135.060723 248.062593 
L 135.38554 246.000441 
L 135.710357 245.042266 
L 135.872765 244.881223 
L 136.035174 245.020418 
L 136.359991 245.855514 
L 137.009625 248.842096 
L 138.146484 254.012911 
L 138.63371 255.202551 
L 139.120935 255.809822 
L 139.60816 255.970257 
L 142.206696 254.547339 
L 142.531513 254.426797 
L 144.155598 254.20436 
L 144.805232 254.38297 
L 145.292457 254.480457 
L 145.617274 254.567073 
L 145.942091 254.627446 
L 147.07895 254.430458 
L 147.566176 254.252801 
L 147.728584 254.140789 
L 147.890993 254.179526 
L 148.21581 253.997475 
L 148.378218 254.013087 
L 148.865444 253.828439 
L 149.027852 253.906036 
L 149.190261 253.82895 
L 149.515078 253.872578 
L 150.814345 254.195383 
L 151.139162 254.305535 
L 151.788796 254.384417 
L 152.43843 254.357422 
L 154.224923 254.281437 
L 155.199374 254.488847 
L 156.011417 254.682123 
L 156.336234 254.781064 
L 156.823459 255.042575 
L 157.79791 256.235774 
L 158.285135 256.894145 
L 158.772361 257.289487 
L 159.097178 257.168003 
L 159.421995 256.484151 
L 159.746812 255.30066 
L 160.071629 253.53062 
L 160.558854 249.879935 
L 161.695713 240.765813 
L 162.02053 239.65038 
L 162.182939 239.51136 
L 162.345347 239.760011 
L 162.670164 241.609898 
L 162.994981 245.047994 
L 163.644615 256.010009 
L 164.619066 273.665928 
L 164.943883 276.95034 
L 165.106291 277.700619 
L 165.2687 277.892796 
L 165.431108 277.591925 
L 165.755925 275.206023 
L 166.243151 267.981081 
L 167.704827 243.01654 
L 168.029644 240.664256 
L 168.192052 240.034759 
L 168.354461 239.868018 
L 168.516869 239.988494 
L 168.841686 241.255448 
L 169.328912 244.797593 
L 170.465771 253.508588 
L 170.952996 255.739952 
L 171.277813 256.533781 
L 171.60263 256.921163 
L 171.765039 256.994841 
L 172.252264 256.759452 
L 172.73949 256.198966 
L 173.876349 254.903896 
L 174.525983 254.495945 
L 175.987659 254.158679 
L 176.312476 254.161246 
L 177.124519 254.348658 
L 177.611744 254.517817 
L 177.774153 254.475001 
L 178.261378 254.6422 
L 178.423786 254.528151 
L 178.911012 254.623115 
L 179.235829 254.55924 
L 179.398237 254.619025 
L 180.21028 254.261931 
L 180.535097 254.200573 
L 180.859914 254.065432 
L 181.184731 254.016765 
L 182.32159 253.893724 
L 183.296041 254.165701 
L 183.620858 254.177336 
L 183.945675 254.324007 
L 184.920126 254.366649 
L 185.082534 254.315517 
L 185.244942 254.421251 
L 186.219393 254.314369 
L 187.193844 254.401156 
L 187.518661 254.501545 
L 188.493112 254.817168 
L 188.980337 255.159491 
L 189.954788 256.346319 
L 191.091648 258.000535 
L 191.416465 257.982836 
L 191.741282 257.407784 
L 192.228507 255.410035 
L 192.715732 251.699485 
L 193.527775 242.878146 
L 194.177409 236.490457 
L 194.502226 235.037425 
L 194.664634 234.809763 
L 194.827043 235.228291 
L 195.15186 237.53615 
L 195.476677 242.102122 
L 195.963902 252.360523 
L 197.100761 279.85197 
L 197.425578 284.227891 
L 197.750395 285.735046 
L 197.912804 285.266553 
L 198.237621 282.069401 
L 198.724846 272.651713 
L 200.186522 239.397188 
L 200.511339 236.232689 
L 200.673748 235.348317 
L 200.836156 235.100317 
L 200.998565 235.188451 
L 201.323382 236.952186 
L 201.648199 239.672375 
L 203.272283 255.20047 
L 203.5971 256.779485 
L 203.921917 257.588217 
L 204.246734 257.880023 
L 204.571551 257.730006 
L 205.058777 257.069456 
L 205.546002 256.374547 
L 205.870819 255.86022 
L 206.682861 255.070889 
L 208.469355 254.306317 
L 208.794172 254.33888 
L 208.95658 254.371287 
L 209.118989 254.256414 
L 209.281397 254.33478 
L 209.443806 254.276493 
L 209.931031 254.454538 
L 210.418256 254.512359 
L 210.743073 254.593931 
L 211.392707 254.566667 
L 211.879933 254.430115 
L 214.153651 253.7352 
L 214.31606 253.816195 
L 214.640877 253.799616 
L 215.452919 254.138719 
L 215.777736 254.333722 
L 216.102553 254.37924 
L 216.42737 254.510167 
L 217.726638 254.496421 
L 218.53868 254.288534 
L 218.863497 254.289538 
L 219.188314 254.260018 
L 220.000357 254.382782 
L 221.462033 255.366182 
L 222.111667 256.324072 
L 223.573343 258.870185 
L 223.89816 258.78959 
L 224.222977 258.155526 
L 224.547794 256.705973 
L 225.035019 252.914836 
L 225.684653 244.87984 
L 226.659104 232.178108 
L 226.983921 230.145469 
L 227.14633 229.93595 
L 227.308738 230.364373 
L 227.633555 233.071483 
L 227.958372 238.657987 
L 228.445597 251.537025 
L 229.744865 289.538132 
L 230.232091 295.488 
L 230.881724 286.331803 
L 231.531358 267.461821 
L 232.343401 242.438154 
L 232.830626 233.076445 
L 233.155443 230.364713 
L 233.317852 229.942014 
L 233.48026 230.141173 
L 233.805077 232.180031 
L 234.292303 237.887559 
L 235.429162 252.92593 
L 235.916387 256.710473 
L 236.241204 258.152242 
L 236.566021 258.782949 
L 236.890838 258.856203 
L 237.378064 258.164135 
L 239.164557 255.164663 
L 239.326965 255.093586 
L 239.651782 254.790439 
L 240.139008 254.528502 
L 241.438276 254.234605 
L 242.087909 254.335487 
L 242.575135 254.432604 
L 242.737543 254.500903 
L 242.899952 254.435883 
L 243.224769 254.521008 
L 243.387177 254.50979 
L 243.549586 254.618074 
L 244.036811 254.518562 
L 245.011262 254.144061 
L 245.660896 253.834429 
L 246.797755 253.807118 
L 249.558699 254.583431 
L 250.045925 254.507758 
L 251.507601 254.372817 
L 252.319643 254.356586 
L 253.78132 255.076397 
L 254.755771 256.030807 
L 255.242996 256.864425 
L 256.055038 257.861486 
L 256.217447 257.875243 
L 256.542264 257.598572 
L 256.867081 256.790268 
L 257.191898 255.199038 
L 257.516715 253.074587 
L 258.166349 246.828228 
L 259.140799 236.953085 
L 259.465616 235.180311 
L 259.628025 235.091019 
L 259.790433 235.343609 
L 260.11525 237.481026 
L 260.440067 241.816449 
L 260.927293 251.863482 
L 262.226561 282.05507 
L 262.551378 285.259584 
L 262.713786 285.735615 
L 262.876194 285.286301 
L 263.038603 284.221353 
L 263.36342 279.849073 
L 263.850645 269.194562 
L 264.987505 242.108378 
L 265.312322 237.533486 
L 265.637139 235.233087 
L 265.799547 234.809318 
L 265.961956 235.032406 
L 266.286772 236.479973 
L 266.773998 241.064859 
L 268.073266 254.382961 
L 268.560491 256.849418 
L 268.885308 257.738305 
L 269.210125 258.043151 
L 269.372534 258.000723 
L 270.184576 256.905846 
L 270.996618 255.651105 
L 271.808661 254.894939 
L 272.620703 254.570126 
L 274.407196 254.31623 
L 275.219239 254.422873 
L 275.381647 254.28825 
L 275.868873 254.477845 
L 276.356098 254.337518 
L 276.843323 254.17545 
L 278.142591 253.903334 
L 279.117042 253.971965 
L 281.715578 254.665923 
L 282.040395 254.536044 
L 282.202803 254.641161 
L 282.690029 254.47719 
L 282.852437 254.517498 
L 283.339663 254.348121 
L 284.801339 254.166344 
L 286.100607 254.623696 
L 286.587832 254.909545 
L 287.399874 255.783047 
L 288.211917 256.762486 
L 288.699142 256.996105 
L 289.023959 256.849657 
L 289.511185 255.736256 
L 289.99841 253.52142 
L 290.648044 248.937928 
L 291.460086 242.28038 
L 291.784903 240.523489 
L 291.947312 239.975496 
L 292.10972 239.861178 
L 292.272129 240.034119 
L 292.596946 241.591968 
L 292.921763 244.766275 
L 293.408988 252.371557 
L 294.708256 275.155527 
L 295.033073 277.522124 
L 295.195481 277.823571 
L 295.35789 277.623713 
L 295.520298 276.884806 
L 295.845115 273.59796 
L 296.332341 265.477253 
L 297.4692 245.128431 
L 297.956425 240.595821 
L 298.281242 239.669884 
L 298.443651 239.803827 
L 298.606059 240.195471 
L 298.930876 241.922743 
L 299.418102 245.638143 
L 300.230144 252.479809 
L 300.71737 255.260057 
L 301.204595 256.816664 
L 301.529412 257.17484 
L 301.854229 257.160766 
L 302.666271 256.184401 
L 303.315905 255.270673 
L 304.127948 254.779136 
L 304.452765 254.673427 
L 304.615173 254.682258 
L 304.93999 254.559709 
L 305.914441 254.38658 
L 306.239258 254.281126 
L 309.000202 254.459489 
L 309.325019 254.309338 
L 309.812244 254.160759 
L 310.137061 254.021418 
L 310.624287 253.931536 
L 311.598738 253.839029 
L 311.761146 253.946347 
L 311.923555 253.9112 
L 312.248371 254.001175 
L 313.222822 254.397016 
L 314.684499 254.641054 
L 314.846907 254.548364 
L 315.009316 254.591291 
L 315.496541 254.378964 
L 315.821358 254.323666 
L 316.958217 254.215998 
L 317.77026 254.399471 
L 318.744711 254.751195 
L 320.856021 255.978809 
L 321.505655 255.665594 
L 321.99288 254.934886 
L 322.480106 253.455291 
L 323.129739 250.533296 
L 324.10419 245.852764 
L 324.429007 245.012791 
L 324.591416 244.898683 
L 324.753824 245.036535 
L 325.078641 245.983737 
L 325.403458 248.05798 
L 325.890684 252.87596 
L 327.189951 267.853851 
L 327.514768 269.395054 
L 327.677177 269.747891 
L 327.839585 269.57282 
L 328.001994 269.093298 
L 328.326811 266.983841 
L 328.814036 261.867919 
L 329.950895 248.579303 
L 330.438121 245.610315 
L 330.762938 244.817709 
L 330.925346 244.827839 
L 331.250163 245.473439 
L 331.737389 247.628727 
L 333.199065 254.745407 
L 333.68629 255.847966 
L 334.173516 256.239606 
L 334.985558 255.814434 
L 335.635192 255.209415 
L 336.122418 254.845211 
L 336.93446 254.494573 
L 339.532996 254.259737 
L 340.669855 254.488497 
L 341.319489 254.462332 
L 341.644306 254.413292 
L 341.806714 254.284811 
L 341.969123 254.309148 
L 342.456348 254.067724 
L 343.268391 253.824418 
L 344.730067 254.048794 
L 345.054884 254.194435 
L 345.379701 254.338711 
L 345.542109 254.471748 
L 345.866926 254.552852 
L 346.354152 254.70454 
L 347.003786 254.752429 
L 348.140645 254.37701 
L 348.303053 254.16511 
L 350.414364 254.22733 
L 350.73918 254.32258 
L 351.226406 254.408096 
L 351.551223 254.574949 
L 352.688082 254.946746 
L 353.175308 255.09272 
L 353.98735 254.962164 
L 354.636984 254.427534 
L 355.449026 252.957774 
L 356.261069 250.934964 
L 356.748294 250.000427 
L 357.073111 249.742714 
L 357.23552 249.732086 
L 357.397928 249.839489 
L 357.722745 250.492363 
L 358.20997 252.502908 
L 358.859604 256.38744 
L 359.671647 260.803746 
L 359.996464 261.699997 
L 360.158872 261.881888 
L 360.483689 261.714067 
L 360.808506 260.72576 
L 361.295732 258.280799 
L 362.594999 250.915047 
L 363.082225 249.6566 
L 363.244633 249.498659 
L 363.56945 249.593727 
L 364.219084 250.830103 
L 365.031126 253.194129 
L 365.68076 254.575615 
L 366.005577 254.983581 
L 366.655211 255.375138 
L 366.980028 255.346179 
L 368.279296 254.76978 
L 369.253747 254.340271 
L 370.553015 254.170407 
L 370.877832 254.139932 
L 371.689874 254.136494 
L 371.852283 254.096652 
L 372.177099 254.202323 
L 372.501916 254.24879 
L 372.826733 254.382766 
L 373.313959 254.41945 
L 373.476367 254.461942 
L 373.801184 254.370793 
L 373.963593 254.411333 
L 374.126001 254.286851 
L 374.450818 254.271117 
L 375.100452 254.135001 
L 375.587677 254.079711 
L 377.536579 254.268674 
L 378.51103 254.404742 
L 378.998255 254.37679 
L 379.647889 254.416766 
L 379.972706 254.375081 
L 380.459932 254.359234 
L 380.947157 254.25299 
L 381.271974 254.261439 
L 381.596791 254.203163 
L 381.921608 254.259612 
L 382.246425 254.190263 
L 382.571242 254.268273 
L 384.032918 254.303 
L 384.520144 254.275616 
L 384.844961 254.266974 
L 385.819412 254.157859 
L 386.631454 254.015223 
L 387.118679 254.094689 
L 387.443496 254.126829 
L 387.768313 254.277783 
L 389.067581 254.695315 
L 389.554806 254.683211 
L 390.042032 254.508654 
L 390.366849 254.36845 
L 391.990934 253.819557 
L 392.315751 253.832387 
L 392.802976 253.865257 
L 393.290201 254.114327 
L 394.914286 254.661211 
L 395.56392 254.464757 
L 395.726329 254.501656 
L 396.213554 254.305769 
L 396.375963 254.306523 
L 396.538371 254.184214 
L 397.025596 254.159517 
L 397.188005 254.116747 
L 397.350413 254.198783 
L 397.67523 254.17833 
L 398.487273 254.371793 
L 398.487273 254.371793 
" clip-path="url(#p6f287746e4)" style="fill: none; stroke: #ff0000; stroke-width: 1.5; stroke-linecap: square"/>
   </g>
   <g id="line2d_19">
    <path d="M 73.832727 174.429925 
L 75.456812 174.742955 
L 75.781629 174.68172 
L 77.568122 174.269385 
L 78.217756 174.431145 
L 79.192207 174.830538 
L 79.679432 174.886713 
L 80.166658 174.961218 
L 80.491475 174.913566 
L 81.141109 174.61225 
L 81.628334 174.418767 
L 82.11556 174.213466 
L 83.09001 174.135386 
L 84.389278 174.543995 
L 84.714095 174.707878 
L 85.201321 174.714913 
L 85.363729 174.778474 
L 85.850955 174.703614 
L 87.312631 174.485813 
L 87.799856 174.526578 
L 88.936716 174.469593 
L 89.423941 174.530556 
L 90.235983 174.541427 
L 90.5608 174.583755 
L 91.210434 174.517253 
L 92.834519 174.384341 
L 93.321745 174.408894 
L 94.458604 174.51775 
L 96.732323 174.710216 
L 97.706773 174.450412 
L 97.869182 174.518336 
L 98.03159 174.3765 
L 98.356407 174.436895 
L 98.518816 174.333131 
L 100.305309 174.666178 
L 101.604577 174.611825 
L 101.929394 174.56171 
L 102.741436 174.465897 
L 103.066253 174.359614 
L 104.852746 173.448663 
L 105.339972 173.337784 
L 106.152014 173.871575 
L 106.801648 175.1511 
L 108.425733 179.404097 
L 108.75055 179.515422 
L 109.075367 179.057377 
L 109.562592 177.414293 
L 110.212226 173.620401 
L 111.024268 168.649713 
L 111.511494 166.974493 
L 111.836311 166.81884 
L 111.998719 166.993631 
L 112.323536 167.90742 
L 112.810762 170.410788 
L 114.11003 177.724084 
L 114.434847 178.659684 
L 114.759663 179.061278 
L 115.08448 179.011897 
L 115.571706 178.228418 
L 117.358199 174.371016 
L 117.683016 173.991399 
L 118.007833 173.848227 
L 118.170241 173.698129 
L 119.144692 173.768108 
L 119.956735 174.052808 
L 122.55527 174.768092 
L 123.69213 174.63364 
L 123.854538 174.417658 
L 124.179355 174.362403 
L 124.504172 174.132022 
L 125.965848 174.16014 
L 126.940299 174.601026 
L 128.401976 175.010636 
L 128.889201 174.916657 
L 129.538835 174.716683 
L 131.16292 174.343832 
L 131.650145 174.338275 
L 131.974962 174.437249 
L 132.462187 174.535656 
L 133.111821 174.556065 
L 133.599047 174.479315 
L 133.923864 174.468723 
L 134.573498 174.347169 
L 135.38554 174.233157 
L 136.197582 173.72302 
L 137.49685 172.548637 
L 138.146484 172.70254 
L 138.471301 173.12073 
L 139.120935 175.216122 
L 139.932977 179.484583 
L 140.582611 182.860758 
L 140.907428 183.880096 
L 141.069837 184.139984 
L 141.232245 184.127471 
L 141.394654 183.891406 
L 141.719471 182.671438 
L 142.206696 178.767344 
L 142.85633 171.008928 
L 143.668372 161.739499 
L 143.993189 159.63364 
L 144.318006 158.982217 
L 144.480415 159.323897 
L 144.805232 160.892376 
L 145.292457 165.739693 
L 146.591725 180.730729 
L 146.916542 182.802791 
L 147.241359 183.763728 
L 147.403767 183.915661 
L 147.566176 183.782451 
L 147.890993 182.945747 
L 148.540627 179.958797 
L 149.515078 175.337187 
L 150.002303 173.878603 
L 150.489528 173.12882 
L 150.814345 172.91446 
L 151.139162 172.83234 
L 152.600839 173.709286 
L 153.088064 173.954135 
L 153.737698 174.238039 
L 154.062515 174.368932 
L 155.361783 174.607419 
L 155.849008 174.520869 
L 156.823459 174.319847 
L 157.148276 174.234062 
L 157.473093 174.159411 
L 157.79791 174.155717 
L 157.960318 174.125026 
L 158.285135 174.253137 
L 158.934769 174.454189 
L 159.746812 174.790606 
L 160.234037 174.865877 
L 160.396445 174.963521 
L 160.558854 174.897427 
L 160.721262 174.966362 
L 161.046079 174.932308 
L 163.482207 174.397828 
L 164.943883 174.552487 
L 165.106291 174.488067 
L 165.2687 174.585238 
L 166.405559 174.373002 
L 166.730376 174.318892 
L 167.38001 174.105518 
L 167.704827 174.107576 
L 168.679278 173.488863 
L 169.166503 172.811772 
L 169.978546 171.72752 
L 170.303363 171.520535 
L 170.62818 171.631384 
L 170.952996 172.318921 
L 171.277813 173.498696 
L 171.60263 175.272676 
L 172.089856 178.924457 
L 173.226715 188.030491 
L 173.551532 189.148455 
L 173.713941 189.282881 
L 173.876349 189.042454 
L 174.201166 187.16784 
L 174.525983 183.746677 
L 175.175617 172.78103 
L 176.150068 155.138927 
L 176.474885 151.846387 
L 176.637293 151.099424 
L 176.799702 150.895204 
L 176.96211 151.207283 
L 177.286927 153.593787 
L 177.774153 160.80703 
L 179.235829 185.791311 
L 179.560646 188.138573 
L 179.723054 188.760876 
L 179.885463 188.939474 
L 180.047871 188.813 
L 180.372688 187.533192 
L 180.859914 184.009 
L 181.996773 175.277074 
L 182.483998 173.053513 
L 182.808815 172.258175 
L 183.133632 171.873987 
L 183.296041 171.799858 
L 183.783266 172.03478 
L 184.4329 172.807614 
L 185.407351 173.900408 
L 186.219393 174.347872 
L 187.193844 174.653379 
L 188.168295 174.586387 
L 188.65552 174.455298 
L 189.142746 174.278414 
L 189.305154 174.322051 
L 189.467563 174.219387 
L 189.629971 174.254779 
L 189.79238 174.157567 
L 189.954788 174.268728 
L 190.442014 174.176895 
L 190.766831 174.238336 
L 190.929239 174.180037 
L 191.741282 174.544917 
L 192.066099 174.596524 
L 192.390915 174.738078 
L 192.715732 174.774611 
L 193.527775 174.923757 
L 196.288719 174.418205 
L 197.750395 174.494849 
L 198.724846 174.402885 
L 199.049663 174.292929 
L 200.186522 173.897473 
L 201.323382 172.638467 
L 201.648199 172.172403 
L 202.460241 170.992151 
L 202.785058 170.746731 
L 202.947466 170.816254 
L 203.272283 171.392182 
L 203.759509 173.387892 
L 204.246734 177.10438 
L 205.058777 185.922169 
L 205.708411 192.312512 
L 206.033228 193.752963 
L 206.195636 193.989054 
L 206.358044 193.571869 
L 206.682861 191.26767 
L 207.007678 186.692908 
L 207.494904 176.445678 
L 208.631763 148.951825 
L 208.95658 144.561935 
L 209.281397 143.063258 
L 209.443806 143.528747 
L 209.768622 146.737818 
L 210.255848 156.142161 
L 211.717524 189.402868 
L 212.042341 192.567606 
L 212.20475 193.451239 
L 212.367158 193.697952 
L 212.529567 193.61221 
L 212.854384 191.843113 
L 213.179201 189.127257 
L 214.803285 173.591168 
L 215.128102 172.012421 
L 215.615328 171.021818 
L 215.940145 170.930899 
L 216.42737 171.415573 
L 217.239412 172.76365 
L 218.53868 173.938807 
L 220.162765 174.52335 
L 220.487582 174.424426 
L 220.64999 174.537772 
L 221.137216 174.448015 
L 221.624441 174.347863 
L 222.436484 174.217175 
L 222.923709 174.229997 
L 223.410935 174.366362 
L 224.872611 174.964615 
L 225.197428 175.003822 
L 226.171879 174.988313 
L 226.496696 174.837556 
L 227.958372 174.292197 
L 228.932823 174.294951 
L 229.095231 174.36789 
L 229.25764 174.294826 
L 229.907274 174.456933 
L 230.232091 174.488043 
L 231.044133 174.54491 
L 232.180992 174.128984 
L 233.155443 173.234257 
L 233.642669 172.473587 
L 235.104345 169.940473 
L 235.429162 170.01526 
L 235.753979 170.646213 
L 236.078796 172.088157 
L 236.566021 175.872971 
L 237.215655 183.930556 
L 238.190106 196.617802 
L 238.514923 198.655553 
L 238.677331 198.857505 
L 238.83974 198.435329 
L 239.164557 195.721042 
L 239.489374 190.133812 
L 239.976599 177.258823 
L 241.275867 139.247521 
L 241.763092 133.308061 
L 242.412726 142.469419 
L 243.06236 161.325683 
L 243.874403 186.363121 
L 244.361628 195.722583 
L 244.686445 198.433344 
L 244.848854 198.871181 
L 245.011262 198.653911 
L 245.336079 196.626291 
L 245.823304 190.898148 
L 246.960164 175.874511 
L 247.447389 172.092644 
L 247.772206 170.652503 
L 248.097023 170.012165 
L 248.42184 169.951228 
L 248.909065 170.626648 
L 250.695559 173.625008 
L 250.857967 173.705863 
L 251.182784 174.013878 
L 251.67001 174.258957 
L 252.969277 174.565214 
L 253.618911 174.451799 
L 254.593362 174.291646 
L 255.242996 174.250115 
L 256.379855 174.521891 
L 256.704672 174.75312 
L 257.029489 174.841661 
L 257.354306 174.98964 
L 258.166349 175.017665 
L 259.140799 174.766699 
L 259.465616 174.641584 
L 259.790433 174.486402 
L 260.927293 174.21781 
L 262.064152 174.341609 
L 262.388969 174.448729 
L 262.551378 174.519319 
L 262.713786 174.455591 
L 262.876194 174.550704 
L 263.038603 174.424363 
L 263.688237 174.445443 
L 264.013054 174.383066 
L 265.637139 173.460952 
L 266.936406 171.72293 
L 267.261223 171.250207 
L 267.58604 170.925857 
L 267.910857 171.025211 
L 268.073266 171.202858 
L 268.398083 171.995969 
L 268.885308 174.51054 
L 269.372534 178.627669 
L 270.83421 192.917339 
L 270.996618 193.607522 
L 271.159027 193.70776 
L 271.321435 193.450338 
L 271.646252 191.32602 
L 271.971069 186.983123 
L 272.458295 176.939079 
L 273.757562 146.737101 
L 274.082379 143.527965 
L 274.244788 143.065389 
L 274.407196 143.500493 
L 274.569605 144.567596 
L 274.894422 148.954889 
L 275.381647 159.600457 
L 276.518507 186.695903 
L 277.005732 192.694976 
L 277.330549 193.987061 
L 277.492957 193.756586 
L 277.817774 192.310724 
L 278.305 187.729438 
L 279.604268 174.416916 
L 280.091493 171.951725 
L 280.41631 171.062717 
L 280.741127 170.756603 
L 280.903535 170.783671 
L 281.877986 172.183016 
L 282.690029 173.323245 
L 283.502071 173.989083 
L 284.151705 174.225628 
L 285.77579 174.493039 
L 287.8871 174.459485 
L 288.211917 174.503102 
L 288.536734 174.667 
L 288.699142 174.629194 
L 289.186368 174.827753 
L 289.511185 174.854667 
L 290.160819 174.957927 
L 290.323227 174.841859 
L 290.485636 174.897938 
L 290.972861 174.710093 
L 291.297678 174.700095 
L 291.622495 174.554365 
L 292.272129 174.347561 
L 292.596946 174.191833 
L 292.921763 174.241835 
L 293.24658 174.137873 
L 293.571397 174.258049 
L 293.733805 174.162716 
L 294.221031 174.312803 
L 294.545847 174.371293 
L 295.033073 174.478801 
L 295.35789 174.585807 
L 296.169932 174.653639 
L 296.819566 174.511483 
L 298.443651 173.57869 
L 299.905327 171.940056 
L 300.230144 171.817209 
L 300.554961 171.986869 
L 301.042187 173.110174 
L 301.529412 175.353147 
L 302.179046 179.917539 
L 303.153497 187.514902 
L 303.478314 188.761014 
L 303.640722 188.871331 
L 303.803131 188.70978 
L 304.127948 187.126317 
L 304.452765 183.969522 
L 304.93999 176.393081 
L 306.239258 153.62103 
L 306.564075 151.23733 
L 306.726483 150.922617 
L 306.888892 151.119878 
L 307.0513 151.861892 
L 307.376117 155.138268 
L 307.863343 163.264161 
L 309.000202 183.741911 
L 309.487427 188.33546 
L 309.812244 189.277192 
L 309.974653 189.145411 
L 310.137061 188.751519 
L 310.461878 187.009882 
L 310.949104 183.256634 
L 311.761146 176.329959 
L 312.248371 173.490826 
L 312.735597 171.908654 
L 313.060414 171.556704 
L 313.385231 171.563736 
L 314.034865 172.284937 
L 314.846907 173.491782 
L 316.470992 174.243727 
L 316.795809 174.309192 
L 317.283034 174.376995 
L 318.257485 174.588167 
L 318.419894 174.494712 
L 318.744711 174.547929 
L 319.069527 174.476403 
L 319.556753 174.446908 
L 320.043978 174.395795 
L 320.368795 174.379796 
L 320.531204 174.336877 
L 320.856021 174.495431 
L 321.180838 174.605517 
L 323.129739 174.962374 
L 323.292148 174.858192 
L 323.454556 174.888855 
L 324.10419 174.631175 
L 324.266599 174.656319 
L 324.753824 174.393263 
L 325.403458 174.22679 
L 325.728275 174.163774 
L 327.35236 174.457317 
L 328.164402 174.607428 
L 328.814036 174.511293 
L 329.46367 174.34768 
L 330.113304 174.095676 
L 331.250163 173.518332 
L 332.387023 172.821477 
L 333.036657 173.161446 
L 333.523882 173.925578 
L 334.011107 175.398407 
L 334.660741 178.303625 
L 335.472784 182.284815 
L 335.797601 183.418707 
L 336.122418 183.854878 
L 336.284826 183.69881 
L 336.609643 182.742082 
L 336.93446 180.682348 
L 337.421685 175.884217 
L 338.720953 160.918004 
L 339.04577 159.358498 
L 339.208179 159.017048 
L 339.370587 159.17794 
L 339.532996 159.64954 
L 339.857813 161.758555 
L 340.345038 166.893823 
L 341.481897 180.303057 
L 341.969123 183.328494 
L 342.29394 184.133185 
L 342.456348 184.126679 
L 342.781165 183.472078 
L 343.268391 181.297051 
L 344.730067 174.021372 
L 345.217292 172.900001 
L 345.542109 172.562773 
L 345.704518 172.484108 
L 346.678969 173.130431 
L 347.328602 173.723558 
L 348.140645 174.231074 
L 351.388814 174.491092 
L 352.200857 174.30922 
L 352.688082 174.313041 
L 353.175308 174.390017 
L 353.662533 174.614141 
L 355.286618 175.007615 
L 356.748294 174.574675 
L 357.23552 174.339258 
L 357.722745 174.08333 
L 358.047562 174.053252 
L 358.534787 174.049314 
L 359.671647 174.431144 
L 359.834055 174.629296 
L 360.808506 174.745742 
L 361.295732 174.736357 
L 362.107774 174.500389 
L 363.244633 174.16744 
L 363.731859 173.992476 
L 365.031126 173.697783 
L 365.518352 173.8832 
L 366.167986 174.422335 
L 367.304845 176.667505 
L 368.116888 178.451359 
L 368.441704 178.966586 
L 368.766521 179.000249 
L 368.92893 178.89348 
L 369.253747 178.234854 
L 369.740972 176.249115 
L 370.390606 172.393665 
L 371.202649 167.966495 
L 371.527466 167.054017 
L 371.689874 166.881146 
L 372.014691 167.033093 
L 372.339508 168.023519 
L 372.664325 169.527929 
L 374.28841 178.528606 
L 374.613227 179.275601 
L 374.775635 179.456359 
L 375.100452 179.363442 
L 375.587677 178.481834 
L 376.237311 176.674814 
L 376.886945 174.880342 
L 377.374171 173.909137 
L 378.023805 173.430297 
L 378.348622 173.334088 
L 378.998255 173.622382 
L 380.459932 174.3361 
L 381.109566 174.432916 
L 381.434383 174.568504 
L 381.921608 174.605233 
L 382.896059 174.669188 
L 383.87051 174.624926 
L 384.357735 174.425969 
L 385.98182 174.517014 
L 386.306637 174.633318 
L 388.742764 174.58152 
L 389.554806 174.465106 
L 390.854074 174.369009 
L 392.153342 174.492142 
L 393.127793 174.589165 
L 393.45261 174.533487 
L 393.777427 174.600206 
L 394.102244 174.527873 
L 395.888737 174.478561 
L 398.487273 174.778098 
L 398.487273 174.778098 
" clip-path="url(#p6f287746e4)" style="fill: none; stroke: #0000ff; stroke-width: 1.5; stroke-linecap: square"/>
   </g>
   <g id="line2d_20">
    <path d="M 73.832727 174.6205 
L 75.456812 174.307471 
L 75.781629 174.368705 
L 77.568122 174.78104 
L 78.217756 174.61928 
L 79.192207 174.219887 
L 79.679432 174.163712 
L 80.166658 174.089207 
L 80.491475 174.13686 
L 81.141109 174.438175 
L 81.628334 174.631659 
L 82.11556 174.836959 
L 83.09001 174.91504 
L 84.389278 174.506431 
L 84.714095 174.342548 
L 85.201321 174.335513 
L 85.363729 174.271951 
L 85.850955 174.346811 
L 87.312631 174.564613 
L 87.799856 174.523847 
L 88.936716 174.580833 
L 89.423941 174.51987 
L 90.235983 174.508998 
L 90.5608 174.466671 
L 91.210434 174.533172 
L 92.834519 174.666085 
L 93.321745 174.641531 
L 94.458604 174.532676 
L 96.732323 174.340209 
L 97.706773 174.600014 
L 97.869182 174.532089 
L 98.03159 174.673926 
L 98.356407 174.613531 
L 98.518816 174.717295 
L 100.305309 174.384247 
L 101.604577 174.438601 
L 101.929394 174.488716 
L 102.741436 174.584529 
L 103.066253 174.690812 
L 104.852746 175.601763 
L 105.339972 175.712641 
L 106.152014 175.178851 
L 106.801648 173.899326 
L 108.425733 169.646329 
L 108.75055 169.535003 
L 109.075367 169.993048 
L 109.562592 171.636132 
L 110.212226 175.430024 
L 111.024268 180.400713 
L 111.511494 182.075932 
L 111.836311 182.231585 
L 111.998719 182.056795 
L 112.323536 181.143005 
L 112.810762 178.639638 
L 114.11003 171.326341 
L 114.434847 170.390742 
L 114.759663 169.989147 
L 115.08448 170.038528 
L 115.571706 170.822008 
L 117.358199 174.67941 
L 117.683016 175.059027 
L 118.007833 175.202198 
L 118.170241 175.352296 
L 119.144692 175.282318 
L 119.956735 174.997618 
L 122.55527 174.282333 
L 123.69213 174.416785 
L 123.854538 174.632767 
L 124.179355 174.688023 
L 124.504172 174.918404 
L 125.965848 174.890285 
L 126.940299 174.449399 
L 128.401976 174.039789 
L 128.889201 174.133768 
L 129.538835 174.333742 
L 131.16292 174.706594 
L 131.650145 174.712151 
L 131.974962 174.613177 
L 132.462187 174.514769 
L 133.111821 174.494361 
L 133.599047 174.57111 
L 133.923864 174.581703 
L 134.573498 174.703256 
L 135.38554 174.817269 
L 136.197582 175.327406 
L 137.49685 176.501789 
L 138.146484 176.347885 
L 138.471301 175.929695 
L 139.120935 173.834303 
L 139.932977 169.565843 
L 140.582611 166.189667 
L 140.907428 165.170329 
L 141.069837 164.910441 
L 141.232245 164.922954 
L 141.394654 165.159019 
L 141.719471 166.378987 
L 142.206696 170.283082 
L 142.85633 178.041498 
L 143.668372 187.310927 
L 143.993189 189.416786 
L 144.318006 190.068209 
L 144.480415 189.726529 
L 144.805232 188.158049 
L 145.292457 183.310732 
L 146.591725 168.319696 
L 146.916542 166.247635 
L 147.241359 165.286698 
L 147.403767 165.134765 
L 147.566176 165.267975 
L 147.890993 166.104679 
L 148.540627 169.091629 
L 149.515078 173.713239 
L 150.002303 175.171822 
L 150.489528 175.921606 
L 150.814345 176.135966 
L 151.139162 176.218086 
L 152.600839 175.34114 
L 153.088064 175.09629 
L 153.737698 174.812386 
L 154.062515 174.681494 
L 155.361783 174.443006 
L 155.849008 174.529557 
L 156.823459 174.730579 
L 157.148276 174.816364 
L 157.473093 174.891015 
L 157.79791 174.894708 
L 157.960318 174.9254 
L 158.285135 174.797288 
L 158.934769 174.596236 
L 159.746812 174.25982 
L 160.234037 174.184549 
L 160.396445 174.086905 
L 160.558854 174.152999 
L 160.721262 174.084063 
L 161.046079 174.118118 
L 163.482207 174.652598 
L 164.943883 174.497939 
L 165.106291 174.562359 
L 165.2687 174.465188 
L 166.405559 174.677423 
L 166.730376 174.731534 
L 167.38001 174.944908 
L 167.704827 174.94285 
L 168.679278 175.561563 
L 169.166503 176.238654 
L 169.978546 177.322906 
L 170.303363 177.529891 
L 170.62818 177.419041 
L 170.952996 176.731505 
L 171.277813 175.551729 
L 171.60263 173.777749 
L 172.089856 170.125968 
L 173.226715 161.019934 
L 173.551532 159.901971 
L 173.713941 159.767545 
L 173.876349 160.007972 
L 174.201166 161.882585 
L 174.525983 165.303748 
L 175.175617 176.269396 
L 176.150068 193.911499 
L 176.474885 197.204038 
L 176.637293 197.951002 
L 176.799702 198.155221 
L 176.96211 197.843142 
L 177.286927 195.456639 
L 177.774153 188.243396 
L 179.235829 163.259115 
L 179.560646 160.911852 
L 179.723054 160.28955 
L 179.885463 160.110952 
L 180.047871 160.237425 
L 180.372688 161.517234 
L 180.859914 165.041426 
L 181.996773 173.773352 
L 182.483998 175.996913 
L 182.808815 176.792251 
L 183.133632 177.176439 
L 183.296041 177.250567 
L 183.783266 177.015646 
L 184.4329 176.242812 
L 185.407351 175.150018 
L 186.219393 174.702553 
L 187.193844 174.397047 
L 188.168295 174.464039 
L 188.65552 174.595128 
L 189.142746 174.772012 
L 189.305154 174.728375 
L 189.467563 174.831038 
L 189.629971 174.795647 
L 189.79238 174.892859 
L 189.954788 174.781698 
L 190.442014 174.873531 
L 190.766831 174.81209 
L 190.929239 174.870389 
L 191.741282 174.505509 
L 192.066099 174.453902 
L 192.390915 174.312347 
L 192.715732 174.275815 
L 193.527775 174.126668 
L 196.288719 174.632221 
L 197.750395 174.555577 
L 198.724846 174.647541 
L 199.049663 174.757496 
L 200.186522 175.152953 
L 201.323382 176.411958 
L 201.648199 176.878022 
L 202.460241 178.058275 
L 202.785058 178.303694 
L 202.947466 178.234171 
L 203.272283 177.658243 
L 203.759509 175.662533 
L 204.246734 171.946046 
L 205.058777 163.128256 
L 205.708411 156.737914 
L 206.033228 155.297462 
L 206.195636 155.061371 
L 206.358044 155.478557 
L 206.682861 157.782755 
L 207.007678 162.357517 
L 207.494904 172.604747 
L 208.631763 200.098601 
L 208.95658 204.488491 
L 209.281397 205.987168 
L 209.443806 205.521679 
L 209.768622 202.312608 
L 210.255848 192.908264 
L 211.717524 159.647557 
L 212.042341 156.48282 
L 212.20475 155.599186 
L 212.367158 155.352474 
L 212.529567 155.438216 
L 212.854384 157.207312 
L 213.179201 159.923169 
L 214.803285 175.459258 
L 215.128102 177.038004 
L 215.615328 178.028607 
L 215.940145 178.119527 
L 216.42737 177.634852 
L 217.239412 176.286775 
L 218.53868 175.111619 
L 220.162765 174.527075 
L 220.487582 174.625999 
L 220.64999 174.512653 
L 221.137216 174.60241 
L 221.624441 174.702562 
L 222.436484 174.833251 
L 222.923709 174.820428 
L 223.410935 174.684064 
L 224.872611 174.085811 
L 225.197428 174.046604 
L 226.171879 174.062113 
L 226.496696 174.21287 
L 227.958372 174.758229 
L 228.932823 174.755475 
L 229.095231 174.682536 
L 229.25764 174.7556 
L 229.907274 174.593493 
L 230.232091 174.562382 
L 231.044133 174.505515 
L 232.180992 174.921442 
L 233.155443 175.816169 
L 233.642669 176.576839 
L 235.104345 179.109952 
L 235.429162 179.035165 
L 235.753979 178.404213 
L 236.078796 176.962268 
L 236.566021 173.177455 
L 237.215655 165.11987 
L 238.190106 152.432624 
L 238.514923 150.394873 
L 238.677331 150.192921 
L 238.83974 150.615097 
L 239.164557 153.329383 
L 239.489374 158.916614 
L 239.976599 171.791602 
L 241.275867 209.802904 
L 241.763092 215.742365 
L 242.412726 206.581007 
L 243.06236 187.724742 
L 243.874403 162.687304 
L 244.361628 153.327842 
L 244.686445 150.617082 
L 244.848854 150.179244 
L 245.011262 150.396514 
L 245.336079 152.424135 
L 245.823304 158.152277 
L 246.960164 173.175914 
L 247.447389 176.957782 
L 247.772206 178.397923 
L 248.097023 179.038261 
L 248.42184 179.099197 
L 248.909065 178.423778 
L 250.695559 175.425417 
L 250.857967 175.344563 
L 251.182784 175.036548 
L 251.67001 174.791469 
L 252.969277 174.485211 
L 253.618911 174.598627 
L 254.593362 174.75878 
L 255.242996 174.800311 
L 256.379855 174.528534 
L 256.704672 174.297306 
L 257.029489 174.208765 
L 257.354306 174.060785 
L 258.166349 174.03276 
L 259.140799 174.283727 
L 259.465616 174.408842 
L 259.790433 174.564023 
L 260.927293 174.832616 
L 262.064152 174.708817 
L 262.388969 174.601697 
L 262.551378 174.531106 
L 262.713786 174.594834 
L 262.876194 174.499722 
L 263.038603 174.626063 
L 263.688237 174.604982 
L 264.013054 174.667359 
L 265.637139 175.589473 
L 266.936406 177.327495 
L 267.261223 177.800218 
L 267.58604 178.124568 
L 267.910857 178.025214 
L 268.073266 177.847568 
L 268.398083 177.054457 
L 268.885308 174.539886 
L 269.372534 170.422757 
L 270.83421 156.133087 
L 270.996618 155.442904 
L 271.159027 155.342665 
L 271.321435 155.600087 
L 271.646252 157.724405 
L 271.971069 162.067303 
L 272.458295 172.111347 
L 273.757562 202.313324 
L 274.082379 205.522461 
L 274.244788 205.985037 
L 274.407196 205.549932 
L 274.569605 204.48283 
L 274.894422 200.095537 
L 275.381647 189.449969 
L 276.518507 162.354522 
L 277.005732 156.355449 
L 277.330549 155.063364 
L 277.492957 155.29384 
L 277.817774 156.739702 
L 278.305 161.320988 
L 279.604268 174.633509 
L 280.091493 177.0987 
L 280.41631 177.987709 
L 280.741127 178.293822 
L 280.903535 178.266755 
L 281.877986 176.86741 
L 282.690029 175.72718 
L 283.502071 175.061343 
L 284.151705 174.824798 
L 285.77579 174.557386 
L 287.8871 174.59094 
L 288.211917 174.547324 
L 288.536734 174.383425 
L 288.699142 174.421231 
L 289.186368 174.222672 
L 289.511185 174.195758 
L 290.160819 174.092499 
L 290.323227 174.208566 
L 290.485636 174.152487 
L 290.972861 174.340332 
L 291.297678 174.350331 
L 291.622495 174.49606 
L 292.272129 174.702865 
L 292.596946 174.858592 
L 292.921763 174.80859 
L 293.24658 174.912552 
L 293.571397 174.792376 
L 293.733805 174.887709 
L 294.221031 174.737623 
L 294.545847 174.679133 
L 295.033073 174.571625 
L 295.35789 174.464618 
L 296.169932 174.396787 
L 296.819566 174.538943 
L 298.443651 175.471736 
L 299.905327 177.11037 
L 300.230144 177.233217 
L 300.554961 177.063557 
L 301.042187 175.940251 
L 301.529412 173.697279 
L 302.179046 169.132887 
L 303.153497 161.535523 
L 303.478314 160.289412 
L 303.640722 160.179094 
L 303.803131 160.340646 
L 304.127948 161.924109 
L 304.452765 165.080903 
L 304.93999 172.657345 
L 306.239258 195.429396 
L 306.564075 197.813095 
L 306.726483 198.127808 
L 306.888892 197.930547 
L 307.0513 197.188533 
L 307.376117 193.912157 
L 307.863343 185.786264 
L 309.000202 165.308515 
L 309.487427 160.714965 
L 309.812244 159.773234 
L 309.974653 159.905015 
L 310.137061 160.298907 
L 310.461878 162.040544 
L 310.949104 165.793791 
L 311.761146 172.720467 
L 312.248371 175.5596 
L 312.735597 177.141772 
L 313.060414 177.493721 
L 313.385231 177.486689 
L 314.034865 176.765489 
L 314.846907 175.558643 
L 316.470992 174.806699 
L 316.795809 174.741234 
L 317.283034 174.673431 
L 318.257485 174.462258 
L 318.419894 174.555714 
L 318.744711 174.502496 
L 319.069527 174.574023 
L 319.556753 174.603517 
L 320.043978 174.654631 
L 320.368795 174.67063 
L 320.531204 174.713548 
L 320.856021 174.554994 
L 321.180838 174.444909 
L 323.129739 174.088052 
L 323.292148 174.192233 
L 323.454556 174.161571 
L 324.10419 174.419251 
L 324.266599 174.394107 
L 324.753824 174.657163 
L 325.403458 174.823636 
L 325.728275 174.886651 
L 327.35236 174.593109 
L 328.164402 174.442998 
L 328.814036 174.539133 
L 329.46367 174.702745 
L 330.113304 174.954749 
L 331.250163 175.532094 
L 332.387023 176.228949 
L 333.036657 175.888979 
L 333.523882 175.124848 
L 334.011107 173.652019 
L 334.660741 170.746801 
L 335.472784 166.765611 
L 335.797601 165.631719 
L 336.122418 165.195548 
L 336.284826 165.351616 
L 336.609643 166.308344 
L 336.93446 168.368077 
L 337.421685 173.166209 
L 338.720953 188.132422 
L 339.04577 189.691927 
L 339.208179 190.033378 
L 339.370587 189.872485 
L 339.532996 189.400885 
L 339.857813 187.291871 
L 340.345038 182.156603 
L 341.481897 168.747368 
L 341.969123 165.721932 
L 342.29394 164.917241 
L 342.456348 164.923746 
L 342.781165 165.578347 
L 343.268391 167.753375 
L 344.730067 175.029054 
L 345.217292 176.150425 
L 345.542109 176.487652 
L 345.704518 176.566318 
L 346.678969 175.919995 
L 347.328602 175.326867 
L 348.140645 174.819352 
L 351.388814 174.559334 
L 352.200857 174.741206 
L 352.688082 174.737385 
L 353.175308 174.660409 
L 353.662533 174.436285 
L 355.286618 174.042811 
L 356.748294 174.475751 
L 357.23552 174.711167 
L 357.722745 174.967095 
L 358.047562 174.997173 
L 358.534787 175.001111 
L 359.671647 174.619282 
L 359.834055 174.421129 
L 360.808506 174.304684 
L 361.295732 174.314069 
L 362.107774 174.550037 
L 363.244633 174.882986 
L 363.731859 175.05795 
L 365.031126 175.352642 
L 365.518352 175.167225 
L 366.167986 174.628091 
L 367.304845 172.38292 
L 368.116888 170.599067 
L 368.441704 170.083839 
L 368.766521 170.050176 
L 368.92893 170.156946 
L 369.253747 170.815572 
L 369.740972 172.801311 
L 370.390606 176.65676 
L 371.202649 181.083931 
L 371.527466 181.996409 
L 371.689874 182.16928 
L 372.014691 182.017333 
L 372.339508 181.026907 
L 372.664325 179.522497 
L 374.28841 170.521819 
L 374.613227 169.774825 
L 374.775635 169.594066 
L 375.100452 169.686984 
L 375.587677 170.568591 
L 376.237311 172.375611 
L 376.886945 174.170083 
L 377.374171 175.141288 
L 378.023805 175.620128 
L 378.348622 175.716338 
L 378.998255 175.428044 
L 380.459932 174.714325 
L 381.109566 174.617509 
L 381.434383 174.481922 
L 381.921608 174.445193 
L 382.896059 174.381238 
L 383.87051 174.425499 
L 384.357735 174.624456 
L 385.98182 174.533411 
L 386.306637 174.417108 
L 388.742764 174.468906 
L 389.554806 174.585319 
L 390.854074 174.681417 
L 392.153342 174.558283 
L 393.127793 174.461261 
L 393.45261 174.516939 
L 393.777427 174.45022 
L 394.102244 174.522552 
L 395.888737 174.571864 
L 398.487273 174.272327 
L 398.487273 174.272327 
" clip-path="url(#p6f287746e4)" style="fill: none; stroke: #ff0000; stroke-width: 1.5; stroke-linecap: square"/>
   </g>
   <g id="line2d_21">
    <path d="M 73.832727 94.58699 
L 74.482361 94.709413 
L 75.131995 94.860362 
L 75.944037 94.959516 
L 76.431263 94.966408 
L 76.75608 94.887796 
L 78.380165 94.463089 
L 79.192207 94.664981 
L 80.166658 95.074996 
L 80.653883 95.141611 
L 81.141109 95.218011 
L 81.465926 95.168979 
L 82.11556 94.860879 
L 82.602785 94.66932 
L 83.09001 94.46828 
L 84.064461 94.390754 
L 85.363729 94.793712 
L 85.688546 94.96471 
L 86.175772 94.970465 
L 86.33818 95.029467 
L 86.825405 94.951647 
L 88.287082 94.741966 
L 88.774307 94.780486 
L 89.748758 94.722037 
L 92.347294 94.747689 
L 92.834519 94.65638 
L 93.484153 94.633659 
L 94.133787 94.63144 
L 95.270646 94.758072 
L 98.193999 94.886193 
L 99.16845 94.664284 
L 99.330858 94.688938 
L 99.493267 94.584159 
L 101.442168 94.913846 
L 103.228662 94.736872 
L 103.553479 94.675911 
L 104.040704 94.546482 
L 104.852746 94.168268 
L 105.50238 93.908773 
L 105.827197 93.756911 
L 106.314423 93.695133 
L 107.126465 94.258735 
L 107.776099 95.498567 
L 109.400184 99.601361 
L 109.725001 99.701869 
L 110.049818 99.247783 
L 110.537043 97.618015 
L 111.186677 93.844428 
L 111.998719 88.893536 
L 112.485945 87.222401 
L 112.810762 87.069661 
L 112.97317 87.244939 
L 113.297987 88.158217 
L 113.785213 90.661907 
L 115.08448 97.975925 
L 115.409297 98.91186 
L 115.734114 99.312787 
L 116.058931 99.263635 
L 116.546157 98.478588 
L 118.33265 94.622805 
L 118.657467 94.240949 
L 118.982284 94.102522 
L 119.144692 93.949938 
L 120.119143 94.017364 
L 120.931186 94.304048 
L 123.367313 95.010491 
L 124.179355 94.991377 
L 124.504172 94.890689 
L 124.666581 94.888592 
L 124.828989 94.668964 
L 125.153806 94.611835 
L 125.641031 94.375225 
L 126.453074 94.311861 
L 127.427525 94.578049 
L 127.91475 94.850165 
L 129.376426 95.264207 
L 129.863652 95.171187 
L 130.513286 94.970456 
L 131.974962 94.541313 
L 132.299779 94.566081 
L 134.735906 94.783082 
L 135.223132 94.669532 
L 136.359991 94.487468 
L 137.172033 93.973722 
L 138.308893 92.909286 
L 138.63371 92.828522 
L 138.796118 92.755115 
L 139.120935 92.956687 
L 139.445752 93.371099 
L 140.095386 95.465563 
L 140.907428 99.73419 
L 141.557062 103.113173 
L 141.881879 104.133285 
L 142.044288 104.394905 
L 142.206696 104.383039 
L 142.369105 104.14851 
L 142.693922 102.926856 
L 143.181147 99.013961 
L 143.830781 91.26085 
L 144.642823 81.990085 
L 144.96764 79.884916 
L 145.292457 79.234451 
L 145.454866 79.576061 
L 145.779683 81.146329 
L 146.266908 85.996302 
L 147.566176 100.979851 
L 147.890993 103.054573 
L 148.21581 104.019563 
L 148.378218 104.170723 
L 148.540627 104.038418 
L 148.865444 103.198655 
L 149.515078 100.208356 
L 150.489528 95.589757 
L 150.976754 94.129039 
L 151.463979 93.379945 
L 151.788796 93.168054 
L 152.113613 93.087386 
L 153.088064 93.675421 
L 153.737698 94.089713 
L 154.387332 94.358046 
L 156.173825 94.868686 
L 157.148276 94.710256 
L 158.447544 94.412469 
L 158.772361 94.406537 
L 158.934769 94.375088 
L 159.259586 94.502705 
L 159.90922 94.709788 
L 160.721262 95.040719 
L 161.208488 95.115567 
L 161.370896 95.213325 
L 161.533305 95.149002 
L 161.695713 95.21728 
L 162.182939 95.142834 
L 162.994981 95.010781 
L 163.482207 94.738468 
L 163.807024 94.703 
L 163.969432 94.578843 
L 164.456657 94.651875 
L 165.918334 94.806998 
L 166.080742 94.739413 
L 166.243151 94.835268 
L 167.38001 94.625872 
L 167.704827 94.570539 
L 168.354461 94.361962 
L 168.679278 94.360356 
L 169.653729 93.739138 
L 170.140954 93.059522 
L 170.952996 91.980854 
L 171.277813 91.77264 
L 171.60263 91.881359 
L 171.927447 92.569387 
L 172.252264 93.749243 
L 172.577081 95.52357 
L 173.064307 99.177591 
L 174.201166 108.287266 
L 174.525983 109.403005 
L 174.688391 109.535779 
L 174.8508 109.292469 
L 175.175617 107.416723 
L 175.500434 103.995488 
L 176.150068 93.033413 
L 177.124519 75.390721 
L 177.449336 72.100586 
L 177.611744 71.352996 
L 177.774153 71.148475 
L 177.936561 71.459471 
L 178.261378 73.847824 
L 178.748603 81.059544 
L 180.21028 106.041437 
L 180.535097 108.387793 
L 180.697505 109.008063 
L 180.859914 109.188148 
L 181.022322 109.062497 
L 181.347139 107.787553 
L 181.834364 104.266965 
L 182.971224 95.528263 
L 183.458449 93.301486 
L 183.945675 92.212102 
L 184.270492 92.046428 
L 184.757717 92.284359 
L 185.407351 93.059945 
L 186.381802 94.151935 
L 187.193844 94.592494 
L 188.168295 94.906667 
L 189.305154 94.817911 
L 189.79238 94.634771 
L 190.279605 94.572757 
L 190.442014 94.470463 
L 190.604422 94.508656 
L 190.766831 94.409899 
L 190.929239 94.522142 
L 191.416465 94.431693 
L 191.741282 94.494512 
L 191.90369 94.432106 
L 192.715732 94.798135 
L 193.040549 94.847468 
L 193.365366 94.987501 
L 193.690183 95.024586 
L 194.502226 95.181363 
L 197.26317 94.671327 
L 198.724846 94.747875 
L 199.699297 94.651988 
L 200.024114 94.54217 
L 201.160973 94.15083 
L 202.135424 93.169812 
L 203.272283 91.337638 
L 203.921917 91.061302 
L 204.246734 91.641974 
L 204.73396 93.639477 
L 205.221185 97.35692 
L 206.033228 106.175392 
L 206.682861 112.568012 
L 207.007678 114.006891 
L 207.170087 114.240797 
L 207.332495 113.824999 
L 207.657312 111.521112 
L 207.982129 106.947507 
L 208.469355 96.69743 
L 209.606214 69.202905 
L 209.931031 64.810237 
L 210.255848 63.317537 
L 210.418256 63.781951 
L 210.743073 66.992961 
L 211.230299 76.395699 
L 212.691975 109.65624 
L 213.016792 112.820581 
L 213.179201 113.703883 
L 213.341609 113.948691 
L 213.504017 113.861676 
L 213.828834 112.091 
L 214.153651 109.375897 
L 215.777736 93.842271 
L 216.102553 92.261552 
L 216.589779 91.274128 
L 216.914595 91.1849 
L 217.401821 91.670104 
L 218.213863 93.015028 
L 219.513131 94.192354 
L 221.137216 94.777878 
L 221.462033 94.676742 
L 221.624441 94.789275 
L 222.111667 94.698252 
L 222.436484 94.600185 
L 222.923709 94.548892 
L 223.248526 94.457249 
L 224.385385 94.62006 
L 226.171879 95.25133 
L 227.14633 95.239139 
L 227.471146 95.084537 
L 228.932823 94.544509 
L 229.907274 94.543607 
L 230.069682 94.617501 
L 230.232091 94.545715 
L 230.881724 94.710566 
L 231.206541 94.739428 
L 232.180992 94.74862 
L 233.155443 94.384474 
L 234.129894 93.492339 
L 234.617119 92.729601 
L 236.078796 90.192521 
L 236.403613 90.268269 
L 236.72843 90.899608 
L 237.053247 92.339209 
L 237.540472 96.123877 
L 238.190106 104.185568 
L 239.164557 116.868649 
L 239.489374 118.908031 
L 239.651782 119.111674 
L 239.814191 118.688015 
L 240.139008 115.97391 
L 240.463825 110.387363 
L 240.95105 97.512895 
L 242.250318 59.501363 
L 242.737543 53.568 
L 243.387177 62.720773 
L 244.036811 81.582332 
L 244.848854 106.614475 
L 245.336079 115.976684 
L 245.660896 118.688738 
L 245.823304 119.12493 
L 245.985713 118.909171 
L 246.31053 116.88229 
L 246.797755 111.147429 
L 247.934615 96.12345 
L 248.42184 92.339949 
L 248.746657 90.903705 
L 249.071474 90.270365 
L 249.396291 90.208261 
L 249.883516 90.874123 
L 251.67001 93.877399 
L 251.832418 93.9593 
L 252.157235 94.267991 
L 252.64446 94.50599 
L 253.943728 94.817265 
L 254.593362 94.70731 
L 255.080588 94.609213 
L 255.242996 94.54849 
L 255.405405 94.619021 
L 255.730221 94.512642 
L 256.867081 94.676041 
L 258.491166 95.265458 
L 258.653574 95.229852 
L 258.815983 95.318701 
L 259.465616 95.19141 
L 259.790433 95.161921 
L 260.11525 95.017116 
L 260.440067 94.894773 
L 260.764884 94.739732 
L 261.739335 94.496109 
L 262.388969 94.436371 
L 262.713786 94.569839 
L 264.662688 94.702603 
L 264.987505 94.636465 
L 266.611589 93.712103 
L 267.910857 91.976735 
L 268.235674 91.505199 
L 268.560491 91.181512 
L 268.885308 91.277654 
L 269.047717 91.454411 
L 269.372534 92.249194 
L 269.859759 94.766642 
L 270.346984 98.884551 
L 271.808661 113.167005 
L 271.971069 113.857745 
L 272.133478 113.958536 
L 272.295886 113.697091 
L 272.620703 111.573299 
L 272.94552 107.234196 
L 273.432745 97.19269 
L 274.732013 66.99194 
L 275.05683 63.782562 
L 275.219239 63.318952 
L 275.381647 63.751563 
L 275.544056 64.819226 
L 275.868873 69.209301 
L 276.356098 79.850421 
L 277.492957 106.94758 
L 277.980183 112.948139 
L 278.305 114.241108 
L 278.467408 114.009399 
L 278.792225 112.560777 
L 279.279451 107.980281 
L 280.578718 94.669924 
L 281.065944 92.204883 
L 281.390761 91.311369 
L 281.715578 91.005655 
L 281.877986 91.033303 
L 282.852437 92.433737 
L 283.66448 93.578818 
L 284.476522 94.240209 
L 285.126156 94.47604 
L 286.750241 94.746298 
L 288.861551 94.714992 
L 289.348776 94.87289 
L 290.648044 95.156692 
L 291.784903 95.033898 
L 292.10972 94.993717 
L 293.24658 94.60127 
L 293.571397 94.444176 
L 293.896214 94.491699 
L 294.221031 94.387894 
L 294.545847 94.507589 
L 294.708256 94.413314 
L 295.195481 94.562462 
L 295.520298 94.62392 
L 296.007524 94.73694 
L 296.332341 94.845858 
L 297.144383 94.920813 
L 297.794017 94.794026 
L 299.255693 94.035582 
L 299.742919 93.483439 
L 300.879778 92.118032 
L 301.204595 91.957118 
L 301.529412 92.107417 
L 302.016637 93.227952 
L 302.503863 95.504328 
L 303.153497 100.13724 
L 304.127948 107.818069 
L 304.452765 109.073166 
L 304.615173 109.186138 
L 304.777582 109.020913 
L 305.102398 107.435243 
L 305.427215 104.271043 
L 305.914441 96.676457 
L 307.213709 73.87871 
L 307.538526 71.493151 
L 307.700934 71.179121 
L 307.863343 71.375932 
L 308.025751 72.117954 
L 308.350568 75.393416 
L 308.837793 83.513389 
L 309.974653 103.993445 
L 310.461878 108.585936 
L 310.786695 109.532685 
L 310.949104 109.399779 
L 311.111512 109.006109 
L 311.436329 107.262159 
L 311.923555 103.507657 
L 312.735597 96.581918 
L 313.222822 93.744989 
L 313.710048 92.159639 
L 314.034865 91.812294 
L 314.359682 91.81842 
L 315.009316 92.532514 
L 315.821358 93.739947 
L 317.445443 94.499132 
L 317.77026 94.562552 
L 318.257485 94.626762 
L 319.231936 94.84452 
L 319.394344 94.749944 
L 319.719161 94.803395 
L 320.043978 94.733745 
L 320.531204 94.699133 
L 320.856021 94.668229 
L 321.505655 94.587765 
L 321.830472 94.745657 
L 322.317697 94.889395 
L 322.642514 95.020009 
L 323.616965 95.148598 
L 323.779373 95.214934 
L 323.941782 95.1434 
L 324.10419 95.210359 
L 324.266599 95.108619 
L 324.429007 95.141733 
L 325.078641 94.880997 
L 325.24105 94.906859 
L 325.728275 94.646413 
L 326.377909 94.481486 
L 326.702726 94.420478 
L 328.164402 94.663097 
L 329.138853 94.867255 
L 329.788487 94.779811 
L 330.438121 94.633871 
L 331.087755 94.401563 
L 331.899797 93.989463 
L 333.361473 93.002383 
L 333.848699 93.135475 
L 334.173516 93.494376 
L 334.498333 94.041628 
L 334.985558 95.54799 
L 335.635192 98.517248 
L 336.447235 102.575409 
L 336.772051 103.726198 
L 337.096868 104.165355 
L 337.259277 104.006528 
L 337.584094 103.042476 
L 337.908911 100.978353 
L 338.396136 96.166911 
L 339.695404 81.176853 
L 340.020221 79.617993 
L 340.182629 79.275145 
L 340.345038 79.433572 
L 340.507446 79.902297 
L 340.832263 82.012594 
L 341.319489 87.150602 
L 342.456348 100.551491 
L 342.943574 103.585622 
L 343.268391 104.384697 
L 343.430799 104.37987 
L 343.755616 103.724846 
L 344.242841 101.549012 
L 345.704518 94.274841 
L 346.191743 93.15101 
L 346.51656 92.811593 
L 346.678969 92.733687 
L 347.653419 93.383688 
L 349.439913 94.546481 
L 352.038448 94.780694 
L 353.175308 94.563738 
L 353.662533 94.565289 
L 354.149759 94.641374 
L 354.636984 94.867308 
L 356.261069 95.260628 
L 357.722745 94.826679 
L 358.20997 94.588811 
L 358.697196 94.336834 
L 359.022013 94.307807 
L 359.509238 94.301943 
L 360.646098 94.678772 
L 360.808506 94.875863 
L 361.295732 94.981101 
L 362.107774 95.025247 
L 363.082225 94.799827 
L 364.219084 94.478278 
L 365.031126 94.142196 
L 366.005577 93.858509 
L 366.492803 94.003437 
L 366.980028 94.341352 
L 367.467254 95.11303 
L 367.954479 96.093048 
L 368.92893 98.510748 
L 369.578564 99.308258 
L 369.903381 99.201831 
L 370.228198 98.535139 
L 370.715423 96.53527 
L 371.365057 92.663326 
L 372.177099 88.219625 
L 372.501916 87.303241 
L 372.664325 87.130711 
L 372.989142 87.286179 
L 373.313959 88.278805 
L 373.638776 89.781131 
L 375.262861 98.780863 
L 375.587677 99.527189 
L 375.750086 99.708595 
L 376.074903 99.61422 
L 376.562128 98.732722 
L 377.211762 96.9314 
L 377.861396 95.135958 
L 378.348622 94.161958 
L 378.998255 93.67981 
L 379.323072 93.586203 
L 379.972706 93.874352 
L 381.434383 94.582993 
L 382.246425 94.772941 
L 383.220876 94.940534 
L 383.87051 94.927232 
L 384.844961 94.872482 
L 385.332186 94.677325 
L 386.956271 94.770476 
L 387.281088 94.886667 
L 389.717215 94.829661 
L 390.529257 94.716484 
L 391.828525 94.620441 
L 393.290201 94.769918 
L 394.102244 94.851836 
L 394.427061 94.802878 
L 394.751878 94.873066 
L 395.076695 94.808795 
L 396.863188 94.784658 
L 397.67523 94.806518 
L 398.000047 94.778874 
L 398.487273 94.834588 
L 398.487273 94.834588 
" clip-path="url(#p6f287746e4)" style="fill: none; stroke: #0000ff; stroke-width: 1.5; stroke-linecap: square"/>
   </g>
   <g id="line2d_22">
    <path d="M 73.832727 94.967082 
L 74.482361 94.84466 
L 75.131995 94.693711 
L 75.944037 94.594556 
L 76.431263 94.587665 
L 76.75608 94.666277 
L 78.380165 95.090984 
L 79.192207 94.889092 
L 80.166658 94.479077 
L 80.653883 94.412462 
L 81.141109 94.336062 
L 81.465926 94.385093 
L 82.11556 94.693193 
L 82.602785 94.884753 
L 83.09001 95.085792 
L 84.064461 95.163319 
L 85.363729 94.760361 
L 85.688546 94.589363 
L 86.175772 94.583608 
L 86.33818 94.524606 
L 86.825405 94.602426 
L 88.287082 94.812107 
L 88.774307 94.773587 
L 89.748758 94.832036 
L 92.347294 94.806384 
L 92.834519 94.897693 
L 93.484153 94.920414 
L 94.133787 94.922632 
L 95.270646 94.796001 
L 98.193999 94.667879 
L 99.16845 94.889789 
L 99.330858 94.865134 
L 99.493267 94.969914 
L 101.442168 94.640227 
L 103.228662 94.8172 
L 103.553479 94.878162 
L 104.040704 95.00759 
L 104.852746 95.385804 
L 105.50238 95.6453 
L 105.827197 95.797162 
L 106.314423 95.85894 
L 107.126465 95.295338 
L 107.776099 94.055505 
L 109.400184 89.952711 
L 109.725001 89.852204 
L 110.049818 90.30629 
L 110.537043 91.936058 
L 111.186677 95.709645 
L 111.998719 100.660537 
L 112.485945 102.331672 
L 112.810762 102.484412 
L 112.97317 102.309133 
L 113.297987 101.395856 
L 113.785213 98.892165 
L 115.08448 91.578147 
L 115.409297 90.642213 
L 115.734114 90.241286 
L 116.058931 90.290437 
L 116.546157 91.075485 
L 118.33265 94.931268 
L 118.657467 95.313124 
L 118.982284 95.451551 
L 119.144692 95.604134 
L 120.119143 95.536708 
L 120.931186 95.250025 
L 123.367313 94.543582 
L 124.179355 94.562696 
L 124.504172 94.663383 
L 124.666581 94.665481 
L 124.828989 94.885108 
L 125.153806 94.942238 
L 125.641031 95.178848 
L 126.453074 95.242211 
L 127.427525 94.976024 
L 127.91475 94.703908 
L 129.376426 94.289866 
L 129.863652 94.382886 
L 130.513286 94.583617 
L 131.974962 95.01276 
L 132.299779 94.987992 
L 134.735906 94.770991 
L 135.223132 94.88454 
L 136.359991 95.066605 
L 137.172033 95.580351 
L 138.308893 96.644786 
L 138.63371 96.72555 
L 138.796118 96.798957 
L 139.120935 96.597385 
L 139.445752 96.182973 
L 140.095386 94.088509 
L 140.907428 89.819882 
L 141.557062 86.440899 
L 141.881879 85.420788 
L 142.044288 85.159168 
L 142.206696 85.171034 
L 142.369105 85.405563 
L 142.693922 86.627216 
L 143.181147 90.540112 
L 143.830781 98.293223 
L 144.642823 107.563987 
L 144.96764 109.669157 
L 145.292457 110.319622 
L 145.454866 109.978012 
L 145.779683 108.407744 
L 146.266908 103.557771 
L 147.566176 88.574222 
L 147.890993 86.4995 
L 148.21581 85.53451 
L 148.378218 85.38335 
L 148.540627 85.515655 
L 148.865444 86.355417 
L 149.515078 89.345717 
L 150.489528 93.964316 
L 150.976754 95.425034 
L 151.463979 96.174128 
L 151.788796 96.386018 
L 152.113613 96.466686 
L 153.088064 95.878651 
L 153.737698 95.464359 
L 154.387332 95.196026 
L 156.173825 94.685386 
L 157.148276 94.843817 
L 158.447544 95.141603 
L 158.772361 95.147536 
L 158.934769 95.178985 
L 159.259586 95.051367 
L 159.90922 94.844284 
L 160.721262 94.513354 
L 161.208488 94.438506 
L 161.370896 94.340748 
L 161.533305 94.40507 
L 161.695713 94.336793 
L 162.182939 94.411239 
L 162.994981 94.543291 
L 163.482207 94.815605 
L 163.807024 94.851072 
L 163.969432 94.97523 
L 164.456657 94.902198 
L 165.918334 94.747075 
L 166.080742 94.814659 
L 166.243151 94.718805 
L 167.38001 94.9282 
L 167.704827 94.983533 
L 168.354461 95.19211 
L 168.679278 95.193716 
L 169.653729 95.814934 
L 170.140954 96.49455 
L 170.952996 97.573219 
L 171.277813 97.781433 
L 171.60263 97.672714 
L 171.927447 96.984686 
L 172.252264 95.80483 
L 172.577081 94.030503 
L 173.064307 90.376482 
L 174.201166 81.266806 
L 174.525983 80.151068 
L 174.688391 80.018293 
L 174.8508 80.261604 
L 175.175617 82.13735 
L 175.500434 85.558585 
L 176.150068 96.52066 
L 177.124519 114.163351 
L 177.449336 117.453487 
L 177.611744 118.201077 
L 177.774153 118.405598 
L 177.936561 118.094601 
L 178.261378 115.706249 
L 178.748603 108.494528 
L 180.21028 83.512635 
L 180.535097 81.16628 
L 180.697505 80.546009 
L 180.859914 80.365925 
L 181.022322 80.491575 
L 181.347139 81.766519 
L 181.834364 85.287108 
L 182.971224 94.025809 
L 183.458449 96.252586 
L 183.945675 97.341971 
L 184.270492 97.507645 
L 184.757717 97.269714 
L 185.407351 96.494128 
L 186.381802 95.402138 
L 187.193844 94.961579 
L 188.168295 94.647405 
L 189.305154 94.736162 
L 189.79238 94.919301 
L 190.279605 94.981315 
L 190.442014 95.083609 
L 190.604422 95.045417 
L 190.766831 95.144173 
L 190.929239 95.031931 
L 191.416465 95.122379 
L 191.741282 95.05956 
L 191.90369 95.121966 
L 192.715732 94.755937 
L 193.040549 94.706604 
L 193.365366 94.566572 
L 193.690183 94.529486 
L 194.502226 94.372709 
L 197.26317 94.882746 
L 198.724846 94.806197 
L 199.699297 94.902084 
L 200.024114 95.011903 
L 201.160973 95.403242 
L 202.135424 96.38426 
L 203.272283 98.216435 
L 203.921917 98.49277 
L 204.246734 97.912098 
L 204.73396 95.914596 
L 205.221185 92.197153 
L 206.033228 83.37868 
L 206.682861 76.986061 
L 207.007678 75.547182 
L 207.170087 75.313276 
L 207.332495 75.729073 
L 207.657312 78.032961 
L 207.982129 82.606565 
L 208.469355 92.856642 
L 209.606214 120.351168 
L 209.931031 124.743836 
L 210.255848 126.236535 
L 210.418256 125.772122 
L 210.743073 122.561111 
L 211.230299 113.158374 
L 212.691975 79.897833 
L 213.016792 76.733492 
L 213.179201 75.850189 
L 213.341609 75.605382 
L 213.504017 75.692397 
L 213.828834 77.463073 
L 214.153651 80.178176 
L 215.777736 95.711801 
L 216.102553 97.292521 
L 216.589779 98.279944 
L 216.914595 98.369173 
L 217.401821 97.883969 
L 218.213863 96.539044 
L 219.513131 95.361718 
L 221.137216 94.776195 
L 221.462033 94.877331 
L 221.624441 94.764797 
L 222.111667 94.855821 
L 222.436484 94.953887 
L 222.923709 95.005181 
L 223.248526 95.096824 
L 224.385385 94.934013 
L 226.171879 94.302742 
L 227.14633 94.314933 
L 227.471146 94.469535 
L 228.932823 95.009563 
L 229.907274 95.010466 
L 230.069682 94.936572 
L 230.232091 95.008357 
L 230.881724 94.843507 
L 231.206541 94.814645 
L 232.180992 94.805452 
L 233.155443 95.169599 
L 234.129894 96.061734 
L 234.617119 96.824472 
L 236.078796 99.361552 
L 236.403613 99.285804 
L 236.72843 98.654465 
L 237.053247 97.214864 
L 237.540472 93.430196 
L 238.190106 85.368504 
L 239.164557 72.685424 
L 239.489374 70.646041 
L 239.651782 70.442398 
L 239.814191 70.866058 
L 240.139008 73.580162 
L 240.463825 79.166709 
L 240.95105 92.041177 
L 242.250318 130.05271 
L 242.737543 135.986073 
L 243.387177 126.8333 
L 244.036811 107.971741 
L 244.848854 82.939597 
L 245.336079 73.577389 
L 245.660896 70.865335 
L 245.823304 70.429143 
L 245.985713 70.644902 
L 246.31053 72.671783 
L 246.797755 78.406643 
L 247.934615 93.430622 
L 248.42184 97.214124 
L 248.746657 98.650368 
L 249.071474 99.283708 
L 249.396291 99.345811 
L 249.883516 98.679949 
L 251.67001 95.676674 
L 251.832418 95.594772 
L 252.157235 95.286082 
L 252.64446 95.048082 
L 253.943728 94.736808 
L 254.593362 94.846763 
L 255.080588 94.94486 
L 255.242996 95.005583 
L 255.405405 94.935052 
L 255.730221 95.04143 
L 256.867081 94.878031 
L 258.491166 94.288614 
L 258.653574 94.324221 
L 258.815983 94.235372 
L 259.465616 94.362663 
L 259.790433 94.392151 
L 260.11525 94.536957 
L 260.440067 94.659299 
L 260.764884 94.81434 
L 261.739335 95.057963 
L 262.388969 95.117701 
L 262.713786 94.984234 
L 264.662688 94.851469 
L 264.987505 94.917607 
L 266.611589 95.841969 
L 267.910857 97.577338 
L 268.235674 98.048874 
L 268.560491 98.372561 
L 268.885308 98.276419 
L 269.047717 98.099662 
L 269.372534 97.304878 
L 269.859759 94.787431 
L 270.346984 90.669522 
L 271.808661 76.387067 
L 271.971069 75.696327 
L 272.133478 75.595537 
L 272.295886 75.856981 
L 272.620703 77.980774 
L 272.94552 82.319877 
L 273.432745 92.361382 
L 274.732013 122.562133 
L 275.05683 125.77151 
L 275.219239 126.235121 
L 275.381647 125.80251 
L 275.544056 124.734846 
L 275.868873 120.344771 
L 276.356098 109.703652 
L 277.492957 82.606493 
L 277.980183 76.605933 
L 278.305 75.312964 
L 278.467408 75.544674 
L 278.792225 76.993295 
L 279.279451 81.573791 
L 280.578718 94.884149 
L 281.065944 97.349189 
L 281.390761 98.242704 
L 281.715578 98.548418 
L 281.877986 98.520769 
L 282.852437 97.120336 
L 283.66448 95.975254 
L 284.476522 95.313863 
L 285.126156 95.078033 
L 286.750241 94.807774 
L 288.861551 94.83908 
L 289.348776 94.681182 
L 290.648044 94.397381 
L 291.784903 94.520174 
L 292.10972 94.560356 
L 293.24658 94.952803 
L 293.571397 95.109897 
L 293.896214 95.062373 
L 294.221031 95.166178 
L 294.545847 95.046483 
L 294.708256 95.140758 
L 295.195481 94.991611 
L 295.520298 94.930153 
L 296.007524 94.817132 
L 296.332341 94.708214 
L 297.144383 94.63326 
L 297.794017 94.760047 
L 299.255693 95.518491 
L 299.742919 96.070634 
L 300.879778 97.43604 
L 301.204595 97.596955 
L 301.529412 97.446656 
L 302.016637 96.32612 
L 302.503863 94.049745 
L 303.153497 89.416833 
L 304.127948 81.736003 
L 304.452765 80.480907 
L 304.615173 80.367934 
L 304.777582 80.53316 
L 305.102398 82.118829 
L 305.427215 85.28303 
L 305.914441 92.877616 
L 307.213709 115.675363 
L 307.538526 118.060921 
L 307.700934 118.374951 
L 307.863343 118.17814 
L 308.025751 117.436119 
L 308.350568 114.160657 
L 308.837793 106.040683 
L 309.974653 85.560628 
L 310.461878 80.968137 
L 310.786695 80.021388 
L 310.949104 80.154294 
L 311.111512 80.547963 
L 311.436329 82.291913 
L 311.923555 86.046416 
L 312.735597 92.972155 
L 313.222822 95.809083 
L 313.710048 97.394434 
L 314.034865 97.741779 
L 314.359682 97.735652 
L 315.009316 97.021559 
L 315.821358 95.814126 
L 317.445443 95.05494 
L 317.77026 94.99152 
L 318.257485 94.92731 
L 319.231936 94.709553 
L 319.394344 94.804128 
L 319.719161 94.750678 
L 320.043978 94.820327 
L 320.531204 94.85494 
L 320.856021 94.885843 
L 321.505655 94.966308 
L 321.830472 94.808415 
L 322.317697 94.664677 
L 322.642514 94.534063 
L 323.616965 94.405475 
L 323.779373 94.339139 
L 323.941782 94.410673 
L 324.10419 94.343713 
L 324.266599 94.445453 
L 324.429007 94.412339 
L 325.078641 94.673076 
L 325.24105 94.647213 
L 325.728275 94.90766 
L 326.377909 95.072587 
L 326.702726 95.133594 
L 328.164402 94.890976 
L 329.138853 94.686817 
L 329.788487 94.774262 
L 330.438121 94.920202 
L 331.087755 95.152509 
L 331.899797 95.56461 
L 333.361473 96.551689 
L 333.848699 96.418597 
L 334.173516 96.059696 
L 334.498333 95.512445 
L 334.985558 94.006082 
L 335.635192 91.036824 
L 336.447235 86.978663 
L 336.772051 85.827874 
L 337.096868 85.388718 
L 337.259277 85.547545 
L 337.584094 86.511596 
L 337.908911 88.57572 
L 338.396136 93.387161 
L 339.695404 108.377219 
L 340.020221 109.936079 
L 340.182629 110.278927 
L 340.345038 110.120501 
L 340.507446 109.651776 
L 340.832263 107.541479 
L 341.319489 102.40347 
L 342.456348 89.002581 
L 342.943574 85.96845 
L 343.268391 85.169376 
L 343.430799 85.174203 
L 343.755616 85.829227 
L 344.242841 88.005061 
L 345.704518 95.279232 
L 346.191743 96.403063 
L 346.51656 96.74248 
L 346.678969 96.820386 
L 347.653419 96.170385 
L 349.439913 95.007591 
L 352.038448 94.773378 
L 353.175308 94.990334 
L 353.662533 94.988783 
L 354.149759 94.912699 
L 354.636984 94.686764 
L 356.261069 94.293445 
L 357.722745 94.727393 
L 358.20997 94.965262 
L 358.697196 95.217238 
L 359.022013 95.246266 
L 359.509238 95.25213 
L 360.646098 94.8753 
L 360.808506 94.67821 
L 361.295732 94.572971 
L 362.107774 94.528825 
L 363.082225 94.754245 
L 364.219084 95.075794 
L 365.031126 95.411876 
L 366.005577 95.695564 
L 366.492803 95.550635 
L 366.980028 95.21272 
L 367.467254 94.441042 
L 367.954479 93.461024 
L 368.92893 91.043325 
L 369.578564 90.245814 
L 369.903381 90.352242 
L 370.228198 91.018934 
L 370.715423 93.018803 
L 371.365057 96.890746 
L 372.177099 101.334448 
L 372.501916 102.250832 
L 372.664325 102.423361 
L 372.989142 102.267893 
L 373.313959 101.275268 
L 373.638776 99.772941 
L 375.262861 90.77321 
L 375.587677 90.026884 
L 375.750086 89.845478 
L 376.074903 89.939853 
L 376.562128 90.82135 
L 377.211762 92.622673 
L 377.861396 94.418114 
L 378.348622 95.392115 
L 378.998255 95.874262 
L 379.323072 95.967869 
L 379.972706 95.679721 
L 381.434383 94.97108 
L 382.246425 94.781131 
L 383.220876 94.613539 
L 383.87051 94.626841 
L 384.844961 94.68159 
L 385.332186 94.876748 
L 386.956271 94.783596 
L 387.281088 94.667406 
L 389.717215 94.724411 
L 390.529257 94.837589 
L 391.828525 94.933632 
L 393.290201 94.784155 
L 394.102244 94.702236 
L 394.427061 94.751195 
L 394.751878 94.681007 
L 395.076695 94.745278 
L 396.863188 94.769414 
L 397.67523 94.747555 
L 398.000047 94.775199 
L 398.487273 94.719485 
L 398.487273 94.719485 
" clip-path="url(#p6f287746e4)" style="fill: none; stroke: #ff0000; stroke-width: 1.5; stroke-linecap: square"/>
   </g>
   <g id="line2d_23">
    <path d="M 236.241204 307.584 
L 236.241204 41.472 
" clip-path="url(#p6f287746e4)" style="fill: none; stroke: #000000; stroke-width: 1.5; stroke-linecap: square"/>
   </g>
   <g id="patch_3">
    <path d="M 57.6 307.584 
L 57.6 41.472 
" style="fill: none; stroke: #000000; stroke-width: 0.8; stroke-linejoin: miter; stroke-linecap: square"/>
   </g>
   <g id="patch_4">
    <path d="M 414.72 307.584 
L 414.72 41.472 
" style="fill: none; stroke: #000000; stroke-width: 0.8; stroke-linejoin: miter; stroke-linecap: square"/>
   </g>
   <g id="patch_5">
    <path d="M 57.6 307.584 
L 414.72 307.584 
" style="fill: none; stroke: #000000; stroke-width: 0.8; stroke-linejoin: miter; stroke-linecap: square"/>
   </g>
   <g id="patch_6">
    <path d="M 57.6 41.472 
L 414.72 41.472 
" style="fill: none; stroke: #000000; stroke-width: 0.8; stroke-linejoin: miter; stroke-linecap: square"/>
   </g>
   <g id="legend_1">
    <g id="patch_7">
     <path d="M 353.374688 78.82825 
L 407.72 78.82825 
Q 409.72 78.82825 409.72 76.82825 
L 409.72 48.472 
Q 409.72 46.472 407.72 46.472 
L 353.374688 46.472 
Q 351.374688 46.472 351.374688 48.472 
L 351.374688 76.82825 
Q 351.374688 78.82825 353.374688 78.82825 
z
" style="fill: #ffffff; opacity: 0.8; stroke: #cccccc; stroke-linejoin: miter"/>
    </g>
    <g id="line2d_24">
     <path d="M 355.374688 54.570437 
L 365.374688 54.570437 
L 375.374688 54.570437 
" style="fill: none; stroke: #0000ff; stroke-width: 1.5; stroke-linecap: square"/>
    </g>
    <g id="text_17">
     <!-- CC+ -->
     <g transform="translate(383.374688 58.070437) scale(0.1 -0.1)">
      <defs>
       <path id="DejaVuSans-43" d="M 4122 4306 
L 4122 3641 
Q 3803 3938 3442 4084 
Q 3081 4231 2675 4231 
Q 1875 4231 1450 3742 
Q 1025 3253 1025 2328 
Q 1025 1406 1450 917 
Q 1875 428 2675 428 
Q 3081 428 3442 575 
Q 3803 722 4122 1019 
L 4122 359 
Q 3791 134 3420 21 
Q 3050 -91 2638 -91 
Q 1578 -91 968 557 
Q 359 1206 359 2328 
Q 359 3453 968 4101 
Q 1578 4750 2638 4750 
Q 3056 4750 3426 4639 
Q 3797 4528 4122 4306 
z
" transform="scale(0.015625)"/>
       <path id="DejaVuSans-2b" d="M 2944 4013 
L 2944 2272 
L 4684 2272 
L 4684 1741 
L 2944 1741 
L 2944 0 
L 2419 0 
L 2419 1741 
L 678 1741 
L 678 2272 
L 2419 2272 
L 2419 4013 
L 2944 4013 
z
" transform="scale(0.015625)"/>
      </defs>
      <use xlink:href="#DejaVuSans-43"/>
      <use xlink:href="#DejaVuSans-43" x="69.824219"/>
      <use xlink:href="#DejaVuSans-2b" x="139.648438"/>
     </g>
    </g>
    <g id="line2d_25">
     <path d="M 355.374688 69.248562 
L 365.374688 69.248562 
L 375.374688 69.248562 
" style="fill: none; stroke: #ff0000; stroke-width: 1.5; stroke-linecap: square"/>
    </g>
    <g id="text_18">
     <!-- CC- -->
     <g transform="translate(383.374688 72.748562) scale(0.1 -0.1)">
      <defs>
       <path id="DejaVuSans-2d" d="M 313 2009 
L 1997 2009 
L 1997 1497 
L 313 1497 
L 313 2009 
z
" transform="scale(0.015625)"/>
      </defs>
      <use xlink:href="#DejaVuSans-43"/>
      <use xlink:href="#DejaVuSans-43" x="69.824219"/>
      <use xlink:href="#DejaVuSans-2d" x="139.648438"/>
     </g>
    </g>
   </g>
  </g>
 </g>
 <defs>
  <clipPath id="p6f287746e4">
   <rect x="57.6" y="41.472" width="357.12" height="266.112"/>
  </clipPath>
 </defs>
</svg>
