<?xml version="1.0" encoding="utf-8" standalone="no"?>
<!DOCTYPE svg PUBLIC "-//W3C//DTD SVG 1.1//EN"
  "http://www.w3.org/Graphics/SVG/1.1/DTD/svg11.dtd">
<svg xmlns:xlink="http://www.w3.org/1999/xlink" width="460.8pt" height="345.6pt" viewBox="0 0 460.8 345.6" xmlns="http://www.w3.org/2000/svg" version="1.1">
 <metadata>
  <rdf:RDF xmlns:dc="http://purl.org/dc/elements/1.1/" xmlns:cc="http://creativecommons.org/ns#" xmlns:rdf="http://www.w3.org/1999/02/22-rdf-syntax-ns#">
   <cc:Work>
    <dc:type rdf:resource="http://purl.org/dc/dcmitype/StillImage"/>
    <dc:date>2023-10-31T00:07:53.168666</dc:date>
    <dc:format>image/svg+xml</dc:format>
    <dc:creator>
     <cc:Agent>
      <dc:title>Matplotlib v3.7.1, https://matplotlib.org/</dc:title>
     </cc:Agent>
    </dc:creator>
   </cc:Work>
  </rdf:RDF>
 </metadata>
 <defs>
  <style type="text/css">*{stroke-linejoin: round; stroke-linecap: butt}</style>
 </defs>
 <g id="figure_1">
  <g id="patch_1">
   <path d="M 0 345.6 
L 460.8 345.6 
L 460.8 0 
L 0 0 
z
" style="fill: #ffffff"/>
  </g>
  <g id="axes_1">
   <g id="patch_2">
    <path d="M 369.216 174.528 
C 369.216 157.055246 365.774248 139.752393 359.087715 123.609673 
C 352.401182 107.466954 342.599903 92.798303 330.2448 80.4432 
C 317.889697 68.088097 303.221046 58.286818 287.078327 51.600285 
C 270.935607 44.913752 253.632754 41.472 236.16 41.472 
C 218.687246 41.472 201.384393 44.913752 185.241673 51.600285 
C 169.098954 58.286818 154.430303 68.088097 142.0752 80.4432 
C 129.720097 92.798303 119.918818 107.466954 113.232285 123.609673 
C 106.545752 139.752393 103.104 157.055246 103.104 174.528 
C 103.104 192.000754 106.545752 209.303607 113.232285 225.446327 
C 119.918818 241.589046 129.720097 256.257697 142.0752 268.6128 
C 154.430303 280.967903 169.098954 290.769182 185.241673 297.455715 
C 201.384393 304.142248 218.687246 307.584 236.16 307.584 
C 253.632754 307.584 270.935607 304.142248 287.078327 297.455715 
C 303.221046 290.769182 317.889697 280.967903 330.2448 268.6128 
C 342.599903 256.257697 352.401182 241.589046 359.087715 225.446327 
C 365.774248 209.303607 369.216 192.000754 369.216 174.528 
M 236.16 174.528 
C 236.16 174.528 236.16 174.528 236.16 174.528 
C 236.16 174.528 236.16 174.528 236.16 174.528 
C 236.16 174.528 236.16 174.528 236.16 174.528 
C 236.16 174.528 236.16 174.528 236.16 174.528 
C 236.16 174.528 236.16 174.528 236.16 174.528 
C 236.16 174.528 236.16 174.528 236.16 174.528 
C 236.16 174.528 236.16 174.528 236.16 174.528 
C 236.16 174.528 236.16 174.528 236.16 174.528 
C 236.16 174.528 236.16 174.528 236.16 174.528 
C 236.16 174.528 236.16 174.528 236.16 174.528 
C 236.16 174.528 236.16 174.528 236.16 174.528 
C 236.16 174.528 236.16 174.528 236.16 174.528 
C 236.16 174.528 236.16 174.528 236.16 174.528 
C 236.16 174.528 236.16 174.528 236.16 174.528 
C 236.16 174.528 236.16 174.528 236.16 174.528 
C 236.16 174.528 236.16 174.528 236.16 174.528 
z
" style="fill: #ffffff"/>
   </g>
   <g id="matplotlib.axis_1"/>
   <g id="matplotlib.axis_2">
    <g id="ytick_1">
     <g id="line2d_1">
      <path d="M 236.16 41.472 
C 253.632754 41.472 270.935607 44.913752 287.078327 51.600285 
C 303.221046 58.286818 317.889697 68.088097 330.2448 80.4432 
C 342.599903 92.798303 352.401182 107.466954 359.087715 123.609673 
C 365.774248 139.752393 369.216 157.055246 369.216 174.528 
C 369.216 192.000754 365.774248 209.303607 359.087715 225.446327 
C 352.401182 241.589046 342.599903 256.257697 330.2448 268.6128 
C 317.889697 280.967903 303.221046 290.769182 287.078327 297.455715 
C 270.935607 304.142248 253.632754 307.584 236.16 307.584 
C 218.687246 307.584 201.384393 304.142248 185.241673 297.455715 
C 169.098954 290.769182 154.430303 280.967903 142.0752 268.6128 
C 129.720097 256.257697 119.918818 241.589046 113.232285 225.446327 
C 106.545752 209.303607 103.104 192.000754 103.104 174.528 
C 103.104 157.055246 106.545752 139.752393 113.232285 123.609673 
C 119.918818 107.466954 129.720097 92.798303 142.0752 80.4432 
C 154.430303 68.088097 169.098954 58.286818 185.241673 51.600285 
C 201.384393 44.913752 218.687246 41.472 236.16 41.472 
" clip-path="url(#p85c0e521b3)" style="fill: none; stroke: #b0b0b0; stroke-width: 0.8; stroke-linecap: square"/>
     </g>
    </g>
    <g id="ytick_2">
     <g id="line2d_2">
      <path d="M 236.16 41.889693 
C 253.577903 41.889693 270.826439 45.32064 286.918483 51.986183 
C 303.010527 58.651726 317.633129 68.422236 329.949447 80.738553 
C 342.265764 93.054871 352.036274 107.677473 358.701817 123.769517 
C 365.36736 139.861561 368.798307 157.110097 368.798307 174.528 
C 368.798307 191.945903 365.36736 209.194439 358.701817 225.286483 
C 352.036274 241.378527 342.265764 256.001129 329.949447 268.317447 
C 317.633129 280.633764 303.010527 290.404274 286.918483 297.069817 
C 270.826439 303.73536 253.577903 307.166307 236.16 307.166307 
C 218.742097 307.166307 201.493561 303.73536 185.401517 297.069817 
C 169.309473 290.404274 154.686871 280.633764 142.370553 268.317447 
C 130.054236 256.001129 120.283726 241.378527 113.618183 225.286483 
C 106.95264 209.194439 103.521693 191.945903 103.521693 174.528 
C 103.521693 157.110097 106.95264 139.861561 113.618183 123.769517 
C 120.283726 107.677473 130.054236 93.054871 142.370553 80.738553 
C 154.686871 68.422236 169.309473 58.651726 185.401517 51.986183 
C 201.493561 45.32064 218.742097 41.889693 236.16 41.889693 
" clip-path="url(#p85c0e521b3)" style="fill: none; stroke: #b0b0b0; stroke-width: 0.8; stroke-linecap: square"/>
     </g>
    </g>
    <g id="ytick_3">
     <g id="line2d_3">
      <path d="M 236.16 42.202962 
C 253.536765 42.202962 270.744562 45.625806 286.7986 52.275606 
C 302.852637 58.925406 317.440703 68.67284 329.727932 80.960068 
C 342.01516 93.247297 351.762594 107.835363 358.412394 123.8894 
C 365.062194 139.943438 368.485038 157.151235 368.485038 174.528 
C 368.485038 191.904765 365.062194 209.112562 358.412394 225.1666 
C 351.762594 241.220637 342.01516 255.808703 329.727932 268.095932 
C 317.440703 280.38316 302.852637 290.130594 286.7986 296.780394 
C 270.744562 303.430194 253.536765 306.853038 236.16 306.853038 
C 218.783235 306.853038 201.575438 303.430194 185.5214 296.780394 
C 169.467363 290.130594 154.879297 280.38316 142.592068 268.095932 
C 130.30484 255.808703 120.557406 241.220637 113.907606 225.1666 
C 107.257806 209.112562 103.834962 191.904765 103.834962 174.528 
C 103.834962 157.151235 107.257806 139.943438 113.907606 123.8894 
C 120.557406 107.835363 130.30484 93.247297 142.592068 80.960068 
C 154.879297 68.67284 169.467363 58.925406 185.5214 52.275606 
C 201.575438 45.625806 218.783235 42.202962 236.16 42.202962 
" clip-path="url(#p85c0e521b3)" style="fill: none; stroke: #b0b0b0; stroke-width: 0.8; stroke-linecap: square"/>
     </g>
    </g>
    <g id="ytick_4">
     <g id="line2d_4">
      <path d="M 236.16 45.857773 
C 253.056819 45.857773 269.789338 49.186078 285.399964 55.652211 
C 301.01059 62.118344 315.195734 71.596554 327.14359 83.54441 
C 339.091446 95.492266 348.569656 109.67741 355.035789 125.288036 
C 361.501922 140.898662 364.830227 157.631181 364.830227 174.528 
C 364.830227 191.424819 361.501922 208.157338 355.035789 223.767964 
C 348.569656 239.37859 339.091446 253.563734 327.14359 265.51159 
C 315.195734 277.459446 301.01059 286.937656 285.399964 293.403789 
C 269.789338 299.869922 253.056819 303.198227 236.16 303.198227 
C 219.263181 303.198227 202.530662 299.869922 186.920036 293.403789 
C 171.30941 286.937656 157.124266 277.459446 145.17641 265.51159 
C 133.228554 253.563734 123.750344 239.37859 117.284211 223.767964 
C 110.818078 208.157338 107.489773 191.424819 107.489773 174.528 
C 107.489773 157.631181 110.818078 140.898662 117.284211 125.288036 
C 123.750344 109.67741 133.228554 95.492266 145.17641 83.54441 
C 157.124266 71.596554 171.30941 62.118344 186.920036 55.652211 
C 202.530662 49.186078 219.263181 45.857773 236.16 45.857773 
" clip-path="url(#p85c0e521b3)" style="fill: none; stroke: #b0b0b0; stroke-width: 0.8; stroke-linecap: square"/>
     </g>
    </g>
    <g id="ytick_5">
     <g id="line2d_5">
      <path d="M 236.16 50.0347 
C 252.50831 50.0347 268.697654 53.25496 283.801523 59.511188 
C 298.905393 65.767415 312.630056 74.937942 324.190057 86.497943 
C 335.750058 98.057944 344.920585 111.782607 351.176812 126.886477 
C 357.43304 141.990346 360.6533 158.17969 360.6533 174.528 
C 360.6533 190.87631 357.43304 207.065654 351.176812 222.169523 
C 344.920585 237.273393 335.750058 250.998056 324.190057 262.558057 
C 312.630056 274.118058 298.905393 283.288585 283.801523 289.544812 
C 268.697654 295.80104 252.50831 299.0213 236.16 299.0213 
C 219.81169 299.0213 203.622346 295.80104 188.518477 289.544812 
C 173.414607 283.288585 159.689944 274.118058 148.129943 262.558057 
C 136.569942 250.998056 127.399415 237.273393 121.143188 222.169523 
C 114.88696 207.065654 111.6667 190.87631 111.6667 174.528 
C 111.6667 158.17969 114.88696 141.990346 121.143188 126.886477 
C 127.399415 111.782607 136.569942 98.057944 148.129943 86.497943 
C 159.689944 74.937942 173.414607 65.767415 188.518477 59.511188 
C 203.622346 53.25496 219.81169 50.0347 236.16 50.0347 
" clip-path="url(#p85c0e521b3)" style="fill: none; stroke: #b0b0b0; stroke-width: 0.8; stroke-linecap: square"/>
     </g>
    </g>
    <g id="ytick_6">
     <g id="line2d_6">
      <path d="M 236.16 55.255858 
C 251.822674 55.255858 267.333049 58.341063 281.803473 64.334909 
C 296.273897 70.328755 309.422957 79.114677 320.49814 90.18986 
C 331.573323 101.265043 340.359245 114.414103 346.353091 128.884527 
C 352.346937 143.354951 355.432142 158.865326 355.432142 174.528 
C 355.432142 190.190674 352.346937 205.701049 346.353091 220.171473 
C 340.359245 234.641897 331.573323 247.790957 320.49814 258.86614 
C 309.422957 269.941323 296.273897 278.727245 281.803473 284.721091 
C 267.333049 290.714937 251.822674 293.800142 236.16 293.800142 
C 220.497326 293.800142 204.986951 290.714937 190.516527 284.721091 
C 176.046103 278.727245 162.897043 269.941323 151.82186 258.86614 
C 140.746677 247.790957 131.960755 234.641897 125.966909 220.171473 
C 119.973063 205.701049 116.887858 190.190674 116.887858 174.528 
C 116.887858 158.865326 119.973063 143.354951 125.966909 128.884527 
C 131.960755 114.414103 140.746677 101.265043 151.82186 90.18986 
C 162.897043 79.114677 176.046103 70.328755 190.516527 64.334909 
C 204.986951 58.341063 220.497326 55.255858 236.16 55.255858 
" clip-path="url(#p85c0e521b3)" style="fill: none; stroke: #b0b0b0; stroke-width: 0.8; stroke-linecap: square"/>
     </g>
    </g>
    <g id="ytick_7">
     <g id="line2d_7">
      <path d="M 236.16 101.807706 
C 245.709541 101.807706 255.166226 103.688758 263.988852 107.343209 
C 272.811478 110.99766 280.828467 116.354442 287.581013 123.106987 
C 294.333558 129.859533 299.69034 137.876522 303.344791 146.699148 
C 306.999242 155.521774 308.880294 164.978459 308.880294 174.528 
C 308.880294 184.077541 306.999242 193.534226 303.344791 202.356852 
C 299.69034 211.179478 294.333558 219.196467 287.581013 225.949013 
C 280.828467 232.701558 272.811478 238.05834 263.988852 241.712791 
C 255.166226 245.367242 245.709541 247.248294 236.16 247.248294 
C 226.610459 247.248294 217.153774 245.367242 208.331148 241.712791 
C 199.508522 238.05834 191.491533 232.701558 184.738987 225.949013 
C 177.986442 219.196467 172.62966 211.179478 168.975209 202.356852 
C 165.320758 193.534226 163.439706 184.077541 163.439706 174.528 
C 163.439706 164.978459 165.320758 155.521774 168.975209 146.699148 
C 172.62966 137.876522 177.986442 129.859533 184.738987 123.106987 
C 191.491533 116.354442 199.508522 110.99766 208.331148 107.343209 
C 217.153774 103.688758 226.610459 101.807706 236.16 101.807706 
" clip-path="url(#p85c0e521b3)" style="fill: none; stroke: #b0b0b0; stroke-width: 0.8; stroke-linecap: square"/>
     </g>
    </g>
    <g id="ytick_8">
     <g id="line2d_8">
      <path d="M 236.16 149.109313 
C 239.497951 149.109313 242.803446 149.766816 245.887311 151.044195 
C 248.971176 152.321574 251.773438 154.193986 254.133726 156.554274 
C 256.494014 158.914562 258.366426 161.716824 259.643805 164.800689 
C 260.921184 167.884554 261.578687 171.190049 261.578687 174.528 
C 261.578687 177.865951 260.921184 181.171446 259.643805 184.255311 
C 258.366426 187.339176 256.494014 190.141438 254.133726 192.501726 
C 251.773438 194.862014 248.971176 196.734426 245.887311 198.011805 
C 242.803446 199.289184 239.497951 199.946687 236.16 199.946687 
C 232.822049 199.946687 229.516554 199.289184 226.432689 198.011805 
C 223.348824 196.734426 220.546562 194.862014 218.186274 192.501726 
C 215.825986 190.141438 213.953574 187.339176 212.676195 184.255311 
C 211.398816 181.171446 210.741313 177.865951 210.741313 174.528 
C 210.741313 171.190049 211.398816 167.884554 212.676195 164.800689 
C 213.953574 161.716824 215.825986 158.914562 218.186274 156.554274 
C 220.546562 154.193986 223.348824 152.321574 226.432689 151.044195 
C 229.516554 149.766816 232.822049 149.109313 236.16 149.109313 
" clip-path="url(#p85c0e521b3)" style="fill: none; stroke: #b0b0b0; stroke-width: 0.8; stroke-linecap: square"/>
     </g>
    </g>
    <g id="ytick_9">
     <g id="line2d_9">
      <path d="M 236.16 174.528 
C 236.16 174.528 236.16 174.528 236.16 174.528 
C 236.16 174.528 236.16 174.528 236.16 174.528 
C 236.16 174.528 236.16 174.528 236.16 174.528 
C 236.16 174.528 236.16 174.528 236.16 174.528 
C 236.16 174.528 236.16 174.528 236.16 174.528 
C 236.16 174.528 236.16 174.528 236.16 174.528 
C 236.16 174.528 236.16 174.528 236.16 174.528 
C 236.16 174.528 236.16 174.528 236.16 174.528 
C 236.16 174.528 236.16 174.528 236.16 174.528 
C 236.16 174.528 236.16 174.528 236.16 174.528 
C 236.16 174.528 236.16 174.528 236.16 174.528 
C 236.16 174.528 236.16 174.528 236.16 174.528 
C 236.16 174.528 236.16 174.528 236.16 174.528 
C 236.16 174.528 236.16 174.528 236.16 174.528 
C 236.16 174.528 236.16 174.528 236.16 174.528 
C 236.16 174.528 236.16 174.528 236.16 174.528 
" clip-path="url(#p85c0e521b3)" style="fill: none; stroke: #b0b0b0; stroke-width: 0.8; stroke-linecap: square"/>
     </g>
    </g>
   </g>
   <g id="line2d_10">
    <path d="M 236.16 41.639077 
L 236.256411 41.889728 
L 236.256411 41.889728 
" clip-path="url(#p85c0e521b3)" style="fill: none; stroke: #1f78b4; stroke-width: 2; stroke-linecap: square"/>
   </g>
   <g id="line2d_11">
    <path d="M 236.256411 41.889728 
L 236.394197 42.203169 
L 236.394197 42.203169 
" clip-path="url(#p85c0e521b3)" style="fill: none; stroke: #1f78b4; stroke-width: 2; stroke-linecap: square"/>
   </g>
   <g id="line2d_12">
    <path d="M 236.394197 42.203169 
L 238.533023 45.879657 
L 238.533023 45.879657 
" clip-path="url(#p85c0e521b3)" style="fill: none; stroke: #1f78b4; stroke-width: 2; stroke-linecap: square"/>
   </g>
   <g id="line2d_13">
    <path d="M 238.533023 45.879657 
L 240.950722 49.682374 
L 241.259764 50.139197 
L 241.259764 50.139197 
" clip-path="url(#p85c0e521b3)" style="fill: none; stroke: #1f78b4; stroke-width: 2; stroke-linecap: square"/>
   </g>
   <g id="line2d_14">
    <path d="M 241.259764 50.139197 
L 244.045982 53.798361 
L 245.547168 55.625835 
L 245.547168 55.625835 
" clip-path="url(#p85c0e521b3)" style="fill: none; stroke: #1f78b4; stroke-width: 2; stroke-linecap: square"/>
   </g>
   <g id="line2d_15">
    <path d="M 245.547168 55.625835 
L 249.19871 59.298997 
L 253.809622 63.610081 
L 258.200794 67.439281 
L 264.013716 72.153025 
L 268.251106 75.3557 
L 274.281953 79.61806 
L 277.985542 82.068184 
L 281.898217 84.505073 
L 285.944549 86.923095 
L 287.786981 87.95471 
L 299.88761 94.326703 
L 306.486289 97.346888 
L 313.916329 100.391069 
L 321.060427 102.98034 
L 327.375398 104.985838 
L 333.224002 106.607984 
L 334.406062 106.899936 
L 334.406062 106.899936 
" clip-path="url(#p85c0e521b3)" style="fill: none; stroke: #1f78b4; stroke-width: 2; stroke-linecap: square"/>
   </g>
   <g id="line2d_16">
    <path d="M 334.406062 106.899936 
L 338.852973 107.582618 
L 341.301799 107.866288 
L 341.301799 107.866288 
" clip-path="url(#p85c0e521b3)" style="fill: none; stroke: #1f78b4; stroke-width: 2; stroke-linecap: square"/>
   </g>
   <g id="line2d_17">
    <path d="M 341.301799 107.866288 
L 345.980416 108.088288 
L 346.354151 108.095505 
L 346.354151 108.095505 
" clip-path="url(#p85c0e521b3)" style="fill: none; stroke: #1f78b4; stroke-width: 2; stroke-linecap: square"/>
   </g>
   <g id="line2d_18">
    <path d="M 346.354151 108.095505 
L 350.607502 108.107485 
L 350.607502 108.107485 
" clip-path="url(#p85c0e521b3)" style="fill: none; stroke: #1f78b4; stroke-width: 2; stroke-linecap: square"/>
   </g>
   <g id="line2d_19">
    <path d="M 350.607502 108.107485 
L 350.947826 108.069925 
L 350.947826 108.069925 
" clip-path="url(#p85c0e521b3)" style="fill: none; stroke: #1f78b4; stroke-width: 2; stroke-linecap: square"/>
   </g>
   <g id="line2d_20">
    <path d="M 350.947826 108.069925 
L 351.389876 108 
L 351.389876 108 
" clip-path="url(#p85c0e521b3)" style="fill: none; stroke: #1f78b4; stroke-width: 2; stroke-linecap: square"/>
   </g>
   <g id="line2d_21">
    <path d="M 236.16 41.639077 
L 236.250657 41.889724 
L 236.250657 41.889724 
" clip-path="url(#p85c0e521b3)" style="fill: none; stroke: #1f78b4; stroke-width: 2; stroke-linecap: square"/>
   </g>
   <g id="line2d_22">
    <path d="M 236.250657 41.889724 
L 236.379917 42.203145 
L 236.379917 42.203145 
" clip-path="url(#p85c0e521b3)" style="fill: none; stroke: #1f78b4; stroke-width: 2; stroke-linecap: square"/>
   </g>
   <g id="line2d_23">
    <path d="M 236.379917 42.203145 
L 238.370401 45.87676 
L 238.370401 45.87676 
" clip-path="url(#p85c0e521b3)" style="fill: none; stroke: #1f78b4; stroke-width: 2; stroke-linecap: square"/>
   </g>
   <g id="line2d_24">
    <path d="M 238.370401 45.87676 
L 240.727521 49.860494 
L 240.893547 50.124723 
L 240.893547 50.124723 
" clip-path="url(#p85c0e521b3)" style="fill: none; stroke: #1f78b4; stroke-width: 2; stroke-linecap: square"/>
   </g>
   <g id="line2d_25">
    <path d="M 240.893547 50.124723 
L 243.607575 53.989177 
L 244.798454 55.569096 
L 244.798454 55.569096 
" clip-path="url(#p85c0e521b3)" style="fill: none; stroke: #1f78b4; stroke-width: 2; stroke-linecap: square"/>
   </g>
   <g id="line2d_26">
    <path d="M 244.798454 55.569096 
L 248.383709 59.566195 
L 253.123148 64.480861 
L 257.719748 68.923574 
L 263.554826 74.173026 
L 268.071264 77.97011 
L 271.532611 80.718743 
L 277.833804 85.461369 
L 283.299821 89.275349 
L 290.02222 93.641805 
L 296.103398 97.315431 
L 304.808679 102.091787 
L 315.486566 107.244093 
L 322.617551 110.272997 
L 328.173366 112.412111 
L 334.690957 114.669124 
L 340.296216 116.377399 
L 340.296216 116.377399 
" clip-path="url(#p85c0e521b3)" style="fill: none; stroke: #1f78b4; stroke-width: 2; stroke-linecap: square"/>
   </g>
   <g id="line2d_27">
    <path d="M 340.296216 116.377399 
L 344.834174 117.277539 
L 346.881339 117.612564 
L 346.881339 117.612564 
" clip-path="url(#p85c0e521b3)" style="fill: none; stroke: #1f78b4; stroke-width: 2; stroke-linecap: square"/>
   </g>
   <g id="line2d_28">
    <path d="M 346.881339 117.612564 
L 351.661071 118.091728 
L 351.797851 118.101812 
L 351.797851 118.101812 
" clip-path="url(#p85c0e521b3)" style="fill: none; stroke: #1f78b4; stroke-width: 2; stroke-linecap: square"/>
   </g>
   <g id="line2d_29">
    <path d="M 351.797851 118.101812 
L 355.968606 118.351373 
L 355.968606 118.351373 
" clip-path="url(#p85c0e521b3)" style="fill: none; stroke: #1f78b4; stroke-width: 2; stroke-linecap: square"/>
   </g>
   <g id="line2d_30">
    <path d="M 355.968606 118.351373 
L 356.307283 118.335911 
L 356.307283 118.335911 
" clip-path="url(#p85c0e521b3)" style="fill: none; stroke: #1f78b4; stroke-width: 2; stroke-linecap: square"/>
   </g>
   <g id="line2d_31">
    <path d="M 356.307283 118.335911 
L 356.749689 118.296105 
L 356.749689 118.296105 
" clip-path="url(#p85c0e521b3)" style="fill: none; stroke: #1f78b4; stroke-width: 2; stroke-linecap: square"/>
   </g>
   <g id="line2d_32">
    <path d="M 236.16 41.639077 
L 236.244978 41.88972 
L 236.244978 41.88972 
" clip-path="url(#p85c0e521b3)" style="fill: none; stroke: #1f78b4; stroke-width: 2; stroke-linecap: square"/>
   </g>
   <g id="line2d_33">
    <path d="M 236.244978 41.88972 
L 236.365882 42.203122 
L 236.365882 42.203122 
" clip-path="url(#p85c0e521b3)" style="fill: none; stroke: #1f78b4; stroke-width: 2; stroke-linecap: square"/>
   </g>
   <g id="line2d_34">
    <path d="M 236.365882 42.203122 
L 238.21426 45.874173 
L 238.21426 45.874173 
" clip-path="url(#p85c0e521b3)" style="fill: none; stroke: #1f78b4; stroke-width: 2; stroke-linecap: square"/>
   </g>
   <g id="line2d_35">
    <path d="M 238.21426 45.874173 
L 240.505828 50.043494 
L 240.545512 50.111968 
L 240.545512 50.111968 
" clip-path="url(#p85c0e521b3)" style="fill: none; stroke: #1f78b4; stroke-width: 2; stroke-linecap: square"/>
   </g>
   <g id="line2d_36">
    <path d="M 240.545512 50.111968 
L 243.199339 54.212759 
L 244.10541 55.520797 
L 244.10541 55.520797 
" clip-path="url(#p85c0e521b3)" style="fill: none; stroke: #1f78b4; stroke-width: 2; stroke-linecap: square"/>
   </g>
   <g id="line2d_37">
    <path d="M 244.10541 55.520797 
L 247.623353 59.85405 
L 252.034335 64.922479 
L 256.730169 69.967269 
L 261.235853 74.513187 
L 267.368321 80.293447 
L 273.706677 85.832053 
L 280.182827 91.071689 
L 289.815414 98.195638 
L 302.079659 106.173315 
L 310.705095 111.162118 
L 317.19577 114.580913 
L 323.68351 117.730977 
L 329.020119 120.124346 
L 335.182317 122.673011 
L 341.786471 125.139126 
L 345.252184 126.312451 
L 345.252184 126.312451 
" clip-path="url(#p85c0e521b3)" style="fill: none; stroke: #1f78b4; stroke-width: 2; stroke-linecap: square"/>
   </g>
   <g id="line2d_38">
    <path d="M 345.252184 126.312451 
L 349.8928 127.451759 
L 351.553015 127.805051 
L 351.553015 127.805051 
" clip-path="url(#p85c0e521b3)" style="fill: none; stroke: #1f78b4; stroke-width: 2; stroke-linecap: square"/>
   </g>
   <g id="line2d_39">
    <path d="M 351.553015 127.805051 
L 356.332889 128.544264 
L 356.332889 128.544264 
" clip-path="url(#p85c0e521b3)" style="fill: none; stroke: #1f78b4; stroke-width: 2; stroke-linecap: square"/>
   </g>
   <g id="line2d_40">
    <path d="M 356.332889 128.544264 
L 360.414935 129.023861 
L 360.414935 129.023861 
" clip-path="url(#p85c0e521b3)" style="fill: none; stroke: #1f78b4; stroke-width: 2; stroke-linecap: square"/>
   </g>
   <g id="line2d_41">
    <path d="M 360.414935 129.023861 
L 360.750792 129.03014 
L 360.750792 129.03014 
" clip-path="url(#p85c0e521b3)" style="fill: none; stroke: #1f78b4; stroke-width: 2; stroke-linecap: square"/>
   </g>
   <g id="line2d_42">
    <path d="M 360.750792 129.03014 
L 361.191741 129.020168 
L 361.191741 129.020168 
" clip-path="url(#p85c0e521b3)" style="fill: none; stroke: #1f78b4; stroke-width: 2; stroke-linecap: square"/>
   </g>
   <g id="line2d_43">
    <path d="M 236.16 41.639077 
L 236.239335 41.889716 
L 236.239335 41.889716 
" clip-path="url(#p85c0e521b3)" style="fill: none; stroke: #1f78b4; stroke-width: 2; stroke-linecap: square"/>
   </g>
   <g id="line2d_44">
    <path d="M 236.239335 41.889716 
L 236.351985 42.203101 
L 236.351985 42.203101 
" clip-path="url(#p85c0e521b3)" style="fill: none; stroke: #1f78b4; stroke-width: 2; stroke-linecap: square"/>
   </g>
   <g id="line2d_45">
    <path d="M 236.351985 42.203101 
L 238.062882 45.871845 
L 238.062882 45.871845 
" clip-path="url(#p85c0e521b3)" style="fill: none; stroke: #1f78b4; stroke-width: 2; stroke-linecap: square"/>
   </g>
   <g id="line2d_46">
    <path d="M 238.062882 45.871845 
L 240.211124 50.100631 
L 240.211124 50.100631 
" clip-path="url(#p85c0e521b3)" style="fill: none; stroke: #1f78b4; stroke-width: 2; stroke-linecap: square"/>
   </g>
   <g id="line2d_47">
    <path d="M 240.211124 50.100631 
L 242.784445 54.424082 
L 243.454067 55.479101 
L 243.454067 55.479101 
" clip-path="url(#p85c0e521b3)" style="fill: none; stroke: #1f78b4; stroke-width: 2; stroke-linecap: square"/>
   </g>
   <g id="line2d_48">
    <path d="M 243.454067 55.479101 
L 246.864943 60.114999 
L 251.627539 66.14788 
L 255.534686 70.784391 
L 261.602953 77.519012 
L 267.331902 83.435756 
L 272.912455 88.813246 
L 281.653457 96.567115 
L 285.170438 99.283298 
L 288.531072 102.155865 
L 290.129499 103.444839 
L 292.730195 105.348449 
L 296.368621 107.862558 
L 299.895858 110.5679 
L 301.109168 111.405867 
L 305.211141 114.118687 
L 312.554205 118.742503 
L 318.843368 122.397076 
L 326.04328 126.274398 
L 332.247977 129.365119 
L 339.100178 132.507989 
L 345.085334 135.018562 
L 349.249508 136.625401 
L 349.249508 136.625401 
" clip-path="url(#p85c0e521b3)" style="fill: none; stroke: #1f78b4; stroke-width: 2; stroke-linecap: square"/>
   </g>
   <g id="line2d_49">
    <path d="M 349.249508 136.625401 
L 353.97824 138.018257 
L 355.284737 138.363394 
L 355.284737 138.363394 
" clip-path="url(#p85c0e521b3)" style="fill: none; stroke: #1f78b4; stroke-width: 2; stroke-linecap: square"/>
   </g>
   <g id="line2d_50">
    <path d="M 355.284737 138.363394 
L 359.925827 139.342101 
L 359.925827 139.342101 
" clip-path="url(#p85c0e521b3)" style="fill: none; stroke: #1f78b4; stroke-width: 2; stroke-linecap: square"/>
   </g>
   <g id="line2d_51">
    <path d="M 359.925827 139.342101 
L 363.912652 140.043576 
L 363.912652 140.043576 
" clip-path="url(#p85c0e521b3)" style="fill: none; stroke: #1f78b4; stroke-width: 2; stroke-linecap: square"/>
   </g>
   <g id="line2d_52">
    <path d="M 363.912652 140.043576 
L 364.244526 140.071146 
L 364.244526 140.071146 
" clip-path="url(#p85c0e521b3)" style="fill: none; stroke: #1f78b4; stroke-width: 2; stroke-linecap: square"/>
   </g>
   <g id="line2d_53">
    <path d="M 364.244526 140.071146 
L 364.682227 140.090573 
L 364.682227 140.090573 
" clip-path="url(#p85c0e521b3)" style="fill: none; stroke: #1f78b4; stroke-width: 2; stroke-linecap: square"/>
   </g>
   <g id="patch_3">
    <path d="M 236.16 41.472 
C 218.687246 41.472 201.384393 44.913752 185.241673 51.600285 
C 169.098954 58.286818 154.430303 68.088097 142.0752 80.4432 
C 129.720097 92.798303 119.918818 107.466954 113.232285 123.609673 
C 106.545752 139.752393 103.104 157.055246 103.104 174.528 
C 103.104 192.000754 106.545752 209.303607 113.232285 225.446327 
C 119.918818 241.589046 129.720097 256.257697 142.0752 268.6128 
C 154.430303 280.967903 169.098954 290.769182 185.241673 297.455715 
C 201.384393 304.142248 218.687246 307.584 236.16 307.584 
C 253.632754 307.584 270.935607 304.142248 287.078327 297.455715 
C 303.221046 290.769182 317.889697 280.967903 330.2448 268.6128 
C 342.599903 256.257697 352.401182 241.589046 359.087715 225.446327 
C 365.774248 209.303607 369.216 192.000754 369.216 174.528 
C 369.216 157.055246 365.774248 139.752393 359.087715 123.609673 
C 352.401182 107.466954 342.599903 92.798303 330.2448 80.4432 
C 317.889697 68.088097 303.221046 58.286818 287.078327 51.600285 
C 270.935607 44.913752 253.632754 41.472 236.16 41.472 
" style="fill: none; stroke: #000000; stroke-width: 0.8; stroke-linejoin: miter; stroke-linecap: square"/>
   </g>
   <g id="patch_4">
    <path d="M 351.963775 107.668659 
Q 351.676826 107.83433 352.615386 107.292451 
" style="fill: none; stroke: #c95241; stroke-width: 1.5; stroke-linecap: round"/>
    <path d="M 362.043589 107.622578 
L 352.615386 107.292451 
L 357.043589 98.962324 
z
" style="fill: #c95241; stroke: #c95241; stroke-width: 1.5; stroke-linecap: round"/>
   </g>
   <g id="patch_5">
    <path d="M 352.542175 107.33472 
Q 351.966026 107.66736 352.652314 107.271131 
" style="fill: none; stroke: #4c4c4c; stroke-width: 1.5; stroke-linecap: round"/>
    <path d="M 364.312568 107.467283 
L 352.652314 107.271131 
L 358.312568 97.074979 
L 364.312568 107.467283 
z
" style="fill: none; stroke: #4c4c4c; stroke-width: 1.5; stroke-linecap: round"/>
   </g>
   <g id="text_1">
    <!-- P -->
    <g transform="translate(362.912864 99.267513) scale(0.1 -0.1)">
     <defs>
      <path id="DejaVuSans-50" d="M 1259 4147 
L 1259 2394 
L 2053 2394 
Q 2494 2394 2734 2622 
Q 2975 2850 2975 3272 
Q 2975 3691 2734 3919 
Q 2494 4147 2053 4147 
L 1259 4147 
z
M 628 4666 
L 2053 4666 
Q 2838 4666 3239 4311 
Q 3641 3956 3641 3272 
Q 3641 2581 3239 2228 
Q 2838 1875 2053 1875 
L 1259 1875 
L 1259 0 
L 628 0 
L 628 4666 
z
" transform="scale(0.015625)"/>
     </defs>
     <use xlink:href="#DejaVuSans-50"/>
    </g>
   </g>
   <g id="patch_6">
    <path d="M 357.350282 118.016043 
Q 357.049986 118.156074 358.032202 117.698059 
" style="fill: none; stroke: #c95241; stroke-width: 1.5; stroke-linecap: round"/>
    <path d="M 367.395756 118.848652 
L 358.032202 117.698059 
L 363.169573 109.785574 
z
" style="fill: #c95241; stroke: #c95241; stroke-width: 1.5; stroke-linecap: round"/>
   </g>
   <g id="patch_7">
    <path d="M 357.955586 117.733786 
Q 357.352637 118.014945 358.070848 117.680038 
" style="fill: none; stroke: #4c4c4c; stroke-width: 1.5; stroke-linecap: round"/>
    <path d="M 369.669636 118.891702 
L 358.070848 117.680038 
L 364.598216 108.016009 
L 369.669636 118.891702 
z
" style="fill: none; stroke: #4c4c4c; stroke-width: 1.5; stroke-linecap: round"/>
   </g>
   <g id="text_2">
    <!-- P -->
    <g transform="translate(368.808658 110.593228) scale(0.1 -0.1)">
     <use xlink:href="#DejaVuSans-50"/>
    </g>
   </g>
   <g id="patch_8">
    <path d="M 361.814458 128.793517 
Q 361.5031 128.906843 362.521498 128.536176 
" style="fill: none; stroke: #c95241; stroke-width: 1.5; stroke-linecap: round"/>
    <path d="M 371.749139 130.498478 
L 362.521498 128.536176 
L 368.328938 121.101552 
z
" style="fill: #c95241; stroke: #c95241; stroke-width: 1.5; stroke-linecap: round"/>
   </g>
   <g id="patch_9">
    <path d="M 362.442059 128.565089 
Q 361.8169 128.792629 362.561567 128.521592 
" style="fill: none; stroke: #4c4c4c; stroke-width: 1.5; stroke-linecap: round"/>
    <path d="M 374.010614 130.739546 
L 362.561567 128.521592 
L 369.906372 119.463235 
L 374.010614 130.739546 
z
" style="fill: none; stroke: #4c4c4c; stroke-width: 1.5; stroke-linecap: round"/>
   </g>
   <g id="text_3">
    <!-- P -->
    <g transform="translate(373.694915 122.389697) scale(0.1 -0.1)">
     <use xlink:href="#DejaVuSans-50"/>
    </g>
   </g>
   <g id="patch_10">
    <path d="M 365.322328 139.919059 
Q 365.002277 140.004816 366.049106 139.724319 
" style="fill: none; stroke: #c95241; stroke-width: 1.5; stroke-linecap: round"/>
    <path d="M 375.070607 142.483396 
L 366.049106 139.724319 
L 372.482417 132.824138 
z
" style="fill: #c95241; stroke: #c95241; stroke-width: 1.5; stroke-linecap: round"/>
   </g>
   <g id="patch_11">
    <path d="M 365.967449 139.746199 
Q 365.324838 139.918386 366.090293 139.713283 
" style="fill: none; stroke: #4c4c4c; stroke-width: 1.5; stroke-linecap: round"/>
    <path d="M 377.302466 142.920647 
L 366.090293 139.713283 
L 374.196637 131.329537 
L 377.302466 142.920647 
z
" style="fill: none; stroke: #4c4c4c; stroke-width: 1.5; stroke-linecap: round"/>
   </g>
   <g id="text_4">
    <!-- P -->
    <g transform="translate(377.534449 134.567143) scale(0.1 -0.1)">
     <use xlink:href="#DejaVuSans-50"/>
    </g>
   </g>
   <g id="line2d_54">
    <path d="M 236.16 41.639077 
" style="fill: none; stroke: #fef215; stroke-width: 1.5; stroke-linecap: square"/>
    <defs>
     <path id="mc434543775" d="M 0 -10 
L -2.24514 -3.09017 
L -9.510565 -3.09017 
L -3.632713 1.18034 
L -5.877853 8.09017 
L -0 3.81966 
L 5.877853 8.09017 
L 3.632713 1.18034 
L 9.510565 -3.09017 
L 2.24514 -3.09017 
z
" style="stroke: #4c4c4c; stroke-width: 1.5; stroke-linejoin: bevel"/>
    </defs>
    <g>
     <use xlink:href="#mc434543775" x="236.16" y="41.639077" style="fill: #fef215; stroke: #4c4c4c; stroke-width: 1.5; stroke-linejoin: bevel"/>
    </g>
   </g>
   <g id="line2d_55">
    <path d="M 236.16 41.639077 
" style="fill: none; stroke: #fef215; stroke-width: 1.5; stroke-linecap: square"/>
    <g>
     <use xlink:href="#mc434543775" x="236.16" y="41.639077" style="fill: #fef215; stroke: #4c4c4c; stroke-width: 1.5; stroke-linejoin: bevel"/>
    </g>
   </g>
   <g id="line2d_56">
    <path d="M 236.16 41.639077 
" style="fill: none; stroke: #fef215; stroke-width: 1.5; stroke-linecap: square"/>
    <g>
     <use xlink:href="#mc434543775" x="236.16" y="41.639077" style="fill: #fef215; stroke: #4c4c4c; stroke-width: 1.5; stroke-linejoin: bevel"/>
    </g>
   </g>
   <g id="line2d_57">
    <path d="M 236.16 41.639077 
" style="fill: none; stroke: #fef215; stroke-width: 1.5; stroke-linecap: square"/>
    <g>
     <use xlink:href="#mc434543775" x="236.16" y="41.639077" style="fill: #fef215; stroke: #4c4c4c; stroke-width: 1.5; stroke-linejoin: bevel"/>
    </g>
   </g>
  </g>
 </g>
 <defs>
  <clipPath id="p85c0e521b3">
   <path d="M 369.216 174.528 
C 369.216 157.055246 365.774248 139.752393 359.087715 123.609673 
C 352.401182 107.466954 342.599903 92.798303 330.2448 80.4432 
C 317.889697 68.088097 303.221046 58.286818 287.078327 51.600285 
C 270.935607 44.913752 253.632754 41.472 236.16 41.472 
C 218.687246 41.472 201.384393 44.913752 185.241673 51.600285 
C 169.098954 58.286818 154.430303 68.088097 142.0752 80.4432 
C 129.720097 92.798303 119.918818 107.466954 113.232285 123.609673 
C 106.545752 139.752393 103.104 157.055246 103.104 174.528 
C 103.104 192.000754 106.545752 209.303607 113.232285 225.446327 
C 119.918818 241.589046 129.720097 256.257697 142.0752 268.6128 
C 154.430303 280.967903 169.098954 290.769182 185.241673 297.455715 
C 201.384393 304.142248 218.687246 307.584 236.16 307.584 
C 253.632754 307.584 270.935607 304.142248 287.078327 297.455715 
C 303.221046 290.769182 317.889697 280.967903 330.2448 268.6128 
C 342.599903 256.257697 352.401182 241.589046 359.087715 225.446327 
C 365.774248 209.303607 369.216 192.000754 369.216 174.528 
M 236.16 174.528 
C 236.16 174.528 236.16 174.528 236.16 174.528 
C 236.16 174.528 236.16 174.528 236.16 174.528 
C 236.16 174.528 236.16 174.528 236.16 174.528 
C 236.16 174.528 236.16 174.528 236.16 174.528 
C 236.16 174.528 236.16 174.528 236.16 174.528 
C 236.16 174.528 236.16 174.528 236.16 174.528 
C 236.16 174.528 236.16 174.528 236.16 174.528 
C 236.16 174.528 236.16 174.528 236.16 174.528 
C 236.16 174.528 236.16 174.528 236.16 174.528 
C 236.16 174.528 236.16 174.528 236.16 174.528 
C 236.16 174.528 236.16 174.528 236.16 174.528 
C 236.16 174.528 236.16 174.528 236.16 174.528 
C 236.16 174.528 236.16 174.528 236.16 174.528 
C 236.16 174.528 236.16 174.528 236.16 174.528 
C 236.16 174.528 236.16 174.528 236.16 174.528 
C 236.16 174.528 236.16 174.528 236.16 174.528 
z
"/>
  </clipPath>
 </defs>
</svg>
