<?xml version="1.0" encoding="utf-8" standalone="no"?>
<!DOCTYPE svg PUBLIC "-//W3C//DTD SVG 1.1//EN"
  "http://www.w3.org/Graphics/SVG/1.1/DTD/svg11.dtd">
<svg xmlns:xlink="http://www.w3.org/1999/xlink" width="460.8pt" height="345.6pt" viewBox="0 0 460.8 345.6" xmlns="http://www.w3.org/2000/svg" version="1.1">
 <metadata>
  <rdf:RDF xmlns:dc="http://purl.org/dc/elements/1.1/" xmlns:cc="http://creativecommons.org/ns#" xmlns:rdf="http://www.w3.org/1999/02/22-rdf-syntax-ns#">
   <cc:Work>
    <dc:type rdf:resource="http://purl.org/dc/dcmitype/StillImage"/>
    <dc:date>2023-10-31T00:51:49.420466</dc:date>
    <dc:format>image/svg+xml</dc:format>
    <dc:creator>
     <cc:Agent>
      <dc:title>Matplotlib v3.7.1, https://matplotlib.org/</dc:title>
     </cc:Agent>
    </dc:creator>
   </cc:Work>
  </rdf:RDF>
 </metadata>
 <defs>
  <style type="text/css">*{stroke-linejoin: round; stroke-linecap: butt}</style>
 </defs>
 <g id="figure_1">
  <g id="patch_1">
   <path d="M 0 345.6 
L 460.8 345.6 
L 460.8 0 
L 0 0 
z
" style="fill: #ffffff"/>
  </g>
  <g id="axes_1">
   <g id="patch_2">
    <path d="M 57.6 307.584 
L 414.72 307.584 
L 414.72 41.472 
L 57.6 41.472 
z
" style="fill: #ffffff"/>
   </g>
   <g id="matplotlib.axis_1">
    <g id="xtick_1">
     <g id="line2d_1">
      <defs>
       <path id="mc4b1c8c4c0" d="M 0 0 
L 0 3.5 
" style="stroke: #000000; stroke-width: 0.8"/>
      </defs>
      <g>
       <use xlink:href="#mc4b1c8c4c0" x="73.832727" y="307.584" style="stroke: #000000; stroke-width: 0.8"/>
      </g>
     </g>
     <g id="text_1">
      <!-- 0 -->
      <g transform="translate(70.651477 322.182437) scale(0.1 -0.1)">
       <defs>
        <path id="DejaVuSans-30" d="M 2034 4250 
Q 1547 4250 1301 3770 
Q 1056 3291 1056 2328 
Q 1056 1369 1301 889 
Q 1547 409 2034 409 
Q 2525 409 2770 889 
Q 3016 1369 3016 2328 
Q 3016 3291 2770 3770 
Q 2525 4250 2034 4250 
z
M 2034 4750 
Q 2819 4750 3233 4129 
Q 3647 3509 3647 2328 
Q 3647 1150 3233 529 
Q 2819 -91 2034 -91 
Q 1250 -91 836 529 
Q 422 1150 422 2328 
Q 422 3509 836 4129 
Q 1250 4750 2034 4750 
z
" transform="scale(0.015625)"/>
       </defs>
       <use xlink:href="#DejaVuSans-30"/>
      </g>
     </g>
    </g>
    <g id="xtick_2">
     <g id="line2d_2">
      <g>
       <use xlink:href="#mc4b1c8c4c0" x="114.434847" y="307.584" style="stroke: #000000; stroke-width: 0.8"/>
      </g>
     </g>
     <g id="text_2">
      <!-- 25 -->
      <g transform="translate(108.072347 322.182437) scale(0.1 -0.1)">
       <defs>
        <path id="DejaVuSans-32" d="M 1228 531 
L 3431 531 
L 3431 0 
L 469 0 
L 469 531 
Q 828 903 1448 1529 
Q 2069 2156 2228 2338 
Q 2531 2678 2651 2914 
Q 2772 3150 2772 3378 
Q 2772 3750 2511 3984 
Q 2250 4219 1831 4219 
Q 1534 4219 1204 4116 
Q 875 4013 500 3803 
L 500 4441 
Q 881 4594 1212 4672 
Q 1544 4750 1819 4750 
Q 2544 4750 2975 4387 
Q 3406 4025 3406 3419 
Q 3406 3131 3298 2873 
Q 3191 2616 2906 2266 
Q 2828 2175 2409 1742 
Q 1991 1309 1228 531 
z
" transform="scale(0.015625)"/>
        <path id="DejaVuSans-35" d="M 691 4666 
L 3169 4666 
L 3169 4134 
L 1269 4134 
L 1269 2991 
Q 1406 3038 1543 3061 
Q 1681 3084 1819 3084 
Q 2600 3084 3056 2656 
Q 3513 2228 3513 1497 
Q 3513 744 3044 326 
Q 2575 -91 1722 -91 
Q 1428 -91 1123 -41 
Q 819 9 494 109 
L 494 744 
Q 775 591 1075 516 
Q 1375 441 1709 441 
Q 2250 441 2565 725 
Q 2881 1009 2881 1497 
Q 2881 1984 2565 2268 
Q 2250 2553 1709 2553 
Q 1456 2553 1204 2497 
Q 953 2441 691 2322 
L 691 4666 
z
" transform="scale(0.015625)"/>
       </defs>
       <use xlink:href="#DejaVuSans-32"/>
       <use xlink:href="#DejaVuSans-35" x="63.623047"/>
      </g>
     </g>
    </g>
    <g id="xtick_3">
     <g id="line2d_3">
      <g>
       <use xlink:href="#mc4b1c8c4c0" x="155.036966" y="307.584" style="stroke: #000000; stroke-width: 0.8"/>
      </g>
     </g>
     <g id="text_3">
      <!-- 50 -->
      <g transform="translate(148.674466 322.182437) scale(0.1 -0.1)">
       <use xlink:href="#DejaVuSans-35"/>
       <use xlink:href="#DejaVuSans-30" x="63.623047"/>
      </g>
     </g>
    </g>
    <g id="xtick_4">
     <g id="line2d_4">
      <g>
       <use xlink:href="#mc4b1c8c4c0" x="195.639085" y="307.584" style="stroke: #000000; stroke-width: 0.8"/>
      </g>
     </g>
     <g id="text_4">
      <!-- 75 -->
      <g transform="translate(189.276585 322.182437) scale(0.1 -0.1)">
       <defs>
        <path id="DejaVuSans-37" d="M 525 4666 
L 3525 4666 
L 3525 4397 
L 1831 0 
L 1172 0 
L 2766 4134 
L 525 4134 
L 525 4666 
z
" transform="scale(0.015625)"/>
       </defs>
       <use xlink:href="#DejaVuSans-37"/>
       <use xlink:href="#DejaVuSans-35" x="63.623047"/>
      </g>
     </g>
    </g>
    <g id="xtick_5">
     <g id="line2d_5">
      <g>
       <use xlink:href="#mc4b1c8c4c0" x="236.241204" y="307.584" style="stroke: #000000; stroke-width: 0.8"/>
      </g>
     </g>
     <g id="text_5">
      <!-- 100 -->
      <g transform="translate(226.697454 322.182437) scale(0.1 -0.1)">
       <defs>
        <path id="DejaVuSans-31" d="M 794 531 
L 1825 531 
L 1825 4091 
L 703 3866 
L 703 4441 
L 1819 4666 
L 2450 4666 
L 2450 531 
L 3481 531 
L 3481 0 
L 794 0 
L 794 531 
z
" transform="scale(0.015625)"/>
       </defs>
       <use xlink:href="#DejaVuSans-31"/>
       <use xlink:href="#DejaVuSans-30" x="63.623047"/>
       <use xlink:href="#DejaVuSans-30" x="127.246094"/>
      </g>
     </g>
    </g>
    <g id="xtick_6">
     <g id="line2d_6">
      <g>
       <use xlink:href="#mc4b1c8c4c0" x="276.843323" y="307.584" style="stroke: #000000; stroke-width: 0.8"/>
      </g>
     </g>
     <g id="text_6">
      <!-- 125 -->
      <g transform="translate(267.299573 322.182437) scale(0.1 -0.1)">
       <use xlink:href="#DejaVuSans-31"/>
       <use xlink:href="#DejaVuSans-32" x="63.623047"/>
       <use xlink:href="#DejaVuSans-35" x="127.246094"/>
      </g>
     </g>
    </g>
    <g id="xtick_7">
     <g id="line2d_7">
      <g>
       <use xlink:href="#mc4b1c8c4c0" x="317.445443" y="307.584" style="stroke: #000000; stroke-width: 0.8"/>
      </g>
     </g>
     <g id="text_7">
      <!-- 150 -->
      <g transform="translate(307.901693 322.182437) scale(0.1 -0.1)">
       <use xlink:href="#DejaVuSans-31"/>
       <use xlink:href="#DejaVuSans-35" x="63.623047"/>
       <use xlink:href="#DejaVuSans-30" x="127.246094"/>
      </g>
     </g>
    </g>
    <g id="xtick_8">
     <g id="line2d_8">
      <g>
       <use xlink:href="#mc4b1c8c4c0" x="358.047562" y="307.584" style="stroke: #000000; stroke-width: 0.8"/>
      </g>
     </g>
     <g id="text_8">
      <!-- 175 -->
      <g transform="translate(348.503812 322.182437) scale(0.1 -0.1)">
       <use xlink:href="#DejaVuSans-31"/>
       <use xlink:href="#DejaVuSans-37" x="63.623047"/>
       <use xlink:href="#DejaVuSans-35" x="127.246094"/>
      </g>
     </g>
    </g>
    <g id="xtick_9">
     <g id="line2d_9">
      <g>
       <use xlink:href="#mc4b1c8c4c0" x="398.649681" y="307.584" style="stroke: #000000; stroke-width: 0.8"/>
      </g>
     </g>
     <g id="text_9">
      <!-- 200 -->
      <g transform="translate(389.105931 322.182437) scale(0.1 -0.1)">
       <use xlink:href="#DejaVuSans-32"/>
       <use xlink:href="#DejaVuSans-30" x="63.623047"/>
       <use xlink:href="#DejaVuSans-30" x="127.246094"/>
      </g>
     </g>
    </g>
   </g>
   <g id="matplotlib.axis_2">
    <g id="ytick_1">
     <g id="line2d_10">
      <defs>
       <path id="mcd8b79e64d" d="M 0 0 
L -3.5 0 
" style="stroke: #000000; stroke-width: 0.8"/>
      </defs>
      <g>
       <use xlink:href="#mcd8b79e64d" x="57.6" y="284.597258" style="stroke: #000000; stroke-width: 0.8"/>
      </g>
     </g>
     <g id="text_10">
      <!-- −0.50 -->
      <g transform="translate(19.954687 288.396477) scale(0.1 -0.1)">
       <defs>
        <path id="DejaVuSans-2212" d="M 678 2272 
L 4684 2272 
L 4684 1741 
L 678 1741 
L 678 2272 
z
" transform="scale(0.015625)"/>
        <path id="DejaVuSans-2e" d="M 684 794 
L 1344 794 
L 1344 0 
L 684 0 
L 684 794 
z
" transform="scale(0.015625)"/>
       </defs>
       <use xlink:href="#DejaVuSans-2212"/>
       <use xlink:href="#DejaVuSans-30" x="83.789062"/>
       <use xlink:href="#DejaVuSans-2e" x="147.412109"/>
       <use xlink:href="#DejaVuSans-35" x="179.199219"/>
       <use xlink:href="#DejaVuSans-30" x="242.822266"/>
      </g>
     </g>
    </g>
    <g id="ytick_2">
     <g id="line2d_11">
      <g>
       <use xlink:href="#mcd8b79e64d" x="57.6" y="249.366204" style="stroke: #000000; stroke-width: 0.8"/>
      </g>
     </g>
     <g id="text_11">
      <!-- −0.25 -->
      <g transform="translate(19.954687 253.165423) scale(0.1 -0.1)">
       <use xlink:href="#DejaVuSans-2212"/>
       <use xlink:href="#DejaVuSans-30" x="83.789062"/>
       <use xlink:href="#DejaVuSans-2e" x="147.412109"/>
       <use xlink:href="#DejaVuSans-32" x="179.199219"/>
       <use xlink:href="#DejaVuSans-35" x="242.822266"/>
      </g>
     </g>
    </g>
    <g id="ytick_3">
     <g id="line2d_12">
      <g>
       <use xlink:href="#mcd8b79e64d" x="57.6" y="214.135151" style="stroke: #000000; stroke-width: 0.8"/>
      </g>
     </g>
     <g id="text_12">
      <!-- 0.00 -->
      <g transform="translate(28.334375 217.93437) scale(0.1 -0.1)">
       <use xlink:href="#DejaVuSans-30"/>
       <use xlink:href="#DejaVuSans-2e" x="63.623047"/>
       <use xlink:href="#DejaVuSans-30" x="95.410156"/>
       <use xlink:href="#DejaVuSans-30" x="159.033203"/>
      </g>
     </g>
    </g>
    <g id="ytick_4">
     <g id="line2d_13">
      <g>
       <use xlink:href="#mcd8b79e64d" x="57.6" y="178.904098" style="stroke: #000000; stroke-width: 0.8"/>
      </g>
     </g>
     <g id="text_13">
      <!-- 0.25 -->
      <g transform="translate(28.334375 182.703317) scale(0.1 -0.1)">
       <use xlink:href="#DejaVuSans-30"/>
       <use xlink:href="#DejaVuSans-2e" x="63.623047"/>
       <use xlink:href="#DejaVuSans-32" x="95.410156"/>
       <use xlink:href="#DejaVuSans-35" x="159.033203"/>
      </g>
     </g>
    </g>
    <g id="ytick_5">
     <g id="line2d_14">
      <g>
       <use xlink:href="#mcd8b79e64d" x="57.6" y="143.673044" style="stroke: #000000; stroke-width: 0.8"/>
      </g>
     </g>
     <g id="text_14">
      <!-- 0.50 -->
      <g transform="translate(28.334375 147.472263) scale(0.1 -0.1)">
       <use xlink:href="#DejaVuSans-30"/>
       <use xlink:href="#DejaVuSans-2e" x="63.623047"/>
       <use xlink:href="#DejaVuSans-35" x="95.410156"/>
       <use xlink:href="#DejaVuSans-30" x="159.033203"/>
      </g>
     </g>
    </g>
    <g id="ytick_6">
     <g id="line2d_15">
      <g>
       <use xlink:href="#mcd8b79e64d" x="57.6" y="108.441991" style="stroke: #000000; stroke-width: 0.8"/>
      </g>
     </g>
     <g id="text_15">
      <!-- 0.75 -->
      <g transform="translate(28.334375 112.24121) scale(0.1 -0.1)">
       <use xlink:href="#DejaVuSans-30"/>
       <use xlink:href="#DejaVuSans-2e" x="63.623047"/>
       <use xlink:href="#DejaVuSans-37" x="95.410156"/>
       <use xlink:href="#DejaVuSans-35" x="159.033203"/>
      </g>
     </g>
    </g>
    <g id="ytick_7">
     <g id="line2d_16">
      <g>
       <use xlink:href="#mcd8b79e64d" x="57.6" y="73.210938" style="stroke: #000000; stroke-width: 0.8"/>
      </g>
     </g>
     <g id="text_16">
      <!-- 1.00 -->
      <g transform="translate(28.334375 77.010157) scale(0.1 -0.1)">
       <use xlink:href="#DejaVuSans-31"/>
       <use xlink:href="#DejaVuSans-2e" x="63.623047"/>
       <use xlink:href="#DejaVuSans-30" x="95.410156"/>
       <use xlink:href="#DejaVuSans-30" x="159.033203"/>
      </g>
     </g>
    </g>
   </g>
   <g id="line2d_17">
    <path d="M 73.832727 220.61269 
L 73.995136 210.887438 
L 74.157544 215.205543 
L 74.319953 204.016546 
L 74.64477 222.937755 
L 74.807178 207.487614 
L 74.969587 213.890596 
L 75.131995 201.713886 
L 75.294404 230.294177 
L 75.456812 215.661102 
L 75.619221 214.816217 
L 75.781629 209.271001 
L 75.944037 217.783014 
L 76.268854 206.382846 
L 76.431263 221.71779 
L 76.593671 214.555103 
L 76.75608 219.635848 
L 76.918488 209.981957 
L 77.080897 219.222628 
L 77.243305 218.739582 
L 77.405714 211.467121 
L 77.568122 211.727455 
L 77.730531 223.663912 
L 77.892939 209.808673 
L 78.055348 218.387807 
L 78.380165 207.600304 
L 78.542573 212.093617 
L 78.704982 207.39642 
L 78.86739 209.185941 
L 79.192207 215.663978 
L 79.354615 215.342963 
L 79.517024 222.308274 
L 79.679432 220.386748 
L 79.841841 226.697059 
L 80.166658 214.29638 
L 80.329066 222.767728 
L 80.491475 210.080731 
L 80.653883 209.925957 
L 80.9787 214.646139 
L 81.303517 226.743901 
L 81.465926 207.3491 
L 81.628334 221.695156 
L 81.790743 209.840261 
L 81.953151 214.349929 
L 82.11556 207.566772 
L 82.277968 226.22259 
L 82.440377 217.216672 
L 82.602785 217.911265 
L 82.765194 220.739111 
L 82.927602 213.584446 
L 83.09001 214.957906 
L 83.252419 223.290255 
L 83.414827 224.279101 
L 83.577236 210.94677 
L 83.739644 213.965527 
L 83.902053 202.946527 
L 84.064461 221.239402 
L 84.22687 213.637487 
L 84.389278 226.949923 
L 84.551687 214.256312 
L 84.714095 217.313818 
L 84.876504 204.489193 
L 85.038912 210.007874 
L 85.201321 210.569213 
L 85.363729 203.611904 
L 85.526138 216.940472 
L 85.688546 198.958366 
L 85.850955 216.723106 
L 86.013363 217.382956 
L 86.175772 230.252132 
L 86.33818 217.748564 
L 86.500588 219.873179 
L 86.825405 207.887963 
L 86.987814 208.687611 
L 87.150222 207.693684 
L 87.312631 212.524769 
L 87.475039 212.319448 
L 87.637448 207.103498 
L 87.799856 215.872949 
L 87.962265 218.108543 
L 88.124673 214.859248 
L 88.287082 208.695173 
L 88.44949 211.486807 
L 88.611899 228.406954 
L 88.774307 210.935681 
L 88.936716 214.461409 
L 89.099124 209.663057 
L 89.261533 219.637608 
L 89.423941 221.12647 
L 89.58635 201.334279 
L 89.748758 201.418935 
L 89.911166 212.210091 
L 90.073575 212.884782 
L 90.235983 216.729999 
L 90.398392 212.318597 
L 90.5608 213.025725 
L 90.723209 218.23468 
L 90.885617 219.475403 
L 91.048026 209.066985 
L 91.210434 215.139362 
L 91.372843 211.119974 
L 91.69766 222.320591 
L 91.860068 221.591424 
L 92.022477 209.995589 
L 92.184885 211.406002 
L 92.347294 209.500098 
L 92.509702 211.935519 
L 92.672111 211.077184 
L 92.834519 212.947468 
L 92.996928 202.162125 
L 93.159336 214.557483 
L 93.321745 209.06515 
L 93.484153 211.120348 
L 93.646561 206.512732 
L 93.80897 218.742598 
L 93.971378 211.687165 
L 94.133787 219.717796 
L 94.296195 207.197776 
L 94.458604 210.64287 
L 94.621012 225.157083 
L 94.783421 223.751026 
L 94.945829 208.124988 
L 95.270646 219.678854 
L 95.595463 214.293602 
L 95.757872 213.4784 
L 95.92028 215.947995 
L 96.245097 207.174803 
L 96.407506 221.480789 
L 96.732323 211.818596 
L 96.894731 216.573272 
L 97.057139 213.672502 
L 97.219548 215.200692 
L 97.381956 202.993092 
L 97.544365 222.393181 
L 97.706773 215.697149 
L 97.869182 215.863082 
L 98.193999 207.416081 
L 98.518816 225.252146 
L 98.681224 217.360499 
L 98.843633 218.59118 
L 99.006041 216.485835 
L 99.16845 212.499686 
L 99.330858 214.80249 
L 99.493267 214.608349 
L 99.655675 218.222012 
L 99.818084 207.87308 
L 99.980492 209.90872 
L 100.142901 220.162641 
L 100.467717 204.052449 
L 100.630126 213.542174 
L 100.792534 215.961255 
L 100.954943 227.27688 
L 101.117351 206.522105 
L 101.442168 225.808598 
L 101.604577 212.491599 
L 101.766985 219.961494 
L 101.929394 220.851557 
L 102.254211 210.408364 
L 102.416619 222.798889 
L 102.579028 201.649527 
L 102.741436 224.923828 
L 102.903845 222.538619 
L 103.066253 212.196781 
L 103.228662 222.075095 
L 103.39107 209.842506 
L 103.553479 222.242816 
L 103.715887 210.2004 
L 104.040704 217.900424 
L 104.203112 218.345886 
L 104.527929 204.711355 
L 104.690338 216.013576 
L 104.852746 217.867973 
L 105.015155 216.655611 
L 105.177563 216.65353 
L 105.339972 218.779109 
L 105.50238 217.581374 
L 105.664789 218.760803 
L 105.827197 218.375723 
L 105.989606 211.847844 
L 106.314423 212.410298 
L 106.476831 219.070065 
L 106.801648 215.418499 
L 106.964057 218.551697 
L 107.126465 223.955115 
L 107.288874 222.696632 
L 107.451282 213.912467 
L 107.61369 222.553172 
L 107.776099 220.433191 
L 107.938507 211.973593 
L 108.100916 222.152395 
L 108.263324 209.092069 
L 108.425733 216.786223 
L 108.75055 211.317876 
L 108.912958 212.762364 
L 109.075367 208.172487 
L 109.237775 220.102618 
L 109.400184 205.870498 
L 109.562592 203.089914 
L 110.049818 217.956482 
L 110.212226 209.737326 
L 110.537043 220.997349 
L 110.699452 213.778541 
L 111.024268 216.840804 
L 111.186677 219.568867 
L 111.349085 215.604039 
L 111.511494 218.777224 
L 111.836311 215.36603 
L 111.998719 219.96534 
L 112.161128 216.467999 
L 112.323536 218.305415 
L 112.485945 208.014003 
L 112.648353 213.431479 
L 112.810762 214.372455 
L 113.135579 222.071716 
L 113.297987 211.685394 
L 113.460396 212.616793 
L 113.622804 199.802137 
L 113.785213 211.056796 
L 113.947621 206.65982 
L 114.11003 214.381753 
L 114.272438 227.514381 
L 114.434847 206.805051 
L 114.597255 207.89742 
L 114.759663 215.324154 
L 114.922072 211.691025 
L 115.08448 214.467199 
L 115.246889 222.175118 
L 115.409297 220.013531 
L 115.571706 209.524366 
L 115.734114 213.489625 
L 115.896523 210.478399 
L 116.058931 215.663779 
L 116.22134 203.977424 
L 116.383748 219.084043 
L 116.546157 208.035988 
L 116.708565 218.761689 
L 116.870974 210.449204 
L 117.033382 217.053075 
L 117.358199 211.23595 
L 117.683016 217.222698 
L 117.845425 217.060074 
L 118.007833 218.613543 
L 118.170241 213.893905 
L 118.33265 214.34756 
L 118.495058 207.588999 
L 118.657467 207.831015 
L 118.819875 209.160286 
L 118.982284 220.191165 
L 119.144692 204.836927 
L 119.307101 202.35116 
L 119.469509 209.867547 
L 119.631918 210.794579 
L 119.794326 217.164569 
L 119.956735 211.763579 
L 120.119143 213.91183 
L 120.44396 223.896686 
L 120.606369 211.33551 
L 120.931186 219.234826 
L 121.093594 224.452252 
L 121.256003 213.103688 
L 121.418411 213.754753 
L 121.58082 210.961007 
L 121.743228 215.664249 
L 121.905636 206.565767 
L 122.068045 216.113738 
L 122.230453 212.663051 
L 122.392862 215.517812 
L 122.55527 210.123437 
L 122.717679 211.140636 
L 122.880087 208.530286 
L 123.042496 219.255665 
L 123.204904 221.818408 
L 123.367313 205.309377 
L 123.529721 213.746495 
L 123.69213 211.972332 
L 123.854538 218.471627 
L 124.016947 217.907441 
L 124.179355 222.21416 
L 124.504172 205.198143 
L 124.666581 211.598369 
L 124.991398 203.555551 
L 125.153806 226.898425 
L 125.316214 210.657815 
L 125.641031 221.695278 
L 125.80344 221.663483 
L 125.965848 214.002035 
L 126.128257 218.757448 
L 126.290665 215.739897 
L 126.453074 202.918619 
L 126.777891 220.67924 
L 127.102708 206.168453 
L 127.265116 218.527704 
L 127.427525 221.827862 
L 127.589933 221.735782 
L 127.752342 195.247818 
L 127.91475 216.851937 
L 128.077159 219.138596 
L 128.239567 214.863457 
L 128.401976 217.038352 
L 128.564384 214.385469 
L 128.726792 207.707739 
L 128.889201 220.103416 
L 129.051609 221.455658 
L 129.376426 208.123258 
L 129.538835 212.065871 
L 129.701243 206.112503 
L 129.863652 217.996548 
L 130.02606 211.712766 
L 130.188469 216.473789 
L 130.350877 216.528319 
L 130.513286 220.18922 
L 130.675694 210.441296 
L 130.838103 215.11366 
L 131.000511 210.372567 
L 131.16292 212.367725 
L 131.325328 210.560171 
L 131.487737 216.032899 
L 131.650145 209.448579 
L 131.812554 212.512942 
L 131.974962 212.632429 
L 132.137371 221.036997 
L 132.299779 205.554325 
L 132.624596 224.148226 
L 132.787004 210.819138 
L 133.111821 225.837378 
L 133.27423 226.300124 
L 133.436638 218.889767 
L 133.599047 225.837426 
L 133.761455 227.005007 
L 133.923864 223.080361 
L 134.086272 232.410902 
L 134.248681 233.0663 
L 134.411089 236.085715 
L 134.573498 235.696582 
L 134.735906 239.878079 
L 134.898315 255.172224 
L 135.060723 258.203075 
L 135.223132 267.868794 
L 135.38554 264.15841 
L 135.547949 277.139392 
L 135.710357 280.307806 
L 135.872765 272.287466 
L 136.197582 284.435587 
L 136.359991 280.251388 
L 136.522399 286.213254 
L 136.847216 258.847256 
L 137.49685 191.187797 
L 137.659259 156.180745 
L 137.821667 148.126163 
L 137.984076 116.484558 
L 138.146484 112.107761 
L 138.308893 69.296719 
L 138.471301 69.857253 
L 138.63371 68.769362 
L 138.958527 55.821186 
L 139.120935 62.88745 
L 139.283343 82.825869 
L 139.445752 87.003384 
L 140.257794 189.5475 
L 140.420203 202.670757 
L 140.74502 247.087335 
L 141.394654 285.189421 
L 141.557062 278.390027 
L 141.719471 289.338581 
L 142.044288 273.308341 
L 142.206696 274.65067 
L 142.369105 281.234028 
L 142.693922 258.577297 
L 142.85633 247.093237 
L 143.018738 246.457506 
L 143.181147 242.481908 
L 143.343555 233.503782 
L 143.505964 247.818353 
L 143.668372 229.018428 
L 143.830781 227.848921 
L 144.155598 215.305499 
L 144.318006 217.944372 
L 144.480415 228.771692 
L 144.642823 215.94358 
L 144.805232 215.692768 
L 144.96764 218.036303 
L 145.130049 224.272098 
L 145.292457 214.28611 
L 145.454866 220.689741 
L 145.779683 205.41082 
L 145.942091 213.209257 
L 146.1045 213.522254 
L 146.266908 208.757017 
L 146.429316 218.0211 
L 146.591725 219.22577 
L 146.754133 222.944927 
L 147.07895 212.345592 
L 147.241359 202.477456 
L 147.566176 217.984062 
L 147.728584 213.876309 
L 147.890993 220.33609 
L 148.053401 219.285547 
L 148.21581 213.429143 
L 148.378218 218.905227 
L 148.703035 210.876928 
L 148.865444 220.438602 
L 149.027852 204.486924 
L 149.190261 224.058006 
L 149.352669 212.189347 
L 149.515078 214.95203 
L 149.677486 210.745156 
L 149.839894 212.100721 
L 150.002303 220.382198 
L 150.164711 215.247146 
L 150.32712 220.525722 
L 150.489528 208.48103 
L 150.651937 217.575926 
L 150.814345 209.796824 
L 151.139162 228.21776 
L 151.301571 210.873818 
L 151.626388 216.055054 
L 151.788796 207.665088 
L 151.951205 212.123178 
L 152.113613 207.734521 
L 152.276022 210.951659 
L 152.43843 205.629664 
L 152.600839 217.062495 
L 152.925656 205.859721 
L 153.088064 211.460693 
L 153.250473 206.639458 
L 153.575289 220.664081 
L 153.737698 215.705235 
L 153.900106 220.360044 
L 154.062515 210.720309 
L 154.224923 224.208431 
L 154.387332 213.710466 
L 154.712149 218.572844 
L 154.874557 217.476686 
L 155.036966 210.366414 
L 155.199374 210.732849 
L 155.361783 204.934296 
L 155.524191 224.906851 
L 155.6866 211.194061 
L 155.849008 228.344661 
L 156.011417 218.268833 
L 156.173825 218.733257 
L 156.336234 214.471466 
L 156.498642 226.985473 
L 156.661051 204.766385 
L 156.823459 221.60225 
L 156.985867 214.537951 
L 157.148276 222.759123 
L 157.310684 221.955693 
L 157.473093 212.071991 
L 157.635501 210.41141 
L 157.79791 214.635101 
L 157.960318 198.721942 
L 158.122727 212.444086 
L 158.285135 211.103033 
L 158.447544 213.045679 
L 158.609952 208.625252 
L 158.772361 222.855902 
L 158.934769 208.139293 
L 159.097178 214.640287 
L 159.421995 209.486361 
L 159.584403 209.876373 
L 159.746812 209.123095 
L 159.90922 221.447644 
L 160.234037 207.468871 
L 160.396445 214.987013 
L 160.558854 212.596555 
L 160.721262 208.212893 
L 160.883671 209.009043 
L 161.208488 211.708771 
L 161.370896 207.373593 
L 161.533305 224.878236 
L 161.858122 200.748976 
L 162.02053 218.285633 
L 162.345347 213.218342 
L 162.507756 205.670292 
L 162.670164 209.864168 
L 162.832573 228.996927 
L 162.994981 209.140488 
L 163.15739 221.852259 
L 163.319798 204.094791 
L 163.482207 218.906931 
L 163.644615 221.94512 
L 163.807024 218.212798 
L 163.969432 223.052511 
L 164.13184 211.089856 
L 164.294249 215.792348 
L 164.456657 197.022876 
L 164.619066 215.984369 
L 164.781474 215.140694 
L 164.943883 212.415285 
L 165.2687 219.799571 
L 165.431108 221.848971 
L 165.593517 225.344923 
L 165.755925 210.707324 
L 165.918334 222.555344 
L 166.080742 223.710195 
L 166.243151 219.200148 
L 166.405559 231.074328 
L 166.567968 223.628312 
L 166.730376 235.958085 
L 166.892785 234.502608 
L 167.055193 236.2433 
L 167.217602 252.540997 
L 167.38001 251.925247 
L 167.542418 250.798763 
L 167.704827 256.498777 
L 168.029644 274.758455 
L 168.192052 277.236943 
L 168.354461 276.655641 
L 168.516869 285.935425 
L 168.841686 270.531304 
L 169.004095 272.31852 
L 169.166503 265.248782 
L 169.49132 239.752419 
L 169.653729 226.367857 
L 170.790588 78.421303 
L 170.952996 71.824571 
L 171.115405 71.487998 
L 171.277813 59.673102 
L 171.440222 56.499314 
L 171.60263 60.333806 
L 173.551532 268.489213 
L 173.713941 267.875075 
L 173.876349 282.739476 
L 174.038758 282.330812 
L 174.201166 276.517007 
L 174.363575 278.821587 
L 174.525983 263.474265 
L 174.688391 263.104068 
L 174.8508 266.54703 
L 175.175617 261.148694 
L 175.338025 239.725172 
L 175.662842 246.332593 
L 175.987659 228.435342 
L 176.150068 235.513773 
L 176.312476 220.136226 
L 176.474885 229.624628 
L 176.637293 216.399023 
L 176.799702 220.160363 
L 176.96211 221.264024 
L 177.124519 225.85349 
L 177.286927 222.223781 
L 177.611744 211.619625 
L 177.774153 211.378055 
L 177.936561 222.651008 
L 178.098969 216.389404 
L 178.261378 216.136601 
L 178.423786 223.176874 
L 179.235829 206.148497 
L 179.398237 205.18579 
L 179.885463 219.465878 
L 180.047871 220.260563 
L 180.21028 223.270548 
L 180.372688 203.687943 
L 180.535097 214.737612 
L 180.859914 219.429749 
L 181.022322 208.202707 
L 181.347139 221.223287 
L 181.509548 208.614019 
L 181.671956 207.752119 
L 181.834364 204.66435 
L 182.159181 216.769198 
L 182.32159 214.616835 
L 182.483998 228.107161 
L 182.808815 206.782225 
L 182.971224 218.120598 
L 183.133632 214.828324 
L 183.296041 209.223884 
L 183.458449 214.348799 
L 183.783266 207.677086 
L 183.945675 215.67472 
L 184.108083 216.649227 
L 184.270492 206.625609 
L 184.4329 209.6561 
L 184.595309 220.013234 
L 184.757717 216.773841 
L 185.082534 219.384309 
L 185.244942 217.089816 
L 185.407351 220.297227 
L 185.569759 213.997547 
L 185.732168 218.241687 
L 185.894576 219.507422 
L 186.219393 208.697155 
L 186.381802 215.009796 
L 186.54421 215.346566 
L 186.706619 216.949647 
L 186.869027 210.772399 
L 187.031436 215.23712 
L 187.193844 213.358786 
L 187.356253 217.047594 
L 187.518661 200.003823 
L 187.68107 217.498646 
L 187.843478 218.139839 
L 188.005887 223.623979 
L 188.168295 216.122915 
L 188.330704 219.425175 
L 188.493112 208.209945 
L 188.817929 220.373163 
L 189.142746 204.949208 
L 189.467563 216.341365 
L 189.629971 206.959076 
L 189.954788 228.901554 
L 190.117197 223.943052 
L 190.279605 210.478496 
L 190.442014 209.561011 
L 190.604422 218.235325 
L 190.766831 215.237764 
L 190.929239 216.733288 
L 191.254056 207.712936 
L 191.416465 222.271222 
L 191.578873 210.218723 
L 191.741282 219.308444 
L 191.90369 208.130886 
L 192.066099 214.897241 
L 192.228507 213.392915 
L 192.390915 214.372905 
L 192.553324 220.64629 
L 192.715732 208.426875 
L 192.878141 205.170296 
L 193.040549 210.20915 
L 193.202958 221.398913 
L 193.365366 218.413471 
L 193.527775 212.930143 
L 193.690183 216.350885 
L 193.852592 210.669522 
L 194.015 219.484013 
L 194.339817 211.603731 
L 194.502226 220.018615 
L 194.664634 211.322927 
L 194.827043 209.929219 
L 194.989451 218.464972 
L 195.15186 211.330909 
L 195.476677 207.735776 
L 195.639085 219.66704 
L 195.801493 215.07023 
L 195.963902 224.313926 
L 196.288719 212.125476 
L 196.613536 218.732712 
L 196.775944 210.080552 
L 196.938353 216.068378 
L 197.100761 212.495468 
L 197.26317 213.844197 
L 197.425578 211.148178 
L 197.587987 216.164924 
L 197.912804 203.172252 
L 198.075212 207.817686 
L 198.237621 204.989863 
L 198.400029 222.377352 
L 198.562438 220.797836 
L 198.724846 227.143004 
L 198.887255 222.156192 
L 199.212071 236.194135 
L 199.37448 231.752607 
L 199.536888 238.064533 
L 199.861705 258.076257 
L 200.024114 257.632442 
L 200.186522 275.424482 
L 200.348931 271.653677 
L 200.511339 277.313244 
L 200.673748 277.901253 
L 200.836156 275.482873 
L 201.160973 289.396685 
L 201.323382 271.349445 
L 201.48579 281.848786 
L 201.648199 261.850218 
L 201.810607 261.373637 
L 201.973016 248.590252 
L 202.135424 213.755507 
L 202.297833 207.085199 
L 202.785058 132.169192 
L 203.109875 107.366458 
L 203.5971 58.476553 
L 203.759509 55.056645 
L 203.921917 66.787465 
L 204.084326 53.568 
L 205.058777 156.117781 
L 205.383594 201.44015 
L 205.546002 223.851466 
L 205.708411 230.899842 
L 205.870819 262.200351 
L 206.033228 265.321258 
L 206.358044 286.734782 
L 206.520453 276.523215 
L 206.682861 282.080766 
L 206.84527 277.870557 
L 207.007678 276.790813 
L 207.494904 260.019723 
L 207.657312 262.592479 
L 207.982129 241.002999 
L 208.144538 235.447772 
L 208.306946 242.359738 
L 208.631763 226.882593 
L 208.794172 226.076238 
L 208.95658 221.973929 
L 209.118989 223.150763 
L 209.443806 205.662801 
L 209.768622 213.742886 
L 209.931031 215.411417 
L 210.093439 212.145383 
L 210.255848 223.786552 
L 210.418256 223.169763 
L 210.580665 211.290839 
L 210.743073 217.542327 
L 210.905482 206.832561 
L 211.230299 218.828695 
L 211.392707 220.274835 
L 211.555116 207.674768 
L 211.717524 212.182819 
L 211.879933 220.236148 
L 212.20475 212.157601 
L 212.367158 219.698828 
L 212.529567 206.188876 
L 213.016792 220.211389 
L 213.341609 205.633627 
L 213.504017 215.741032 
L 213.666426 212.882824 
L 213.828834 219.675467 
L 213.991243 211.385621 
L 214.153651 214.0036 
L 214.31606 225.945717 
L 214.478468 221.752234 
L 214.640877 213.346858 
L 214.803285 222.401897 
L 214.965694 221.39132 
L 215.290511 210.45115 
L 215.452919 218.359689 
L 215.777736 207.634834 
L 215.940145 212.571923 
L 216.102553 210.861732 
L 216.42737 219.659224 
L 216.589779 208.872914 
L 216.752187 222.646299 
L 216.914595 211.670737 
L 217.077004 211.766539 
L 217.239412 212.518273 
L 217.401821 214.970528 
L 217.564229 210.438689 
L 217.726638 216.874148 
L 217.889046 217.517511 
L 218.051455 216.524408 
L 218.213863 209.708226 
L 218.376272 208.974569 
L 218.53868 202.732147 
L 218.701089 215.722878 
L 218.863497 215.404712 
L 219.025906 216.496267 
L 219.188314 209.987908 
L 219.350723 216.400286 
L 219.513131 204.429568 
L 219.67554 216.096751 
L 219.837948 214.043311 
L 220.000357 215.35234 
L 220.162765 212.564536 
L 220.325173 220.646387 
L 220.487582 214.184905 
L 220.64999 212.173126 
L 220.812399 220.607689 
L 220.974807 220.254614 
L 221.137216 233.309057 
L 221.299624 215.470503 
L 221.624441 217.560166 
L 221.78685 212.437291 
L 221.949258 202.742713 
L 222.111667 208.115292 
L 222.274075 205.677583 
L 222.598892 222.402026 
L 222.923709 213.996638 
L 223.086118 217.673144 
L 223.248526 216.031705 
L 223.410935 209.254397 
L 223.573343 231.225761 
L 223.735752 214.748432 
L 223.89816 212.172657 
L 224.060568 221.003183 
L 224.222977 209.609064 
L 224.547794 217.148921 
L 224.872611 209.071006 
L 225.035019 216.932499 
L 225.359836 210.09629 
L 225.522245 218.46987 
L 225.684653 216.539715 
L 225.847062 226.489074 
L 226.171879 211.058238 
L 226.334287 211.582113 
L 226.496696 222.935439 
L 226.659104 201.323376 
L 226.821513 207.031063 
L 226.983921 207.992741 
L 227.14633 218.079016 
L 227.308738 214.026608 
L 227.471146 216.628626 
L 227.633555 208.803778 
L 227.795963 218.05933 
L 227.958372 212.796913 
L 228.12078 212.259847 
L 228.283189 217.612694 
L 228.445597 215.982376 
L 228.608006 206.656545 
L 228.770414 225.732569 
L 228.932823 210.57613 
L 229.095231 216.281409 
L 229.25764 208.774581 
L 229.420048 218.742218 
L 229.744865 209.878747 
L 230.232091 217.786307 
L 230.556908 208.722196 
L 230.719316 221.653508 
L 230.881724 218.250435 
L 231.206541 232.869309 
L 231.36895 225.700214 
L 231.531358 241.61873 
L 231.693767 229.041446 
L 232.180992 257.591873 
L 232.343401 244.045353 
L 232.505809 257.375422 
L 232.668218 280.15876 
L 232.830626 265.704899 
L 232.993035 263.626502 
L 233.155443 269.521299 
L 233.317852 285.673008 
L 233.48026 281.205961 
L 233.642669 281.232226 
L 233.967486 272.668739 
L 234.129894 265.722649 
L 234.292303 264.918513 
L 234.454711 253.628912 
L 234.779528 197.938236 
L 234.941936 185.393505 
L 235.266753 128.492967 
L 235.429162 130.753328 
L 235.916387 69.958399 
L 236.078796 59.475355 
L 236.241204 59.824845 
L 236.403613 66.909585 
L 236.566021 67.688461 
L 236.72843 81.844286 
L 236.890838 86.264721 
L 237.378064 142.986803 
L 237.540472 159.757135 
L 237.702881 197.53168 
L 238.190106 234.735923 
L 238.352514 264.459911 
L 238.514923 260.552036 
L 238.677331 260.796566 
L 238.83974 279.61557 
L 239.002148 280.808797 
L 239.164557 286.777219 
L 239.326965 276.35868 
L 239.489374 285.023839 
L 239.651782 276.977156 
L 239.814191 260.396402 
L 239.976599 264.461194 
L 240.139008 249.344659 
L 240.301416 257.793609 
L 240.463825 242.978082 
L 240.626233 244.81079 
L 240.788642 242.972493 
L 240.95105 232.274932 
L 241.113459 229.181473 
L 241.275867 232.525162 
L 241.600684 217.878257 
L 241.763092 228.820391 
L 241.925501 218.307882 
L 242.087909 228.846778 
L 242.250318 208.639806 
L 242.412726 214.041969 
L 242.737543 208.490663 
L 242.899952 215.540505 
L 243.06236 207.133947 
L 243.224769 205.268208 
L 243.387177 213.729467 
L 243.549586 210.590088 
L 243.874403 219.400271 
L 244.036811 216.02981 
L 244.19922 223.516301 
L 244.361628 220.745984 
L 244.524037 207.840396 
L 244.686445 215.368613 
L 244.848854 214.08895 
L 245.011262 205.664294 
L 245.336079 214.798725 
L 245.498487 217.980784 
L 245.660896 199.447564 
L 245.823304 216.44472 
L 245.985713 207.17844 
L 246.148121 220.453416 
L 246.31053 207.308511 
L 246.472938 208.665607 
L 246.635347 212.786074 
L 246.797755 220.273331 
L 247.122572 213.801887 
L 247.447389 219.03149 
L 247.609798 200.180139 
L 247.934615 211.064258 
L 248.097023 209.526332 
L 248.42184 222.923609 
L 248.584248 208.232191 
L 248.746657 221.847526 
L 249.071474 210.688092 
L 249.233882 221.903853 
L 249.396291 221.895269 
L 249.721108 199.973456 
L 249.883516 210.832363 
L 250.045925 213.570825 
L 250.370742 205.788061 
L 250.53315 212.60828 
L 250.695559 211.059276 
L 250.857967 219.219233 
L 251.020376 216.874937 
L 251.182784 209.235152 
L 251.345193 209.107202 
L 251.507601 206.263828 
L 251.67001 217.891944 
L 251.994827 200.185158 
L 252.157235 215.361525 
L 252.319643 212.632352 
L 252.482052 232.799863 
L 252.64446 214.839944 
L 252.806869 221.85669 
L 252.969277 221.01693 
L 253.294094 202.573331 
L 253.618911 221.523162 
L 253.78132 210.671195 
L 254.106137 220.70231 
L 254.268545 213.196884 
L 254.430954 215.602595 
L 254.755771 206.311549 
L 254.918179 213.171857 
L 255.080588 198.708459 
L 255.242996 213.690887 
L 255.567813 208.233245 
L 255.730221 222.19311 
L 255.89263 212.947971 
L 256.055038 213.758116 
L 256.217447 209.962215 
L 256.379855 210.071088 
L 256.542264 216.829764 
L 256.704672 204.095252 
L 256.867081 217.060742 
L 257.029489 216.879079 
L 257.191898 220.394578 
L 257.354306 211.864135 
L 257.679123 219.636647 
L 257.841532 218.846008 
L 258.00394 210.825411 
L 258.166349 213.221585 
L 258.491166 225.897156 
L 258.653574 211.409392 
L 258.815983 213.555259 
L 258.978391 221.825903 
L 259.140799 210.046782 
L 259.303208 214.914341 
L 259.465616 205.306641 
L 259.628025 209.218127 
L 259.790433 221.460735 
L 259.952842 208.52364 
L 260.11525 220.71813 
L 260.277659 213.560151 
L 260.602476 217.420528 
L 260.764884 221.486093 
L 260.927293 208.957179 
L 261.089701 209.592076 
L 261.25211 220.002685 
L 261.414518 211.225196 
L 261.576927 223.880919 
L 261.739335 217.779384 
L 261.901744 207.372376 
L 262.064152 211.193463 
L 262.226561 209.592506 
L 262.388969 220.749233 
L 262.713786 207.195834 
L 263.038603 220.584525 
L 263.201011 218.04282 
L 263.36342 225.564824 
L 263.525828 222.649875 
L 263.688237 236.322791 
L 263.850645 221.205357 
L 264.013054 234.099954 
L 264.175462 227.248531 
L 264.337871 240.971221 
L 264.500279 232.977896 
L 264.662688 242.799965 
L 264.825096 245.319799 
L 265.149913 268.436028 
L 265.312322 267.75533 
L 265.47473 268.408066 
L 265.961956 295.488 
L 266.286772 278.015681 
L 266.936406 242.383332 
L 268.560491 61.452776 
L 268.7229 57.421076 
L 268.885308 66.094343 
L 269.047717 59.971411 
L 269.210125 77.321513 
L 269.372534 81.525372 
L 269.534942 92.609306 
L 270.022167 165.592195 
L 270.184576 176.051257 
L 270.83421 250.334193 
L 270.996618 261.251897 
L 271.159027 264.486034 
L 271.321435 285.210139 
L 271.483844 282.992656 
L 271.646252 289.60949 
L 271.808661 289.407111 
L 272.133478 274.213254 
L 272.295886 266.92182 
L 272.458295 274.915132 
L 272.620703 246.725262 
L 272.94552 250.635205 
L 273.107929 249.948793 
L 273.270337 227.747656 
L 273.432745 231.643407 
L 273.595154 228.513221 
L 273.919971 219.531757 
L 274.244788 223.822317 
L 274.407196 212.400719 
L 274.569605 220.114759 
L 274.732013 217.623996 
L 274.894422 209.009679 
L 275.05683 216.200827 
L 275.219239 217.569608 
L 275.381647 217.094627 
L 275.706464 209.005049 
L 275.868873 222.571717 
L 276.19369 216.804236 
L 276.356098 214.826905 
L 276.518507 210.612219 
L 276.680915 221.146835 
L 276.843323 210.587371 
L 277.005732 209.503929 
L 277.330549 220.41314 
L 277.492957 204.671402 
L 277.655366 216.90982 
L 277.817774 211.700445 
L 277.980183 214.49853 
L 278.142591 214.503379 
L 278.305 214.227328 
L 278.467408 220.24928 
L 278.629817 212.033397 
L 278.792225 220.883809 
L 278.954634 220.558561 
L 279.117042 214.444601 
L 279.279451 215.385249 
L 279.441859 214.833944 
L 279.766676 209.938356 
L 279.929085 221.02988 
L 280.091493 205.837035 
L 280.253901 214.46856 
L 280.41631 213.708463 
L 280.578718 220.583813 
L 280.741127 216.978127 
L 280.903535 200.793695 
L 281.228352 221.39957 
L 281.390761 219.217175 
L 281.553169 218.950703 
L 281.715578 220.944207 
L 281.877986 225.17449 
L 282.202803 206.790477 
L 282.365212 226.277228 
L 282.690029 212.121202 
L 282.852437 215.332914 
L 283.014846 210.321055 
L 283.177254 213.724867 
L 283.339663 222.917188 
L 283.502071 220.275925 
L 283.66448 212.150989 
L 283.826888 216.175083 
L 283.989296 213.983042 
L 284.151705 224.715652 
L 284.314113 214.705838 
L 284.476522 214.561153 
L 284.63893 226.458813 
L 284.801339 216.464425 
L 284.963747 222.630295 
L 285.126156 214.911163 
L 285.288564 215.171531 
L 285.450973 216.378517 
L 285.613381 205.619922 
L 285.77579 215.33121 
L 285.938198 215.496599 
L 286.263015 206.83122 
L 286.425424 213.732741 
L 286.587832 206.421503 
L 286.750241 219.291611 
L 286.912649 216.218892 
L 287.075058 215.968114 
L 287.399874 219.578279 
L 287.562283 227.717173 
L 287.724691 214.316586 
L 287.8871 219.729844 
L 288.049508 212.770561 
L 288.374325 221.835816 
L 288.536734 208.838986 
L 288.699142 212.557503 
L 288.861551 212.534826 
L 289.023959 215.175361 
L 289.186368 212.76573 
L 289.348776 222.721838 
L 289.511185 212.860248 
L 289.673593 221.22467 
L 289.836002 221.142655 
L 290.160819 205.298781 
L 290.323227 220.679939 
L 290.485636 207.042722 
L 290.648044 224.388979 
L 290.810452 204.229873 
L 290.972861 218.113663 
L 291.297678 210.74507 
L 291.460086 208.203574 
L 291.622495 212.575648 
L 291.784903 211.260286 
L 291.947312 213.041029 
L 292.10972 207.757293 
L 292.272129 212.097068 
L 292.434537 208.832503 
L 292.596946 221.408143 
L 292.759354 212.013699 
L 292.921763 214.660777 
L 293.084171 227.330294 
L 293.24658 214.431601 
L 293.408988 213.985563 
L 293.571397 214.661896 
L 293.733805 212.565182 
L 293.896214 214.814069 
L 294.058622 213.885852 
L 294.221031 208.220705 
L 294.383439 220.331269 
L 294.545847 207.382311 
L 294.870664 222.21828 
L 295.033073 215.057109 
L 295.195481 220.933836 
L 295.520298 210.515772 
L 295.682707 212.577111 
L 295.845115 212.095481 
L 296.007524 214.011669 
L 296.169932 206.814182 
L 296.332341 206.188958 
L 296.494749 212.400039 
L 296.657158 208.991701 
L 296.981975 218.080615 
L 297.144383 217.62954 
L 297.306792 216.011276 
L 297.631609 207.833985 
L 297.794017 218.054336 
L 298.118834 208.616491 
L 298.281242 210.702836 
L 298.443651 210.253562 
L 298.606059 217.480766 
L 298.768468 204.171218 
L 298.930876 220.930225 
L 299.093285 217.530972 
L 299.255693 219.052469 
L 299.418102 210.568176 
L 299.58051 210.115449 
L 299.905327 225.170073 
L 300.067736 209.544096 
L 300.230144 219.878935 
L 300.392553 206.340246 
L 300.554961 210.231187 
L 300.71737 208.660016 
L 300.879778 213.574096 
L 301.042187 213.157103 
L 301.204595 210.318194 
L 301.367004 225.253464 
L 301.529412 207.722953 
L 301.69182 212.471384 
L 301.854229 211.602624 
L 302.016637 224.914029 
L 302.341454 204.316229 
L 302.666271 217.295851 
L 302.82868 222.802339 
L 302.991088 210.465843 
L 303.153497 210.642612 
L 303.315905 213.071307 
L 303.478314 218.030077 
L 303.640722 209.85514 
L 303.803131 212.746592 
L 303.965539 208.83966 
L 304.127948 211.983784 
L 304.290356 204.717799 
L 304.452765 209.876623 
L 304.615173 206.78945 
L 304.777582 221.377775 
L 304.93999 214.114028 
L 305.102398 222.777758 
L 305.264807 220.385189 
L 305.427215 220.448318 
L 305.752032 211.693366 
L 305.914441 209.334165 
L 306.076849 208.813774 
L 306.239258 208.933079 
L 306.564075 222.423523 
L 306.726483 211.035859 
L 306.888892 210.22486 
L 307.0513 216.697549 
L 307.213709 210.794869 
L 307.376117 220.308549 
L 307.538526 202.910148 
L 307.863343 214.962888 
L 308.025751 197.858262 
L 308.18816 213.070918 
L 308.350568 204.193458 
L 308.675385 216.718937 
L 308.837793 216.736998 
L 309.000202 214.530259 
L 309.16261 215.744875 
L 309.325019 221.717197 
L 309.487427 216.900784 
L 309.649836 215.732581 
L 309.812244 212.224031 
L 309.974653 212.234411 
L 310.137061 204.294131 
L 310.29947 212.830822 
L 310.461878 209.827298 
L 310.624287 211.456231 
L 310.786695 216.240115 
L 310.949104 212.060844 
L 311.111512 212.160592 
L 311.273921 217.941834 
L 311.436329 214.651822 
L 311.598738 224.621239 
L 311.761146 205.461057 
L 311.923555 203.387436 
L 312.085963 218.483887 
L 312.248371 219.553373 
L 312.41078 207.12287 
L 312.735597 221.824214 
L 312.898005 212.148401 
L 313.222822 222.391582 
L 313.385231 211.337917 
L 313.547639 210.55717 
L 313.872456 212.869711 
L 314.034865 204.749143 
L 314.359682 220.408194 
L 314.846907 209.221351 
L 315.009316 221.01818 
L 315.334133 201.958923 
L 315.496541 216.132255 
L 315.658949 216.677219 
L 315.983766 209.015107 
L 316.146175 218.366362 
L 316.308583 218.797505 
L 316.470992 217.664832 
L 316.6334 219.643481 
L 316.795809 214.213364 
L 316.958217 214.472483 
L 317.120626 212.464492 
L 317.445443 211.320577 
L 317.607851 220.115935 
L 317.77026 212.062813 
L 317.932668 213.170444 
L 318.095077 220.353785 
L 318.257485 219.497665 
L 318.419894 213.12196 
L 318.582302 213.626995 
L 318.744711 215.742646 
L 318.907119 210.641026 
L 319.231936 212.14377 
L 319.394344 211.290077 
L 319.556753 212.414793 
L 319.719161 206.441846 
L 319.88157 207.052248 
L 320.043978 208.612262 
L 320.206387 222.04845 
L 320.368795 211.258957 
L 320.531204 212.891412 
L 320.693612 217.951468 
L 320.856021 215.83641 
L 321.018429 219.133765 
L 321.343246 214.568574 
L 321.505655 216.647426 
L 321.830472 202.992578 
L 322.155289 217.620435 
L 322.317697 215.652493 
L 322.480106 216.29382 
L 322.642514 213.537108 
L 322.804922 220.190268 
L 322.967331 210.159854 
L 323.129739 212.489758 
L 323.292148 224.905692 
L 323.454556 211.614422 
L 323.616965 213.209323 
L 323.779373 211.204219 
L 323.941782 212.886958 
L 324.10419 209.147378 
L 324.266599 217.331758 
L 324.429007 198.769923 
L 324.591416 224.805502 
L 324.753824 213.073067 
L 324.916233 227.565337 
L 325.078641 214.912202 
L 325.403458 216.600804 
L 325.565867 208.581204 
L 325.728275 219.727021 
L 325.890684 219.177049 
L 326.053092 216.478763 
L 326.377909 206.831922 
L 326.702726 217.1579 
L 326.865134 202.117968 
L 327.027543 219.600359 
L 327.35236 205.558653 
L 327.514768 205.935698 
L 327.839585 210.650714 
L 328.001994 219.71726 
L 328.164402 216.41722 
L 328.326811 219.803827 
L 328.489219 206.147813 
L 328.651628 219.576541 
L 328.814036 220.117036 
L 329.138853 204.338265 
L 329.301262 215.418057 
L 329.46367 215.187791 
L 329.626078 221.688978 
L 329.788487 202.249052 
L 329.950895 198.973869 
L 330.113304 213.852377 
L 330.275712 216.867741 
L 330.438121 203.795816 
L 330.600529 216.960707 
L 330.762938 210.148508 
L 330.925346 210.55779 
L 331.087755 209.571423 
L 331.250163 219.670281 
L 331.412572 206.07609 
L 331.57498 216.627532 
L 331.737389 219.482158 
L 331.899797 215.56902 
L 332.062206 217.694389 
L 332.224614 222.259851 
L 332.387023 213.559042 
L 332.549431 216.374294 
L 332.71184 216.457842 
L 333.036657 207.951165 
L 333.199065 226.624831 
L 333.361473 200.739409 
L 333.523882 217.92281 
L 333.68629 216.156481 
L 333.848699 212.978329 
L 334.011107 219.56373 
L 334.173516 212.883896 
L 334.335924 219.374026 
L 334.498333 212.318309 
L 334.660741 218.191666 
L 334.985558 211.58868 
L 335.147967 208.061619 
L 335.310375 217.367734 
L 335.472784 210.472476 
L 335.635192 208.554489 
L 335.797601 218.560633 
L 335.960009 202.312557 
L 336.122418 207.154638 
L 336.284826 205.575366 
L 336.447235 215.251997 
L 336.609643 214.3509 
L 336.772051 217.4424 
L 336.93446 218.107329 
L 337.096868 214.672764 
L 337.259277 221.688017 
L 337.584094 215.691278 
L 337.746502 201.790507 
L 337.908911 219.031365 
L 338.071319 219.062329 
L 338.233728 212.039054 
L 338.396136 215.558128 
L 338.558545 210.258087 
L 338.720953 220.511231 
L 338.883362 209.281107 
L 339.04577 214.018761 
L 339.208179 212.374637 
L 339.370587 207.705797 
L 339.532996 214.717775 
L 339.695404 211.128284 
L 339.857813 218.342276 
L 340.020221 208.257072 
L 340.345038 210.647614 
L 340.507446 222.328155 
L 340.669855 206.866203 
L 340.832263 220.206235 
L 340.994672 215.498093 
L 341.15708 214.864677 
L 341.319489 208.016061 
L 341.644306 219.047646 
L 341.806714 211.320129 
L 341.969123 211.855401 
L 342.29394 221.389393 
L 342.456348 212.697421 
L 342.618757 220.646808 
L 342.781165 220.456621 
L 343.105982 212.560435 
L 343.268391 211.139411 
L 343.430799 204.978654 
L 343.593208 209.992915 
L 343.755616 207.207517 
L 343.918024 207.124888 
L 344.242841 222.698919 
L 344.40525 209.364323 
L 344.567658 220.821 
L 344.892475 210.865552 
L 345.054884 216.098849 
L 345.217292 216.085026 
L 345.379701 223.247683 
L 345.704518 211.055261 
L 345.866926 217.412842 
L 346.029335 214.412377 
L 346.191743 224.727442 
L 346.354152 220.996053 
L 346.51656 208.820739 
L 346.678969 217.04639 
L 346.841377 216.390813 
L 347.003786 214.124744 
L 347.166194 218.614985 
L 347.328602 207.155056 
L 347.491011 219.04224 
L 347.653419 210.237249 
L 347.815828 216.179358 
L 347.978236 214.522354 
L 348.140645 205.587001 
L 348.62787 225.034201 
L 348.790279 222.87108 
L 348.952687 222.275277 
L 349.115096 224.278184 
L 349.439913 207.729445 
L 349.602321 220.439583 
L 349.76473 202.305847 
L 349.927138 219.473611 
L 350.089547 218.615422 
L 350.251955 206.331485 
L 350.576772 225.064981 
L 350.73918 213.37744 
L 350.901589 213.9864 
L 351.063997 212.524474 
L 351.226406 213.385658 
L 351.388814 222.222377 
L 351.551223 213.153128 
L 351.713631 217.236992 
L 351.87604 208.089967 
L 352.038448 221.65093 
L 352.200857 216.58326 
L 352.363265 215.934449 
L 352.525674 206.034734 
L 352.688082 211.32327 
L 352.850491 220.606652 
L 353.012899 205.808316 
L 353.175308 217.037558 
L 353.337716 205.415055 
L 353.500125 218.693625 
L 353.662533 203.771309 
L 353.98735 219.049048 
L 354.149759 205.768055 
L 354.312167 219.382783 
L 354.636984 206.865092 
L 354.799392 214.463729 
L 354.961801 214.305121 
L 355.124209 225.996202 
L 355.286618 212.194942 
L 355.449026 219.809399 
L 355.611435 219.208829 
L 355.773843 211.09694 
L 355.936252 208.72287 
L 356.09866 215.001865 
L 356.261069 205.53507 
L 356.423477 204.746331 
L 356.585886 206.334052 
L 356.910703 221.552068 
L 357.073111 210.143356 
L 357.397928 206.035272 
L 357.560337 214.953933 
L 357.722745 212.839408 
L 357.885153 213.939131 
L 358.047562 215.885522 
L 358.20997 215.85595 
L 358.372379 204.65216 
L 358.534787 208.22232 
L 358.697196 215.681297 
L 358.859604 209.258824 
L 359.022013 208.101217 
L 359.34683 216.799164 
L 359.509238 211.579282 
L 359.671647 223.067367 
L 359.834055 207.73987 
L 359.996464 220.589697 
L 360.321281 204.318596 
L 360.483689 215.268872 
L 360.646098 215.596238 
L 360.808506 215.269729 
L 360.970915 209.005443 
L 361.133323 220.093444 
L 361.295732 221.558085 
L 361.620548 210.610339 
L 361.782957 224.585976 
L 361.945365 209.580762 
L 362.107774 230.305048 
L 362.270182 208.69057 
L 362.432591 218.901144 
L 362.757408 210.730891 
L 362.919816 221.514837 
L 363.082225 214.720038 
L 363.244633 203.115001 
L 363.407042 205.746352 
L 363.56945 223.853442 
L 363.731859 225.022225 
L 363.894267 214.721613 
L 364.056676 211.840469 
L 364.219084 220.174194 
L 364.381493 213.320026 
L 364.543901 215.435989 
L 364.70631 215.247249 
L 365.031126 207.947392 
L 365.518352 220.299453 
L 365.68076 219.342149 
L 365.843169 226.536152 
L 366.167986 209.525299 
L 366.330394 215.331989 
L 366.492803 210.153687 
L 366.655211 218.924211 
L 366.81762 210.166607 
L 366.980028 216.112159 
L 367.142437 212.535933 
L 367.304845 215.03537 
L 367.467254 207.702042 
L 367.629662 213.108297 
L 367.792071 209.065142 
L 367.954479 215.027427 
L 368.116888 211.641124 
L 368.279296 213.652911 
L 368.441704 204.312994 
L 368.604113 205.502682 
L 368.766521 218.167036 
L 368.92893 211.390823 
L 369.091338 215.206508 
L 369.253747 212.134604 
L 369.416155 212.024308 
L 369.578564 214.17575 
L 369.740972 209.444359 
L 369.903381 208.367419 
L 370.065789 213.071546 
L 370.228198 223.60177 
L 370.390606 211.258678 
L 370.553015 213.555114 
L 370.715423 213.487266 
L 370.877832 207.495467 
L 371.04024 217.142804 
L 371.202649 209.044659 
L 371.365057 211.127353 
L 371.527466 226.505985 
L 371.689874 204.964916 
L 371.852283 220.062184 
L 372.014691 217.730279 
L 372.177099 203.55609 
L 372.501916 216.277931 
L 372.664325 212.071303 
L 372.826733 203.77578 
L 372.989142 207.958301 
L 373.15155 217.124336 
L 373.313959 216.796756 
L 373.476367 211.854227 
L 373.638776 216.973228 
L 373.801184 213.198912 
L 373.963593 204.070226 
L 374.126001 207.330466 
L 374.450818 217.655443 
L 374.775635 208.266315 
L 375.100452 217.645194 
L 375.262861 211.989378 
L 375.425269 223.452879 
L 375.587677 209.213618 
L 375.750086 222.566832 
L 375.912494 215.171774 
L 376.074903 215.595205 
L 376.237311 219.288712 
L 376.39972 212.495974 
L 376.562128 211.466921 
L 376.724537 212.456943 
L 376.886945 224.879034 
L 377.049354 211.754816 
L 377.211762 211.17737 
L 377.374171 209.690728 
L 377.536579 220.622838 
L 377.698988 214.43657 
L 378.023805 218.20968 
L 378.186213 217.807105 
L 378.348622 204.607897 
L 378.673439 219.219976 
L 378.835847 205.746294 
L 378.998255 216.86497 
L 379.160664 204.658399 
L 379.485481 213.626146 
L 379.647889 213.495529 
L 379.810298 211.573411 
L 379.972706 207.112625 
L 380.135115 221.25033 
L 380.459932 203.942836 
L 380.784749 218.287316 
L 380.947157 215.632621 
L 381.109566 201.688137 
L 381.271974 218.746052 
L 381.596791 213.178138 
L 381.7592 220.252251 
L 381.921608 202.232891 
L 382.084017 216.697168 
L 382.246425 216.386787 
L 382.408834 214.016637 
L 382.571242 216.841428 
L 382.73365 210.217072 
L 382.896059 219.98722 
L 383.058467 206.074882 
L 383.383284 220.948189 
L 383.545693 209.560835 
L 383.708101 221.242112 
L 383.87051 212.183683 
L 384.195327 216.263539 
L 384.357735 214.097461 
L 384.520144 222.117565 
L 384.682552 212.959353 
L 384.844961 212.105218 
L 385.007369 207.126839 
L 385.332186 217.866669 
L 385.494595 214.271647 
L 385.657003 213.24088 
L 385.819412 214.117885 
L 385.98182 204.44859 
L 386.144228 216.317345 
L 386.469045 212.581988 
L 386.631454 215.735232 
L 386.793862 225.900599 
L 386.956271 213.597788 
L 387.118679 215.723394 
L 387.281088 224.960933 
L 387.443496 210.154961 
L 387.768313 220.059725 
L 387.930722 216.72599 
L 388.09313 217.787327 
L 388.255539 221.935094 
L 388.580356 205.779761 
L 388.905173 217.245076 
L 389.067581 216.280884 
L 389.22999 216.644815 
L 389.392398 221.419163 
L 389.554806 222.713297 
L 389.717215 207.953056 
L 389.879623 208.888552 
L 390.20444 218.476121 
L 390.529257 204.030773 
L 390.691666 222.576577 
L 390.854074 219.58388 
L 391.016483 207.213023 
L 391.178891 215.704768 
L 391.3413 213.58679 
L 391.503708 213.904786 
L 391.666117 211.439907 
L 391.828525 222.496419 
L 391.990934 219.473842 
L 392.315751 207.865887 
L 392.478159 211.033429 
L 392.640568 216.695145 
L 392.965385 210.223073 
L 393.127793 210.466532 
L 393.290201 227.394695 
L 393.45261 213.521737 
L 393.615018 218.364115 
L 393.939835 200.961381 
L 394.102244 212.057013 
L 394.264652 214.427118 
L 394.427061 212.522751 
L 394.589469 219.807427 
L 394.751878 208.746646 
L 395.076695 210.588022 
L 395.239103 209.192027 
L 395.401512 214.095193 
L 395.726329 204.209212 
L 395.888737 222.696799 
L 396.213554 198.787261 
L 396.538371 216.467815 
L 396.700779 207.689246 
L 397.025596 218.373936 
L 397.188005 217.781097 
L 397.350413 212.550773 
L 397.512822 210.973138 
L 397.67523 221.180103 
L 398.000047 206.357693 
L 398.162456 220.431349 
L 398.324864 212.949799 
L 398.487273 213.531528 
L 398.487273 213.531528 
" clip-path="url(#pc8e54d8b43)" style="fill: none; stroke: #000000; stroke-width: 1.5; stroke-linecap: square"/>
   </g>
   <g id="patch_3">
    <path d="M 57.6 307.584 
L 57.6 41.472 
" style="fill: none; stroke: #000000; stroke-width: 0.8; stroke-linejoin: miter; stroke-linecap: square"/>
   </g>
   <g id="patch_4">
    <path d="M 414.72 307.584 
L 414.72 41.472 
" style="fill: none; stroke: #000000; stroke-width: 0.8; stroke-linejoin: miter; stroke-linecap: square"/>
   </g>
   <g id="patch_5">
    <path d="M 57.6 307.584 
L 414.72 307.584 
" style="fill: none; stroke: #000000; stroke-width: 0.8; stroke-linejoin: miter; stroke-linecap: square"/>
   </g>
   <g id="patch_6">
    <path d="M 57.6 41.472 
L 414.72 41.472 
" style="fill: none; stroke: #000000; stroke-width: 0.8; stroke-linejoin: miter; stroke-linecap: square"/>
   </g>
  </g>
 </g>
 <defs>
  <clipPath id="pc8e54d8b43">
   <rect x="57.6" y="41.472" width="357.12" height="266.112"/>
  </clipPath>
 </defs>
</svg>
