<?xml version="1.0" encoding="utf-8" standalone="no"?>
<!DOCTYPE svg PUBLIC "-//W3C//DTD SVG 1.1//EN"
  "http://www.w3.org/Graphics/SVG/1.1/DTD/svg11.dtd">
<svg xmlns:xlink="http://www.w3.org/1999/xlink" width="460.8pt" height="345.6pt" viewBox="0 0 460.8 345.6" xmlns="http://www.w3.org/2000/svg" version="1.1">
 <metadata>
  <rdf:RDF xmlns:dc="http://purl.org/dc/elements/1.1/" xmlns:cc="http://creativecommons.org/ns#" xmlns:rdf="http://www.w3.org/1999/02/22-rdf-syntax-ns#">
   <cc:Work>
    <dc:type rdf:resource="http://purl.org/dc/dcmitype/StillImage"/>
    <dc:date>2023-10-31T00:51:38.119698</dc:date>
    <dc:format>image/svg+xml</dc:format>
    <dc:creator>
     <cc:Agent>
      <dc:title>Matplotlib v3.7.1, https://matplotlib.org/</dc:title>
     </cc:Agent>
    </dc:creator>
   </cc:Work>
  </rdf:RDF>
 </metadata>
 <defs>
  <style type="text/css">*{stroke-linejoin: round; stroke-linecap: butt}</style>
 </defs>
 <g id="figure_1">
  <g id="patch_1">
   <path d="M 0 345.6 
L 460.8 345.6 
L 460.8 0 
L 0 0 
z
" style="fill: #ffffff"/>
  </g>
  <g id="axes_1">
   <g id="patch_2">
    <path d="M 57.6 307.584 
L 414.72 307.584 
L 414.72 41.472 
L 57.6 41.472 
z
" style="fill: #ffffff"/>
   </g>
   <g id="matplotlib.axis_1">
    <g id="xtick_1">
     <g id="line2d_1">
      <defs>
       <path id="mee7381f3bc" d="M 0 0 
L 0 3.5 
" style="stroke: #000000; stroke-width: 0.8"/>
      </defs>
      <g>
       <use xlink:href="#mee7381f3bc" x="73.832727" y="307.584" style="stroke: #000000; stroke-width: 0.8"/>
      </g>
     </g>
     <g id="text_1">
      <!-- 0 -->
      <g transform="translate(70.651477 322.182437) scale(0.1 -0.1)">
       <defs>
        <path id="DejaVuSans-30" d="M 2034 4250 
Q 1547 4250 1301 3770 
Q 1056 3291 1056 2328 
Q 1056 1369 1301 889 
Q 1547 409 2034 409 
Q 2525 409 2770 889 
Q 3016 1369 3016 2328 
Q 3016 3291 2770 3770 
Q 2525 4250 2034 4250 
z
M 2034 4750 
Q 2819 4750 3233 4129 
Q 3647 3509 3647 2328 
Q 3647 1150 3233 529 
Q 2819 -91 2034 -91 
Q 1250 -91 836 529 
Q 422 1150 422 2328 
Q 422 3509 836 4129 
Q 1250 4750 2034 4750 
z
" transform="scale(0.015625)"/>
       </defs>
       <use xlink:href="#DejaVuSans-30"/>
      </g>
     </g>
    </g>
    <g id="xtick_2">
     <g id="line2d_2">
      <g>
       <use xlink:href="#mee7381f3bc" x="114.434847" y="307.584" style="stroke: #000000; stroke-width: 0.8"/>
      </g>
     </g>
     <g id="text_2">
      <!-- 25 -->
      <g transform="translate(108.072347 322.182437) scale(0.1 -0.1)">
       <defs>
        <path id="DejaVuSans-32" d="M 1228 531 
L 3431 531 
L 3431 0 
L 469 0 
L 469 531 
Q 828 903 1448 1529 
Q 2069 2156 2228 2338 
Q 2531 2678 2651 2914 
Q 2772 3150 2772 3378 
Q 2772 3750 2511 3984 
Q 2250 4219 1831 4219 
Q 1534 4219 1204 4116 
Q 875 4013 500 3803 
L 500 4441 
Q 881 4594 1212 4672 
Q 1544 4750 1819 4750 
Q 2544 4750 2975 4387 
Q 3406 4025 3406 3419 
Q 3406 3131 3298 2873 
Q 3191 2616 2906 2266 
Q 2828 2175 2409 1742 
Q 1991 1309 1228 531 
z
" transform="scale(0.015625)"/>
        <path id="DejaVuSans-35" d="M 691 4666 
L 3169 4666 
L 3169 4134 
L 1269 4134 
L 1269 2991 
Q 1406 3038 1543 3061 
Q 1681 3084 1819 3084 
Q 2600 3084 3056 2656 
Q 3513 2228 3513 1497 
Q 3513 744 3044 326 
Q 2575 -91 1722 -91 
Q 1428 -91 1123 -41 
Q 819 9 494 109 
L 494 744 
Q 775 591 1075 516 
Q 1375 441 1709 441 
Q 2250 441 2565 725 
Q 2881 1009 2881 1497 
Q 2881 1984 2565 2268 
Q 2250 2553 1709 2553 
Q 1456 2553 1204 2497 
Q 953 2441 691 2322 
L 691 4666 
z
" transform="scale(0.015625)"/>
       </defs>
       <use xlink:href="#DejaVuSans-32"/>
       <use xlink:href="#DejaVuSans-35" x="63.623047"/>
      </g>
     </g>
    </g>
    <g id="xtick_3">
     <g id="line2d_3">
      <g>
       <use xlink:href="#mee7381f3bc" x="155.036966" y="307.584" style="stroke: #000000; stroke-width: 0.8"/>
      </g>
     </g>
     <g id="text_3">
      <!-- 50 -->
      <g transform="translate(148.674466 322.182437) scale(0.1 -0.1)">
       <use xlink:href="#DejaVuSans-35"/>
       <use xlink:href="#DejaVuSans-30" x="63.623047"/>
      </g>
     </g>
    </g>
    <g id="xtick_4">
     <g id="line2d_4">
      <g>
       <use xlink:href="#mee7381f3bc" x="195.639085" y="307.584" style="stroke: #000000; stroke-width: 0.8"/>
      </g>
     </g>
     <g id="text_4">
      <!-- 75 -->
      <g transform="translate(189.276585 322.182437) scale(0.1 -0.1)">
       <defs>
        <path id="DejaVuSans-37" d="M 525 4666 
L 3525 4666 
L 3525 4397 
L 1831 0 
L 1172 0 
L 2766 4134 
L 525 4134 
L 525 4666 
z
" transform="scale(0.015625)"/>
       </defs>
       <use xlink:href="#DejaVuSans-37"/>
       <use xlink:href="#DejaVuSans-35" x="63.623047"/>
      </g>
     </g>
    </g>
    <g id="xtick_5">
     <g id="line2d_5">
      <g>
       <use xlink:href="#mee7381f3bc" x="236.241204" y="307.584" style="stroke: #000000; stroke-width: 0.8"/>
      </g>
     </g>
     <g id="text_5">
      <!-- 100 -->
      <g transform="translate(226.697454 322.182437) scale(0.1 -0.1)">
       <defs>
        <path id="DejaVuSans-31" d="M 794 531 
L 1825 531 
L 1825 4091 
L 703 3866 
L 703 4441 
L 1819 4666 
L 2450 4666 
L 2450 531 
L 3481 531 
L 3481 0 
L 794 0 
L 794 531 
z
" transform="scale(0.015625)"/>
       </defs>
       <use xlink:href="#DejaVuSans-31"/>
       <use xlink:href="#DejaVuSans-30" x="63.623047"/>
       <use xlink:href="#DejaVuSans-30" x="127.246094"/>
      </g>
     </g>
    </g>
    <g id="xtick_6">
     <g id="line2d_6">
      <g>
       <use xlink:href="#mee7381f3bc" x="276.843323" y="307.584" style="stroke: #000000; stroke-width: 0.8"/>
      </g>
     </g>
     <g id="text_6">
      <!-- 125 -->
      <g transform="translate(267.299573 322.182437) scale(0.1 -0.1)">
       <use xlink:href="#DejaVuSans-31"/>
       <use xlink:href="#DejaVuSans-32" x="63.623047"/>
       <use xlink:href="#DejaVuSans-35" x="127.246094"/>
      </g>
     </g>
    </g>
    <g id="xtick_7">
     <g id="line2d_7">
      <g>
       <use xlink:href="#mee7381f3bc" x="317.445443" y="307.584" style="stroke: #000000; stroke-width: 0.8"/>
      </g>
     </g>
     <g id="text_7">
      <!-- 150 -->
      <g transform="translate(307.901693 322.182437) scale(0.1 -0.1)">
       <use xlink:href="#DejaVuSans-31"/>
       <use xlink:href="#DejaVuSans-35" x="63.623047"/>
       <use xlink:href="#DejaVuSans-30" x="127.246094"/>
      </g>
     </g>
    </g>
    <g id="xtick_8">
     <g id="line2d_8">
      <g>
       <use xlink:href="#mee7381f3bc" x="358.047562" y="307.584" style="stroke: #000000; stroke-width: 0.8"/>
      </g>
     </g>
     <g id="text_8">
      <!-- 175 -->
      <g transform="translate(348.503812 322.182437) scale(0.1 -0.1)">
       <use xlink:href="#DejaVuSans-31"/>
       <use xlink:href="#DejaVuSans-37" x="63.623047"/>
       <use xlink:href="#DejaVuSans-35" x="127.246094"/>
      </g>
     </g>
    </g>
    <g id="xtick_9">
     <g id="line2d_9">
      <g>
       <use xlink:href="#mee7381f3bc" x="398.649681" y="307.584" style="stroke: #000000; stroke-width: 0.8"/>
      </g>
     </g>
     <g id="text_9">
      <!-- 200 -->
      <g transform="translate(389.105931 322.182437) scale(0.1 -0.1)">
       <use xlink:href="#DejaVuSans-32"/>
       <use xlink:href="#DejaVuSans-30" x="63.623047"/>
       <use xlink:href="#DejaVuSans-30" x="127.246094"/>
      </g>
     </g>
    </g>
   </g>
   <g id="matplotlib.axis_2">
    <g id="ytick_1">
     <g id="line2d_10">
      <defs>
       <path id="m3ce94e886d" d="M 0 0 
L -3.5 0 
" style="stroke: #000000; stroke-width: 0.8"/>
      </defs>
      <g>
       <use xlink:href="#m3ce94e886d" x="57.6" y="305.368511" style="stroke: #000000; stroke-width: 0.8"/>
      </g>
     </g>
     <g id="text_10">
      <!-- −0.4 -->
      <g transform="translate(26.317187 309.16773) scale(0.1 -0.1)">
       <defs>
        <path id="DejaVuSans-2212" d="M 678 2272 
L 4684 2272 
L 4684 1741 
L 678 1741 
L 678 2272 
z
" transform="scale(0.015625)"/>
        <path id="DejaVuSans-2e" d="M 684 794 
L 1344 794 
L 1344 0 
L 684 0 
L 684 794 
z
" transform="scale(0.015625)"/>
        <path id="DejaVuSans-34" d="M 2419 4116 
L 825 1625 
L 2419 1625 
L 2419 4116 
z
M 2253 4666 
L 3047 4666 
L 3047 1625 
L 3713 1625 
L 3713 1100 
L 3047 1100 
L 3047 0 
L 2419 0 
L 2419 1100 
L 313 1100 
L 313 1709 
L 2253 4666 
z
" transform="scale(0.015625)"/>
       </defs>
       <use xlink:href="#DejaVuSans-2212"/>
       <use xlink:href="#DejaVuSans-30" x="83.789062"/>
       <use xlink:href="#DejaVuSans-2e" x="147.412109"/>
       <use xlink:href="#DejaVuSans-34" x="179.199219"/>
      </g>
     </g>
    </g>
    <g id="ytick_2">
     <g id="line2d_11">
      <g>
       <use xlink:href="#m3ce94e886d" x="57.6" y="249.94925" style="stroke: #000000; stroke-width: 0.8"/>
      </g>
     </g>
     <g id="text_11">
      <!-- −0.2 -->
      <g transform="translate(26.317187 253.748469) scale(0.1 -0.1)">
       <use xlink:href="#DejaVuSans-2212"/>
       <use xlink:href="#DejaVuSans-30" x="83.789062"/>
       <use xlink:href="#DejaVuSans-2e" x="147.412109"/>
       <use xlink:href="#DejaVuSans-32" x="179.199219"/>
      </g>
     </g>
    </g>
    <g id="ytick_3">
     <g id="line2d_12">
      <g>
       <use xlink:href="#m3ce94e886d" x="57.6" y="194.529989" style="stroke: #000000; stroke-width: 0.8"/>
      </g>
     </g>
     <g id="text_12">
      <!-- 0.0 -->
      <g transform="translate(34.696875 198.329208) scale(0.1 -0.1)">
       <use xlink:href="#DejaVuSans-30"/>
       <use xlink:href="#DejaVuSans-2e" x="63.623047"/>
       <use xlink:href="#DejaVuSans-30" x="95.410156"/>
      </g>
     </g>
    </g>
    <g id="ytick_4">
     <g id="line2d_13">
      <g>
       <use xlink:href="#m3ce94e886d" x="57.6" y="139.110728" style="stroke: #000000; stroke-width: 0.8"/>
      </g>
     </g>
     <g id="text_13">
      <!-- 0.2 -->
      <g transform="translate(34.696875 142.909946) scale(0.1 -0.1)">
       <use xlink:href="#DejaVuSans-30"/>
       <use xlink:href="#DejaVuSans-2e" x="63.623047"/>
       <use xlink:href="#DejaVuSans-32" x="95.410156"/>
      </g>
     </g>
    </g>
    <g id="ytick_5">
     <g id="line2d_14">
      <g>
       <use xlink:href="#m3ce94e886d" x="57.6" y="83.691466" style="stroke: #000000; stroke-width: 0.8"/>
      </g>
     </g>
     <g id="text_14">
      <!-- 0.4 -->
      <g transform="translate(34.696875 87.490685) scale(0.1 -0.1)">
       <use xlink:href="#DejaVuSans-30"/>
       <use xlink:href="#DejaVuSans-2e" x="63.623047"/>
       <use xlink:href="#DejaVuSans-34" x="95.410156"/>
      </g>
     </g>
    </g>
   </g>
   <g id="line2d_15">
    <path d="M 73.832727 203.809803 
L 73.995136 193.990053 
L 74.157544 194.137085 
L 74.319953 193.427799 
L 74.482361 203.872657 
L 74.64477 202.835792 
L 74.807178 203.782684 
L 74.969587 185.48608 
L 75.131995 183.595402 
L 75.294404 198.840627 
L 75.456812 195.780386 
L 75.619221 195.044347 
L 75.781629 207.067137 
L 75.944037 191.853307 
L 76.106446 196.170373 
L 76.268854 190.110598 
L 76.431263 195.662363 
L 76.593671 191.892407 
L 76.75608 205.272127 
L 76.918488 194.110354 
L 77.080897 201.528397 
L 77.243305 196.10373 
L 77.405714 179.903209 
L 77.730531 204.616442 
L 78.055348 195.627332 
L 78.217756 197.403307 
L 78.380165 182.868243 
L 78.542573 194.21099 
L 78.704982 187.665539 
L 78.86739 196.686636 
L 79.029799 194.856322 
L 79.192207 185.560439 
L 79.354615 194.749232 
L 79.517024 197.532643 
L 79.679432 203.476074 
L 79.841841 200.492539 
L 80.004249 200.883232 
L 80.166658 186.274276 
L 80.329066 192.000734 
L 80.491475 190.279058 
L 80.653883 201.54416 
L 80.816292 191.747028 
L 80.9787 196.589055 
L 81.141109 187.767822 
L 81.303517 206.454676 
L 81.465926 191.219636 
L 81.628334 195.770564 
L 81.790743 186.561938 
L 81.953151 194.234356 
L 82.11556 193.021564 
L 82.277968 195.942495 
L 82.440377 201.885744 
L 82.602785 194.750245 
L 82.765194 200.510984 
L 82.927602 194.352569 
L 83.09001 198.158345 
L 83.252419 193.47009 
L 83.414827 197.419002 
L 83.577236 188.966137 
L 83.739644 203.111047 
L 83.902053 189.446992 
L 84.064461 193.274818 
L 84.22687 189.360156 
L 84.389278 199.295815 
L 84.551687 190.479991 
L 84.714095 194.549158 
L 84.876504 184.980313 
L 85.201321 199.567525 
L 85.363729 196.241187 
L 85.526138 195.400419 
L 85.688546 189.294709 
L 85.850955 198.216581 
L 86.013363 199.684929 
L 86.175772 205.052374 
L 86.33818 203.631195 
L 86.500588 187.437138 
L 86.662997 189.926223 
L 86.825405 186.188488 
L 86.987814 189.54007 
L 87.150222 190.314395 
L 87.312631 201.617505 
L 87.475039 183.212694 
L 87.637448 197.741575 
L 87.799856 187.370537 
L 87.962265 193.390081 
L 88.124673 193.328214 
L 88.287082 204.789434 
L 88.44949 190.585156 
L 88.611899 206.813363 
L 88.774307 195.518445 
L 88.936716 193.932686 
L 89.099124 198.232021 
L 89.261533 206.139236 
L 89.423941 200.889893 
L 89.58635 186.147712 
L 89.748758 187.49932 
L 90.073575 198.719963 
L 90.235983 194.099313 
L 90.398392 202.026025 
L 90.5608 192.627013 
L 90.723209 195.210021 
L 90.885617 190.547228 
L 91.048026 195.303679 
L 91.372843 189.922814 
L 91.535251 194.999231 
L 91.69766 188.314151 
L 92.022477 203.615803 
L 92.184885 203.464356 
L 92.347294 197.067628 
L 92.509702 195.852917 
L 92.672111 187.519256 
L 92.834519 194.298515 
L 92.996928 191.663953 
L 93.159336 195.165624 
L 93.321745 190.358319 
L 93.484153 191.233398 
L 93.646561 189.485477 
L 93.80897 196.187084 
L 93.971378 190.55609 
L 94.133787 199.347679 
L 94.296195 186.26507 
L 94.621012 206.184211 
L 94.945829 192.517914 
L 95.108238 191.899538 
L 95.433055 208.958097 
L 95.595463 184.658352 
L 95.757872 187.360625 
L 95.92028 204.471971 
L 96.082689 185.78012 
L 96.245097 200.551482 
L 96.407506 204.680392 
L 96.569914 194.351616 
L 96.894731 200.502298 
L 97.057139 189.659135 
L 97.219548 198.916598 
L 97.381956 191.497203 
L 97.706773 205.29444 
L 98.03159 190.27617 
L 98.193999 188.874702 
L 98.518816 202.00337 
L 98.681224 197.920096 
L 98.843633 197.572516 
L 99.006041 186.861542 
L 99.16845 197.130857 
L 99.330858 196.285252 
L 99.493267 193.395223 
L 99.655675 193.076389 
L 99.818084 195.151569 
L 99.980492 195.36896 
L 100.142901 203.997006 
L 100.305309 192.045098 
L 100.467717 188.903607 
L 100.630126 203.530159 
L 100.792534 203.515198 
L 101.117351 197.078991 
L 101.27976 202.218243 
L 101.442168 202.606515 
L 101.604577 202.568189 
L 101.766985 198.800742 
L 101.929394 199.916431 
L 102.091802 196.976409 
L 102.254211 190.987555 
L 102.416619 200.662337 
L 102.579028 190.636897 
L 102.741436 199.149027 
L 102.903845 197.099919 
L 103.066253 187.333005 
L 103.228662 194.940913 
L 103.39107 187.229533 
L 103.553479 201.522254 
L 103.715887 194.135203 
L 103.878296 192.601539 
L 104.040704 192.752662 
L 104.203112 190.490657 
L 104.365521 198.152737 
L 104.527929 198.570781 
L 104.690338 197.548061 
L 105.015155 202.579646 
L 105.177563 196.36975 
L 105.664789 202.630604 
L 105.989606 190.600963 
L 106.152014 197.774477 
L 106.314423 192.613739 
L 106.63924 200.772627 
L 106.801648 196.904249 
L 106.964057 199.405755 
L 107.126465 188.223263 
L 107.288874 198.578336 
L 107.451282 198.623066 
L 107.776099 205.862566 
L 107.938507 192.41938 
L 108.100916 188.444406 
L 108.263324 189.290238 
L 108.425733 195.215902 
L 108.588141 188.08967 
L 108.75055 208.977517 
L 109.075367 185.313277 
L 109.237775 201.633608 
L 109.400184 185.358194 
L 109.562592 194.000618 
L 109.725001 188.923746 
L 109.887409 200.609539 
L 110.049818 192.994647 
L 110.212226 196.394966 
L 110.374635 191.56283 
L 110.537043 195.456574 
L 110.699452 190.27236 
L 110.86186 197.785328 
L 111.024268 194.816211 
L 111.186677 202.231008 
L 111.349085 197.160782 
L 111.511494 202.141755 
L 111.836311 195.898843 
L 111.998719 193.76906 
L 112.161128 193.141984 
L 112.323536 194.724389 
L 112.485945 199.125267 
L 112.648353 190.980766 
L 112.810762 189.589255 
L 113.135579 198.517514 
L 113.460396 195.485305 
L 113.622804 186.941854 
L 113.785213 193.643191 
L 113.947621 192.493436 
L 114.11003 195.573902 
L 114.272438 201.618942 
L 114.434847 193.570972 
L 114.597255 195.838295 
L 114.922072 197.265193 
L 115.08448 188.825616 
L 115.246889 203.669262 
L 115.409297 192.142934 
L 115.571706 192.87815 
L 115.734114 190.35098 
L 115.896523 194.18672 
L 116.058931 193.627516 
L 116.22134 186.654565 
L 116.708565 199.682173 
L 116.870974 189.472111 
L 117.033382 195.13128 
L 117.195791 194.653373 
L 117.358199 193.203388 
L 117.683016 205.377032 
L 117.845425 191.99011 
L 118.007833 195.013161 
L 118.170241 193.247976 
L 118.33265 194.771171 
L 118.495058 184.95686 
L 118.657467 201.330597 
L 118.819875 190.247532 
L 118.982284 196.908788 
L 119.144692 196.329962 
L 119.307101 187.188922 
L 119.469509 186.419738 
L 119.631918 194.388409 
L 119.794326 193.585424 
L 119.956735 185.831975 
L 120.281552 211.347545 
L 120.606369 188.443484 
L 120.768777 199.564542 
L 120.931186 194.103172 
L 121.093594 201.266935 
L 121.256003 191.907592 
L 121.418411 198.086862 
L 121.58082 189.246507 
L 121.743228 197.481585 
L 121.905636 194.220189 
L 122.068045 200.113318 
L 122.230453 176.369156 
L 122.392862 201.911696 
L 122.55527 195.617869 
L 122.717679 196.220789 
L 122.880087 188.434768 
L 123.042496 197.587295 
L 123.204904 191.191157 
L 123.529721 197.462094 
L 123.854538 196.320617 
L 124.016947 200.544576 
L 124.179355 192.623318 
L 124.341764 196.769292 
L 124.504172 183.878593 
L 124.666581 190.464851 
L 124.828989 187.458666 
L 124.991398 196.215204 
L 125.316214 186.711559 
L 125.641031 199.128119 
L 125.80344 193.744433 
L 125.965848 193.653829 
L 126.128257 199.310739 
L 126.453074 195.127823 
L 126.615482 200.064876 
L 126.777891 201.010708 
L 126.940299 198.314996 
L 127.102708 206.359984 
L 127.265116 200.878578 
L 127.427525 204.573454 
L 127.589933 211.442182 
L 127.752342 201.283117 
L 127.91475 205.272056 
L 128.077159 214.313575 
L 128.239567 213.145238 
L 128.401976 221.206566 
L 128.726792 225.618266 
L 128.889201 230.088777 
L 129.051609 242.215542 
L 129.214018 244.020297 
L 129.376426 235.99474 
L 129.538835 247.369708 
L 129.863652 255.650475 
L 130.02606 261.595951 
L 130.188469 262.441727 
L 130.513286 239.688569 
L 131.16292 201.708848 
L 131.812554 123.532935 
L 132.299779 83.259985 
L 132.462187 62.614048 
L 132.624596 72.715654 
L 132.787004 60.370958 
L 132.949413 62.683716 
L 133.923864 132.132996 
L 134.248681 178.878493 
L 135.223132 274.64038 
L 135.38554 269.003229 
L 135.547949 279.951252 
L 135.710357 283.135733 
L 135.872765 292.925956 
L 136.035174 282.756698 
L 136.197582 289.051301 
L 136.359991 276.530633 
L 136.522399 277.913839 
L 137.172033 227.285627 
L 137.821667 172.67807 
L 137.984076 169.541743 
L 138.146484 155.974289 
L 138.308893 126.620678 
L 138.471301 127.933617 
L 138.63371 133.553016 
L 138.796118 119.453887 
L 138.958527 129.176314 
L 139.120935 124.440062 
L 139.445752 135.835633 
L 139.60816 153.922729 
L 139.770569 156.773115 
L 140.257794 191.791425 
L 140.74502 215.008431 
L 141.069837 246.966581 
L 141.394654 258.811365 
L 141.557062 258.738803 
L 141.881879 257.29624 
L 142.044288 258.351481 
L 142.206696 257.106269 
L 142.369105 266.161285 
L 142.531513 253.196624 
L 142.693922 251.16939 
L 143.181147 209.658203 
L 143.505964 198.135489 
L 143.993189 147.136465 
L 144.155598 144.976682 
L 144.318006 122.071644 
L 144.480415 136.180659 
L 144.642823 131.430744 
L 144.96764 115.845959 
L 145.130049 127.799361 
L 145.292457 124.743451 
L 145.617274 144.882172 
L 145.779683 145.559507 
L 145.942091 156.922739 
L 146.1045 178.113244 
L 146.266908 173.9545 
L 146.916542 213.564449 
L 147.07895 224.678446 
L 147.241359 217.179859 
L 147.403767 228.163345 
L 147.566176 225.014432 
L 147.728584 232.637543 
L 147.890993 230.275796 
L 148.053401 230.642111 
L 148.21581 226.883774 
L 148.378218 234.561156 
L 148.540627 216.901205 
L 148.703035 218.054009 
L 148.865444 209.098148 
L 149.190261 214.077856 
L 149.352669 211.722085 
L 149.515078 211.668579 
L 149.839894 195.91366 
L 150.002303 212.199112 
L 150.164711 189.600767 
L 150.32712 210.199462 
L 150.489528 201.175472 
L 150.651937 203.609912 
L 150.814345 197.17274 
L 150.976754 204.057897 
L 151.463979 190.373393 
L 151.626388 196.499196 
L 151.788796 189.414729 
L 151.951205 191.536084 
L 152.113613 186.543373 
L 152.276022 194.85397 
L 152.43843 181.735114 
L 152.600839 197.888409 
L 153.088064 187.533627 
L 153.250473 186.937844 
L 153.575289 200.79426 
L 153.737698 190.777308 
L 153.900106 198.771697 
L 154.062515 192.533321 
L 154.224923 193.759678 
L 154.387332 197.740812 
L 154.54974 195.332047 
L 154.712149 190.640104 
L 154.874557 196.366144 
L 155.036966 192.459264 
L 155.199374 193.271157 
L 155.361783 179.950551 
L 155.524191 200.414965 
L 155.6866 190.846016 
L 156.011417 200.752747 
L 156.173825 193.68448 
L 156.336234 198.562083 
L 156.498642 197.652449 
L 156.661051 196.030396 
L 156.823459 190.681786 
L 156.985867 195.220164 
L 157.148276 207.431514 
L 157.310684 206.081205 
L 157.473093 195.44411 
L 157.635501 195.939797 
L 157.960318 179.898083 
L 158.122727 195.30052 
L 158.447544 193.351467 
L 158.609952 193.423811 
L 158.772361 199.751201 
L 158.934769 182.894659 
L 159.097178 199.883019 
L 159.259586 188.534305 
L 159.584403 202.013032 
L 159.746812 198.112275 
L 159.90922 213.303225 
L 160.071629 203.94282 
L 160.234037 205.247245 
L 160.883671 220.556 
L 161.046079 213.514795 
L 161.208488 223.216954 
L 161.370896 223.326227 
L 161.533305 245.774283 
L 161.695713 241.429384 
L 161.858122 244.244362 
L 162.02053 251.919795 
L 162.345347 248.598129 
L 162.507756 255.087513 
L 162.670164 243.969944 
L 162.832573 252.316328 
L 162.994981 240.160282 
L 163.15739 240.23463 
L 163.482207 207.957633 
L 163.644615 198.514785 
L 164.456657 99.121975 
L 164.619066 99.459704 
L 164.781474 90.080324 
L 164.943883 70.373666 
L 165.2687 62.587245 
L 165.431108 66.679472 
L 165.593517 75.311797 
L 165.755925 71.4524 
L 166.080742 98.367325 
L 166.243151 111.34195 
L 166.730376 170.771378 
L 167.542418 257.127512 
L 167.704827 255.89179 
L 168.029644 277.343246 
L 168.192052 276.658408 
L 168.354461 284.300395 
L 168.516869 283.061689 
L 168.841686 273.935402 
L 169.004095 259.715553 
L 169.166503 263.348323 
L 169.328912 242.674111 
L 169.653729 238.001878 
L 169.816137 206.974275 
L 169.978546 204.80863 
L 170.465771 153.77749 
L 170.62818 156.34812 
L 170.790588 135.237536 
L 170.952996 131.985141 
L 171.277813 122.992086 
L 171.60263 131.304792 
L 171.765039 130.910874 
L 171.927447 144.354119 
L 172.252264 153.409209 
L 172.414673 172.139801 
L 172.577081 172.14977 
L 173.226715 227.828189 
L 174.363575 262.28415 
L 174.525983 254.173301 
L 174.688391 254.884243 
L 174.8508 246.365504 
L 175.013208 244.588308 
L 175.175617 241.516214 
L 175.338025 221.133334 
L 175.500434 216.716954 
L 175.662842 217.798622 
L 176.799702 128.601533 
L 176.96211 135.051994 
L 177.124519 129.88494 
L 177.286927 115.788182 
L 177.449336 120.398916 
L 177.611744 119.265934 
L 177.774153 120.174913 
L 178.098969 144.734022 
L 178.261378 150.63642 
L 178.586195 174.899508 
L 178.748603 177.528785 
L 178.911012 185.429899 
L 179.07342 201.147757 
L 179.235829 205.34477 
L 179.560646 221.235157 
L 179.723054 221.97554 
L 179.885463 234.33326 
L 180.047871 231.591831 
L 180.21028 233.087874 
L 180.372688 222.180169 
L 180.697505 217.434417 
L 180.859914 224.758363 
L 181.022322 209.137747 
L 181.184731 220.810636 
L 181.347139 210.909138 
L 181.509548 211.808076 
L 181.834364 205.14512 
L 181.996773 189.424854 
L 182.159181 209.118789 
L 182.32159 202.751718 
L 182.483998 213.10221 
L 182.646407 193.099533 
L 182.971224 198.165308 
L 183.133632 198.235078 
L 183.296041 201.420369 
L 183.458449 201.961156 
L 183.783266 187.359253 
L 183.945675 198.308931 
L 184.108083 195.361935 
L 184.270492 194.626456 
L 184.4329 205.308742 
L 184.595309 203.251715 
L 184.757717 191.617278 
L 184.920126 196.937266 
L 185.082534 195.225658 
L 185.244942 195.141461 
L 185.407351 191.485494 
L 185.569759 191.363823 
L 185.732168 195.276172 
L 185.894576 203.907577 
L 186.381802 182.46604 
L 186.706619 201.006877 
L 187.193844 192.564823 
L 187.356253 193.335521 
L 187.518661 185.568869 
L 187.68107 196.701249 
L 187.843478 192.701736 
L 188.005887 199.218706 
L 188.330704 193.596079 
L 188.493112 203.243301 
L 188.817929 190.57223 
L 188.980337 195.660934 
L 189.305154 189.664565 
L 189.467563 202.851506 
L 189.629971 190.13434 
L 189.79238 190.464241 
L 190.117197 205.56643 
L 190.279605 187.507562 
L 190.604422 200.418861 
L 190.766831 195.23818 
L 191.091648 198.645825 
L 191.254056 188.07602 
L 191.416465 197.119811 
L 191.578873 188.625656 
L 191.90369 196.802631 
L 192.066099 198.334445 
L 192.390915 193.630682 
L 192.553324 204.338047 
L 192.715732 199.455476 
L 192.878141 201.181935 
L 193.040549 208.179914 
L 193.202958 223.337831 
L 193.365366 223.607768 
L 193.527775 217.49042 
L 193.690183 238.244077 
L 193.852592 231.729548 
L 194.015 244.643145 
L 194.502226 249.804769 
L 194.664634 261.403362 
L 194.827043 251.928078 
L 194.989451 260.426234 
L 195.15186 243.436743 
L 195.314268 244.89901 
L 195.476677 243.31919 
L 195.801493 221.910984 
L 195.963902 222.74759 
L 197.26317 72.739837 
L 197.425578 78.575631 
L 197.587987 62.188359 
L 197.750395 62.429691 
L 197.912804 53.568 
L 198.237621 66.673993 
L 198.400029 92.612664 
L 198.562438 93.556309 
L 199.37448 195.266533 
L 199.536888 202.34256 
L 199.861705 243.87381 
L 200.511339 284.439726 
L 200.673748 282.553276 
L 200.998565 283.795295 
L 201.160973 287.367962 
L 201.323382 268.28212 
L 201.48579 268.677269 
L 201.648199 258.759536 
L 201.810607 256.866114 
L 201.973016 247.966393 
L 202.460241 195.593035 
L 202.62265 189.613438 
L 202.947466 154.201993 
L 203.5971 122.464402 
L 203.759509 117.632575 
L 203.921917 116.985689 
L 204.084326 109.246101 
L 204.896368 172.277961 
L 205.058777 170.553857 
L 205.221185 193.420405 
L 205.383594 196.359051 
L 205.870819 245.510521 
L 206.033228 233.991603 
L 206.358044 263.212251 
L 206.84527 254.57291 
L 207.170087 257.296649 
L 207.332495 251.880412 
L 207.494904 252.006737 
L 207.819721 235.839874 
L 207.982129 229.208224 
L 208.144538 203.816899 
L 208.306946 211.725932 
L 208.631763 179.040834 
L 208.95658 158.15044 
L 209.606214 114.947805 
L 209.768622 115.088021 
L 209.931031 127.517823 
L 210.093439 111.739419 
L 210.255848 129.946029 
L 210.418256 134.954967 
L 210.580665 135.382075 
L 210.905482 160.412216 
L 211.06789 162.035157 
L 211.230299 189.699153 
L 211.392707 191.758828 
L 211.717524 198.840345 
L 211.879933 219.030311 
L 212.042341 213.072896 
L 212.367158 235.239447 
L 212.529567 223.627063 
L 212.691975 222.522852 
L 212.854384 226.158121 
L 213.016792 217.940167 
L 213.179201 222.258998 
L 213.341609 215.710935 
L 213.504017 219.633844 
L 213.666426 214.923812 
L 213.828834 218.02989 
L 213.991243 201.639311 
L 214.153651 204.941752 
L 214.31606 217.346615 
L 214.478468 210.821068 
L 214.803285 208.320692 
L 215.452919 189.849858 
L 215.615328 198.85008 
L 215.777736 187.640738 
L 215.940145 196.906209 
L 216.102553 197.690144 
L 216.264962 201.605437 
L 216.589779 189.325044 
L 216.752187 197.16348 
L 216.914595 188.633649 
L 217.077004 206.259199 
L 217.239412 198.749606 
L 217.726638 193.62409 
L 217.889046 197.284266 
L 218.051455 206.390988 
L 218.213863 190.931387 
L 218.376272 191.274055 
L 218.53868 189.769677 
L 218.863497 195.381513 
L 219.025906 202.289831 
L 219.188314 191.327464 
L 219.350723 195.047803 
L 219.513131 195.124561 
L 219.67554 193.459578 
L 219.837948 193.967916 
L 220.000357 200.233508 
L 220.162765 188.577385 
L 220.325173 206.117091 
L 220.64999 193.604182 
L 220.974807 206.656716 
L 221.299624 191.812317 
L 221.624441 196.93471 
L 222.111667 183.664696 
L 222.274075 198.762429 
L 222.436484 196.142166 
L 222.598892 196.14017 
L 222.761301 200.193923 
L 223.086118 191.744585 
L 223.248526 198.276089 
L 223.410935 190.15104 
L 223.573343 203.759166 
L 223.735752 195.337571 
L 223.89816 196.796581 
L 224.060568 196.735767 
L 224.222977 191.732436 
L 224.547794 196.833841 
L 224.710202 205.562584 
L 224.872611 197.653655 
L 225.035019 207.914983 
L 225.197428 203.608058 
L 225.522245 210.245756 
L 225.684653 227.247416 
L 225.847062 220.945642 
L 226.00947 233.095075 
L 226.171879 232.028095 
L 226.334287 233.158955 
L 226.496696 236.727011 
L 226.659104 235.855798 
L 226.983921 248.744296 
L 227.14633 271.332082 
L 227.308738 251.627351 
L 227.471146 250.070722 
L 227.633555 246.177886 
L 227.795963 255.753787 
L 228.283189 215.264219 
L 228.445597 211.3869 
L 228.608006 187.381626 
L 228.770414 185.501138 
L 229.095231 147.511889 
L 229.420048 109.394003 
L 229.744865 74.785761 
L 229.907274 79.564819 
L 230.232091 66.758027 
L 230.394499 60.595542 
L 230.556908 65.426986 
L 231.044133 102.023496 
L 231.206541 130.640635 
L 231.36895 132.897781 
L 231.856175 201.699668 
L 232.018584 207.335747 
L 232.343401 237.691504 
L 232.668218 266.522672 
L 232.993035 273.502884 
L 233.155443 277.523392 
L 233.317852 284.571298 
L 233.48026 286.23919 
L 233.642669 277.908707 
L 233.805077 279.651548 
L 234.454711 248.507692 
L 234.617119 218.669069 
L 234.779528 222.770164 
L 235.104345 179.609533 
L 235.59157 156.550718 
L 235.916387 126.892041 
L 236.078796 119.902752 
L 236.241204 124.914672 
L 236.566021 123.670595 
L 236.72843 126.135536 
L 237.053247 143.696397 
L 237.865289 206.438733 
L 238.027697 204.048182 
L 238.352514 236.53653 
L 238.514923 235.370072 
L 238.677331 253.564144 
L 238.83974 255.644185 
L 239.002148 250.42927 
L 239.164557 250.851143 
L 239.326965 261.395639 
L 239.489374 254.762976 
L 239.651782 260.540094 
L 239.814191 245.385215 
L 239.976599 247.243822 
L 240.139008 229.313631 
L 240.301416 245.107385 
L 240.788642 198.381527 
L 240.95105 189.036663 
L 241.113459 161.508575 
L 241.275867 159.946045 
L 241.438276 157.042709 
L 241.600684 141.01721 
L 241.763092 141.685798 
L 241.925501 132.435283 
L 242.087909 115.974128 
L 242.250318 115.223384 
L 242.412726 121.6809 
L 242.575135 116.550059 
L 242.899952 140.498365 
L 243.06236 136.003318 
L 243.224769 141.672562 
L 243.387177 158.810547 
L 243.549586 164.084881 
L 243.711994 187.93492 
L 243.874403 194.354996 
L 244.036811 195.261961 
L 244.19922 200.794726 
L 244.361628 223.393432 
L 244.524037 215.322204 
L 244.686445 213.279095 
L 244.848854 220.120705 
L 245.011262 218.52085 
L 245.17367 229.603468 
L 245.336079 225.55551 
L 245.498487 225.75652 
L 245.660896 216.395399 
L 245.823304 215.195616 
L 245.985713 221.154743 
L 246.31053 214.044015 
L 246.472938 202.545118 
L 246.635347 206.376062 
L 246.797755 205.300725 
L 246.960164 214.844572 
L 247.122572 205.74066 
L 247.284981 206.656517 
L 247.447389 205.808378 
L 247.609798 189.565516 
L 247.772206 191.061989 
L 248.097023 201.810512 
L 248.259432 187.535043 
L 248.42184 199.897779 
L 248.584248 185.242049 
L 248.746657 194.866889 
L 248.909065 195.102617 
L 249.071474 185.175307 
L 249.396291 197.088097 
L 249.558699 184.732898 
L 249.721108 185.432562 
L 250.045925 193.607332 
L 250.208333 195.781343 
L 250.370742 194.531047 
L 250.53315 191.848607 
L 250.695559 194.64997 
L 250.857967 193.892325 
L 251.020376 194.127959 
L 251.182784 188.920476 
L 251.345193 196.138441 
L 251.507601 192.272945 
L 251.67001 191.784605 
L 251.832418 195.476283 
L 251.994827 191.125332 
L 252.157235 199.603173 
L 252.319643 192.466146 
L 252.482052 203.169906 
L 252.64446 191.754478 
L 252.806869 205.04043 
L 252.969277 200.443497 
L 253.131686 187.43638 
L 253.456503 199.092964 
L 253.78132 188.385431 
L 254.106137 194.690581 
L 254.268545 202.538321 
L 254.593362 191.313594 
L 254.755771 197.076962 
L 255.080588 191.65794 
L 255.242996 203.535356 
L 255.405405 190.55746 
L 255.567813 187.663695 
L 256.055038 199.389671 
L 256.217447 188.473063 
L 256.379855 185.653859 
L 256.542264 196.828288 
L 256.704672 187.770536 
L 256.867081 207.337065 
L 257.029489 201.9429 
L 257.191898 202.693856 
L 257.354306 194.96673 
L 257.516715 204.735695 
L 257.679123 207.448115 
L 257.841532 213.268929 
L 258.00394 199.49373 
L 258.166349 219.681282 
L 258.328757 215.910583 
L 258.491166 243.116539 
L 258.653574 226.67535 
L 258.815983 237.590462 
L 258.978391 237.634848 
L 259.140799 234.222873 
L 259.303208 239.758998 
L 259.465616 255.130354 
L 259.628025 256.640608 
L 259.790433 254.188039 
L 259.952842 247.495012 
L 260.11525 255.401732 
L 260.277659 248.702575 
L 260.440067 249.625556 
L 261.414518 159.809715 
L 261.739335 132.256295 
L 262.226561 74.580186 
L 262.388969 77.752802 
L 262.713786 56.073425 
L 262.876194 62.719043 
L 263.038603 64.256679 
L 263.525828 100.161696 
L 263.688237 122.166798 
L 263.850645 126.21159 
L 264.987505 259.356179 
L 265.149913 264.501973 
L 265.312322 276.06684 
L 265.47473 271.71781 
L 265.637139 277.181147 
L 265.799547 294.21766 
L 265.961956 295.488 
L 266.286772 279.698845 
L 266.611589 266.905319 
L 267.098815 219.858035 
L 267.261223 213.265654 
L 267.423632 200.32018 
L 267.58604 196.705077 
L 267.910857 153.701227 
L 268.073266 151.074811 
L 268.398083 129.303235 
L 268.7229 120.533128 
L 269.210125 128.390646 
L 269.534942 142.307206 
L 269.69735 161.270075 
L 269.859759 161.851825 
L 270.022167 178.675428 
L 270.184576 183.180168 
L 270.509393 207.212362 
L 270.83421 231.079885 
L 270.996618 235.1229 
L 271.159027 250.7843 
L 271.321435 252.885548 
L 271.483844 252.959232 
L 271.808661 269.862781 
L 272.295886 254.000659 
L 272.458295 255.221336 
L 272.620703 234.506287 
L 272.94552 229.707287 
L 273.270337 197.306418 
L 273.432745 196.308818 
L 273.757562 160.65129 
L 274.569605 118.207772 
L 274.732013 122.943966 
L 274.894422 121.526505 
L 275.05683 125.300332 
L 275.219239 133.709468 
L 275.381647 129.666174 
L 275.706464 144.801733 
L 276.031281 177.472816 
L 276.19369 179.47827 
L 276.356098 191.962763 
L 276.518507 195.31761 
L 276.680915 202.352754 
L 276.843323 220.866021 
L 277.005732 220.556461 
L 277.16814 218.964592 
L 277.330549 234.145923 
L 277.492957 221.776494 
L 277.655366 237.994202 
L 277.817774 234.932093 
L 277.980183 229.624205 
L 278.142591 229.32616 
L 278.305 222.671398 
L 278.467408 231.514291 
L 278.629817 215.09966 
L 278.792225 215.685768 
L 278.954634 216.942045 
L 279.117042 214.159117 
L 279.279451 203.568942 
L 279.441859 208.325225 
L 279.766676 193.358522 
L 279.929085 201.476995 
L 280.091493 186.355993 
L 280.253901 202.578506 
L 280.41631 195.161198 
L 280.578718 199.425316 
L 280.741127 195.696492 
L 280.903535 187.93007 
L 281.228352 202.413179 
L 281.390761 202.257432 
L 281.553169 197.052767 
L 281.715578 198.602734 
L 281.877986 210.564844 
L 282.202803 191.545274 
L 282.365212 202.802222 
L 282.52762 194.762023 
L 282.852437 201.38116 
L 283.014846 187.148388 
L 283.339663 204.591046 
L 283.502071 191.868016 
L 283.66448 189.90172 
L 283.826888 201.774105 
L 283.989296 190.520715 
L 284.151705 208.437517 
L 284.314113 193.431374 
L 284.476522 198.1608 
L 284.63893 195.048001 
L 284.801339 200.543184 
L 284.963747 195.461291 
L 285.126156 199.337436 
L 285.288564 189.371621 
L 285.450973 197.394144 
L 285.613381 185.643479 
L 285.938198 193.06607 
L 286.263015 188.647453 
L 286.587832 197.25933 
L 286.750241 197.606135 
L 286.912649 186.315883 
L 287.075058 199.136656 
L 287.237466 197.930729 
L 287.399874 200.295952 
L 287.562283 209.937463 
L 287.724691 195.204665 
L 287.8871 205.679066 
L 288.049508 191.811138 
L 288.211917 193.67777 
L 288.374325 208.591237 
L 288.536734 194.380469 
L 288.699142 193.199133 
L 288.861551 198.637329 
L 289.023959 188.067761 
L 289.348776 206.038709 
L 289.511185 197.31441 
L 289.836002 196.330731 
L 289.99841 190.283276 
L 290.160819 192.093101 
L 290.323227 197.603168 
L 290.485636 193.131745 
L 290.648044 203.747368 
L 290.810452 187.821993 
L 290.972861 197.780818 
L 291.135269 189.12255 
L 291.297678 195.8776 
L 291.460086 194.826883 
L 291.622495 188.582485 
L 291.784903 192.939763 
L 292.272129 186.966322 
L 292.434537 195.236244 
L 292.596946 193.269852 
L 292.759354 196.751889 
L 292.921763 192.151186 
L 293.084171 201.585989 
L 293.24658 193.062152 
L 293.408988 205.896819 
L 293.896214 192.02875 
L 294.058622 189.841615 
L 294.221031 192.174317 
L 294.383439 206.509862 
L 294.545847 185.86946 
L 294.708256 196.628525 
L 294.870664 199.350425 
L 295.033073 190.423418 
L 295.35789 198.489637 
L 295.682707 195.262823 
L 295.845115 197.610766 
L 296.007524 189.781941 
L 296.169932 187.323377 
L 296.332341 196.856714 
L 296.494749 193.685485 
L 296.657158 195.215297 
L 296.819566 184.889282 
L 296.981975 200.344332 
L 297.144383 195.534429 
L 297.306792 197.363727 
L 297.4692 185.179468 
L 297.956425 193.983852 
L 298.118834 182.967172 
L 298.281242 194.718587 
L 298.443651 187.401809 
L 298.606059 202.940671 
L 298.768468 187.032223 
L 298.930876 199.138622 
L 299.093285 199.474825 
L 299.255693 199.452866 
L 299.418102 190.332636 
L 299.905327 204.838427 
L 300.230144 191.72227 
L 300.554961 187.935195 
L 300.71737 189.566307 
L 300.879778 202.709175 
L 301.042187 193.058857 
L 301.204595 191.937562 
L 301.367004 199.739529 
L 301.529412 182.857141 
L 301.69182 190.78112 
L 301.854229 190.430055 
L 302.016637 193.576455 
L 302.341454 187.483075 
L 302.503863 185.874586 
L 302.82868 198.208652 
L 302.991088 195.351708 
L 303.153497 196.586257 
L 303.478314 193.67658 
L 303.640722 185.282346 
L 303.803131 198.859903 
L 303.965539 191.339213 
L 304.127948 190.228008 
L 304.290356 188.308769 
L 304.452765 188.574541 
L 304.615173 186.755486 
L 304.777582 194.422357 
L 304.93999 195.996228 
L 305.102398 204.285482 
L 305.427215 189.577016 
L 305.752032 199.504407 
L 305.914441 194.401357 
L 306.076849 194.85546 
L 306.239258 194.312066 
L 306.401666 185.885279 
L 306.564075 201.310077 
L 306.726483 197.037105 
L 306.888892 187.50995 
L 307.0513 193.593459 
L 307.213709 193.846571 
L 307.376117 201.431392 
L 307.538526 183.733337 
L 307.700934 196.294012 
L 307.863343 195.400568 
L 308.025751 191.199586 
L 308.18816 193.168036 
L 308.350568 181.778741 
L 308.512976 192.630598 
L 308.837793 197.167678 
L 309.000202 195.033288 
L 309.16261 195.070067 
L 309.325019 194.747858 
L 309.487427 198.670748 
L 309.812244 189.214373 
L 309.974653 193.70934 
L 310.137061 192.592226 
L 310.29947 188.727176 
L 310.461878 187.967979 
L 310.624287 190.860879 
L 310.786695 200.295544 
L 310.949104 193.851464 
L 311.111512 203.455499 
L 311.273921 198.493317 
L 311.436329 197.578931 
L 311.598738 202.320424 
L 311.923555 185.005104 
L 312.085963 196.742046 
L 312.248371 194.407739 
L 312.41078 190.338044 
L 312.573188 200.365912 
L 312.735597 198.443328 
L 312.898005 189.734576 
L 313.060414 197.181255 
L 313.385231 190.990262 
L 313.547639 183.199644 
L 313.710048 193.961542 
L 313.872456 191.502425 
L 314.034865 180.457825 
L 314.197273 193.158939 
L 314.359682 190.081138 
L 314.684499 201.330377 
L 314.846907 192.19271 
L 315.009316 198.731275 
L 315.334133 187.630563 
L 315.496541 199.223217 
L 315.658949 199.70243 
L 315.821358 193.978672 
L 315.983766 193.374878 
L 316.146175 189.084587 
L 316.308583 193.679853 
L 316.470992 192.08817 
L 316.795809 201.643524 
L 316.958217 193.498167 
L 317.120626 191.989021 
L 317.283034 196.815686 
L 317.445443 190.832699 
L 317.607851 199.363941 
L 317.77026 196.113195 
L 317.932668 179.980321 
L 318.095077 204.5147 
L 318.257485 197.866626 
L 318.419894 196.573208 
L 318.582302 192.253811 
L 318.744711 201.406713 
L 318.907119 185.494716 
L 319.069527 198.193437 
L 319.394344 200.836718 
L 319.719161 189.239669 
L 319.88157 188.04819 
L 320.043978 184.080375 
L 320.206387 203.712517 
L 320.368795 192.770938 
L 320.531204 198.888264 
L 320.693612 195.167969 
L 320.856021 185.144808 
L 321.018429 195.949343 
L 321.180838 192.708117 
L 321.343246 181.137454 
L 321.505655 202.17719 
L 321.99288 183.951036 
L 322.155289 198.727321 
L 322.317697 198.79541 
L 322.480106 199.285907 
L 322.642514 193.24968 
L 322.804922 200.962135 
L 322.967331 189.332788 
L 323.129739 199.287973 
L 323.292148 195.80082 
L 323.454556 183.670189 
L 323.616965 192.059996 
L 323.779373 194.044429 
L 323.941782 188.877136 
L 324.10419 200.237233 
L 324.429007 177.267504 
L 324.591416 197.143022 
L 324.753824 198.862257 
L 324.916233 190.37016 
L 325.078641 196.187339 
L 325.403458 193.289801 
L 325.565867 190.460384 
L 325.728275 200.211745 
L 325.890684 189.281904 
L 326.2155 200.890978 
L 326.377909 188.386391 
L 326.540317 192.237659 
L 326.702726 208.025271 
L 326.865134 182.590854 
L 327.027543 202.63628 
L 327.189951 197.934831 
L 327.35236 188.113893 
L 327.677177 195.389964 
L 327.839585 183.330124 
L 328.001994 198.137622 
L 328.164402 200.352729 
L 328.489219 193.081548 
L 328.651628 193.310188 
L 328.814036 204.611327 
L 328.976445 189.097989 
L 329.138853 188.156086 
L 329.301262 202.209978 
L 329.46367 186.744923 
L 329.626078 191.371139 
L 329.788487 184.627694 
L 329.950895 185.212135 
L 330.113304 189.301919 
L 330.275712 201.245778 
L 330.438121 178.035377 
L 330.600529 197.997033 
L 330.762938 191.553217 
L 330.925346 202.026391 
L 331.087755 193.539573 
L 331.250163 193.543844 
L 331.412572 196.139872 
L 331.57498 195.711341 
L 331.737389 202.589592 
L 331.899797 200.516816 
L 332.387023 190.677474 
L 332.549431 197.604822 
L 332.71184 195.261852 
L 332.874248 184.317174 
L 333.199065 202.170865 
L 333.361473 183.411095 
L 333.523882 189.414584 
L 333.68629 190.159814 
L 333.848699 187.373643 
L 334.011107 204.256342 
L 334.173516 189.985426 
L 334.335924 204.944266 
L 334.498333 187.491046 
L 334.660741 197.329786 
L 334.82315 192.327622 
L 334.985558 197.127816 
L 335.147967 185.57021 
L 335.310375 198.350247 
L 335.472784 192.7963 
L 335.635192 197.574445 
L 335.960009 181.165249 
L 336.122418 196.575343 
L 336.447235 189.43132 
L 336.609643 196.966814 
L 336.772051 196.289369 
L 336.93446 189.516267 
L 337.259277 200.665679 
L 337.421685 189.781894 
L 337.584094 196.183552 
L 337.908911 190.795414 
L 338.071319 199.952017 
L 338.396136 189.893014 
L 338.558545 195.127652 
L 338.720953 203.974229 
L 338.883362 192.433589 
L 339.208179 198.460528 
L 339.370587 184.788549 
L 339.532996 197.779858 
L 339.857813 203.881481 
L 340.020221 192.672601 
L 340.182629 191.604308 
L 340.345038 198.110922 
L 340.507446 197.795477 
L 340.669855 200.359853 
L 341.15708 191.418024 
L 341.319489 195.224754 
L 341.644306 192.201676 
L 341.806714 191.477723 
L 342.29394 199.187412 
L 342.456348 198.564028 
L 342.618757 198.620973 
L 342.781165 200.469359 
L 342.943574 198.296903 
L 343.105982 202.476891 
L 343.268391 195.249525 
L 343.593208 200.447109 
L 343.755616 182.839173 
L 344.080433 205.861404 
L 344.242841 191.521905 
L 344.567658 197.321307 
L 344.730067 193.63019 
L 345.054884 200.32811 
L 345.379701 192.804207 
L 345.542109 198.695136 
L 345.704518 192.372911 
L 345.866926 203.069213 
L 346.029335 187.312126 
L 346.191743 197.651676 
L 346.51656 195.546326 
L 346.678969 195.018022 
L 346.841377 195.22111 
L 347.166194 190.613965 
L 347.328602 190.964099 
L 347.491011 195.87093 
L 347.653419 192.342456 
L 347.815828 192.444121 
L 347.978236 195.87428 
L 348.140645 183.37558 
L 348.303053 197.536837 
L 348.62787 204.806087 
L 348.952687 201.910004 
L 349.277504 193.344299 
L 349.439913 184.303119 
L 349.602321 201.849443 
L 349.76473 180.128358 
L 350.089547 195.829159 
L 350.251955 194.228307 
L 350.414364 194.910079 
L 350.576772 201.653128 
L 350.73918 187.293443 
L 350.901589 184.252716 
L 351.388814 206.534443 
L 351.551223 193.921417 
L 351.713631 192.579745 
L 351.87604 184.526367 
L 352.200857 201.063344 
L 352.363265 196.293668 
L 352.525674 185.829995 
L 352.688082 195.583091 
L 352.850491 195.467995 
L 353.012899 186.268696 
L 353.175308 203.30972 
L 353.337716 181.271469 
L 353.500125 199.389733 
L 353.662533 187.278841 
L 353.98735 196.436764 
L 354.149759 191.323998 
L 354.312167 194.110848 
L 354.474575 199.62272 
L 354.799392 197.809194 
L 354.961801 199.62811 
L 355.124209 204.332065 
L 355.286618 200.890173 
L 355.449026 189.410017 
L 355.611435 211.000671 
L 355.773843 188.194067 
L 355.936252 197.292345 
L 356.09866 194.868199 
L 356.261069 189.930281 
L 356.423477 193.043427 
L 356.585886 204.304123 
L 356.748294 186.882125 
L 356.910703 196.321937 
L 357.073111 195.995687 
L 357.23552 195.032959 
L 357.397928 198.439686 
L 357.560337 193.60926 
L 357.722745 192.96925 
L 357.885153 186.937632 
L 358.047562 204.501617 
L 358.20997 202.477727 
L 358.534787 183.471789 
L 358.697196 196.101934 
L 358.859604 196.653177 
L 359.022013 191.140306 
L 359.184421 199.221369 
L 359.671647 190.785713 
L 359.834055 193.40641 
L 359.996464 201.191388 
L 360.158872 194.931862 
L 360.483689 197.879409 
L 360.646098 188.622283 
L 360.808506 196.280081 
L 360.970915 186.972443 
L 361.133323 205.138825 
L 361.295732 192.782051 
L 361.45814 199.185558 
L 361.620548 193.279249 
L 361.782957 198.379271 
L 361.945365 181.640078 
L 362.107774 198.15644 
L 362.270182 187.115747 
L 362.432591 191.347134 
L 362.594999 189.438349 
L 362.919816 195.937649 
L 363.244633 185.981991 
L 363.407042 182.240383 
L 363.56945 199.713505 
L 363.731859 202.914892 
L 363.894267 192.270305 
L 364.219084 195.72016 
L 364.381493 183.368637 
L 364.70631 197.987873 
L 364.868718 187.884238 
L 365.031126 194.318174 
L 365.193535 189.087599 
L 365.355943 197.228959 
L 365.518352 199.549512 
L 365.68076 193.777721 
L 365.843169 194.382822 
L 366.005577 206.623779 
L 366.167986 186.342715 
L 366.330394 188.113993 
L 366.655211 193.871418 
L 366.81762 192.824407 
L 366.980028 192.91231 
L 367.142437 197.053365 
L 367.304845 193.068819 
L 367.467254 183.839529 
L 367.792071 198.212243 
L 367.954479 193.33904 
L 368.116888 201.634215 
L 368.279296 188.271374 
L 368.441704 186.196159 
L 368.604113 188.109468 
L 368.766521 193.512556 
L 368.92893 203.119372 
L 369.091338 191.911341 
L 369.253747 189.389225 
L 369.416155 188.977495 
L 369.578564 201.770312 
L 369.903381 195.757576 
L 370.065789 189.148258 
L 370.228198 205.471905 
L 370.553015 194.43193 
L 370.715423 195.83756 
L 370.877832 186.91944 
L 371.04024 194.844275 
L 371.202649 190.576402 
L 371.365057 201.593076 
L 371.527466 204.474115 
L 371.689874 192.932847 
L 372.014691 200.012554 
L 372.177099 189.711293 
L 372.339508 190.894278 
L 372.501916 196.970958 
L 372.664325 193.016157 
L 372.826733 180.580323 
L 373.15155 197.398381 
L 373.476367 188.136269 
L 373.638776 194.259453 
L 373.963593 184.760547 
L 374.28841 194.803582 
L 374.613227 186.652029 
L 374.775635 195.611652 
L 374.938044 187.611647 
L 375.100452 195.321988 
L 375.262861 197.539843 
L 375.587677 187.271504 
L 375.750086 199.742312 
L 375.912494 192.487741 
L 376.074903 195.584756 
L 376.237311 202.797798 
L 376.39972 189.336141 
L 376.562128 190.230465 
L 376.724537 193.499522 
L 376.886945 199.838313 
L 377.049354 193.920088 
L 377.211762 192.141259 
L 377.374171 192.78412 
L 377.536579 200.097959 
L 377.698988 190.222732 
L 377.861396 202.294617 
L 378.023805 199.975477 
L 378.348622 186.268689 
L 378.673439 197.488024 
L 378.835847 187.129701 
L 378.998255 196.826542 
L 379.160664 190.323314 
L 379.323072 192.608826 
L 379.485481 184.95185 
L 379.647889 197.110147 
L 379.810298 194.740468 
L 379.972706 185.433924 
L 380.297523 199.751956 
L 380.459932 186.224452 
L 380.784749 199.10343 
L 380.947157 191.645311 
L 381.109566 191.635915 
L 381.271974 204.43765 
L 381.596791 194.216304 
L 381.7592 210.837571 
L 381.921608 187.777962 
L 382.246425 200.066208 
L 382.408834 196.468284 
L 382.571242 197.398768 
L 382.73365 196.846914 
L 382.896059 206.814389 
L 383.058467 189.507204 
L 383.220876 188.026943 
L 383.383284 194.644003 
L 383.545693 196.451608 
L 383.708101 201.539288 
L 383.87051 196.405355 
L 384.032918 196.04253 
L 384.195327 198.49188 
L 384.357735 189.927512 
L 384.682552 199.357014 
L 384.844961 186.872396 
L 385.007369 187.346564 
L 385.332186 200.92968 
L 385.494595 193.568504 
L 385.657003 194.042159 
L 385.98182 184.678354 
L 386.144228 199.033811 
L 386.306637 197.485799 
L 386.469045 189.457546 
L 386.631454 192.018127 
L 386.793862 205.790815 
L 386.956271 193.175699 
L 387.118679 192.529392 
L 387.281088 197.555261 
L 387.443496 184.516242 
L 387.605905 191.947138 
L 387.768313 207.110824 
L 387.930722 188.858633 
L 388.09313 202.451848 
L 388.417947 186.448176 
L 388.580356 188.987845 
L 388.742764 189.301319 
L 388.905173 198.123184 
L 389.22999 187.24168 
L 389.392398 203.574857 
L 389.717215 185.010177 
L 390.042032 193.458789 
L 390.20444 189.662226 
L 390.366849 196.968253 
L 390.529257 191.717971 
L 390.691666 192.34923 
L 390.854074 194.459136 
L 391.016483 187.274523 
L 391.178891 196.022802 
L 391.3413 195.600016 
L 391.503708 192.744341 
L 391.666117 197.652749 
L 391.828525 197.270132 
L 391.990934 190.541634 
L 392.153342 201.744546 
L 392.315751 188.938075 
L 392.478159 188.944797 
L 392.802976 197.586177 
L 392.965385 196.373148 
L 393.127793 193.423773 
L 393.290201 204.652912 
L 393.45261 186.692166 
L 393.615018 200.290627 
L 393.777427 193.421018 
L 393.939835 193.989625 
L 394.102244 189.644941 
L 394.264652 200.180689 
L 394.427061 186.33855 
L 394.589469 197.34354 
L 394.914286 194.506499 
L 395.076695 194.154012 
L 395.239103 193.085368 
L 395.401512 198.753149 
L 395.726329 189.027639 
L 396.051146 197.99172 
L 396.213554 184.95097 
L 396.375963 195.882245 
L 396.700779 190.98707 
L 396.863188 195.535931 
L 397.025596 194.582433 
L 397.188005 192.534154 
L 397.350413 195.469173 
L 397.512822 192.924429 
L 397.67523 194.049564 
L 397.837639 200.644903 
L 398.000047 193.091704 
L 398.162456 200.86179 
L 398.324864 194.512693 
L 398.487273 193.539333 
L 398.487273 193.539333 
" clip-path="url(#pe31246573f)" style="fill: none; stroke: #000000; stroke-width: 1.5; stroke-linecap: square"/>
   </g>
   <g id="patch_3">
    <path d="M 57.6 307.584 
L 57.6 41.472 
" style="fill: none; stroke: #000000; stroke-width: 0.8; stroke-linejoin: miter; stroke-linecap: square"/>
   </g>
   <g id="patch_4">
    <path d="M 414.72 307.584 
L 414.72 41.472 
" style="fill: none; stroke: #000000; stroke-width: 0.8; stroke-linejoin: miter; stroke-linecap: square"/>
   </g>
   <g id="patch_5">
    <path d="M 57.6 307.584 
L 414.72 307.584 
" style="fill: none; stroke: #000000; stroke-width: 0.8; stroke-linejoin: miter; stroke-linecap: square"/>
   </g>
   <g id="patch_6">
    <path d="M 57.6 41.472 
L 414.72 41.472 
" style="fill: none; stroke: #000000; stroke-width: 0.8; stroke-linejoin: miter; stroke-linecap: square"/>
   </g>
  </g>
 </g>
 <defs>
  <clipPath id="pe31246573f">
   <rect x="57.6" y="41.472" width="357.12" height="266.112"/>
  </clipPath>
 </defs>
</svg>
